<?xml version="1.0" encoding="UTF-8" standalone="no"?><!DOCTYPE svg PUBLIC "-//W3C//DTD SVG 1.1//EN" "http://www.w3.org/Graphics/SVG/1.1/DTD/svg11.dtd"><svg width="100%" height="100%" viewBox="0 0 9449 9449" version="1.1" xmlns="http://www.w3.org/2000/svg" xmlns:xlink="http://www.w3.org/1999/xlink" xml:space="preserve" xmlns:serif="http://www.serif.com/" style="fill-rule:evenodd;clip-rule:evenodd;stroke-linejoin:round;stroke-miterlimit:2;"><g id="Serbres"><g id="Logo"><path id="Bottom" d="M8093.53,6629.67l-13.493,86.839l-10.379,41.517l-22.834,82.687l-15.915,45.322l-83.725,200.318l-68.156,128.702l-39.787,61.237l-83.379,120.398l-46.706,56.739l-96.527,110.711l-52.933,51.204l-107.944,99.294l-58.123,44.976l-118.322,86.493l-62.275,37.711l-126.28,71.616l-65.734,30.1l-133.2,55.355l-68.502,21.105l-51.896,15.568l-28.37,6.574l-60.545,11.763l-40.132,4.844l-41.863,4.497l-24.91,2.076l-52.242,3.806l-30.791,1.73l-64.697,3.113l-38.057,1.384l-79.919,2.768l-46.361,1.038l-97.218,2.076l-56.047,1.038l-117.285,1.73l-67.118,0.345l-139.427,1.384l-79.227,0.346l-164.337,1.038l-92.72,0.346l-191.669,0.346l-106.905,0.346l-221.768,0.346l-122.82,0l-253.598,0.346l-3220.65,0l1347.91,-1349.29l2532.17,-0l186.479,-0.346l83.379,-0.346l159.493,-1.038l70.924,-0.692l135.275,-1.384l59.507,-1.038l113.479,-2.768l49.128,-1.383l93.758,-3.806l40.133,-2.422l76.46,-5.19l32.521,-3.113l60.891,-6.574l25.948,-4.151l48.436,-8.65l20.067,-4.843l70.924,-22.489l25.256,-14.876l45.322,-32.522l19.375,-20.412l38.057,-43.938l22.834,-26.986l53.279,-85.801l24.218,-64.351l6.574,-34.597l9.687,-70.233l-0.346,-35.981l-4.498,-72.654l-6.919,-35.635l-17.299,-71.27l-13.492,-33.559l-29.754,-66.081l-19.028,-29.753l-41.517,-57.086l-24.564,-23.872l-52.242,-44.63l-30.099,-16.261l-22.835,-14.877l-5.189,-8.303l3.114,-3.46l11.071,-6.227l12.801,-2.422l31.483,-4.844l24.564,-1.73l55.702,-3.113l38.056,-1.384l83.38,-2.076l53.625,-0.346l115.555,-1.384l70.924,-0.346l73,-0.346l40.133,0l83.033,-0.346l290.963,0l135.621,0.346l55.355,0.692l102.408,1.384l40.478,1.038l74.384,2.768l28.37,2.076l50.858,4.497l17.991,3.114l32.175,6.227l10.725,4.152l18.337,8.995l5.535,5.536l9.19,11.232c3.493,12.522 6.751,25.141 9.766,37.854c0.474,1.995 0.941,3.993 1.403,5.993c12.663,86.895 21.081,175.161 25.034,264.578c1.732,39.179 2.608,78.579 2.608,118.182c-0,107.563 -12.024,238.549 -19.889,312.719l-0.78,13.348l-5.882,45.322Z" style="fill:#0e0e0e;"/><path d="M8093.53,6629.67l-13.493,86.839l-10.379,41.517l-22.834,82.687l-15.915,45.322l-83.725,200.318l-68.156,128.702l-39.787,61.237l-83.379,120.398l-46.706,56.739l-96.527,110.711l-52.933,51.204l-107.944,99.294l-58.123,44.976l-118.322,86.493l-62.275,37.711l-126.28,71.616l-65.734,30.1l-133.2,55.355l-68.502,21.105l-51.896,15.568l-28.37,6.574l-60.545,11.763l-40.132,4.844l-41.863,4.497l-24.91,2.076l-52.242,3.806l-30.791,1.73l-64.697,3.113l-38.057,1.384l-79.919,2.768l-46.361,1.038l-97.218,2.076l-56.047,1.038l-117.285,1.73l-67.118,0.345l-139.427,1.384l-79.227,0.346l-164.337,1.038l-92.72,0.346l-191.669,0.346l-106.905,0.346l-221.768,0.346l-122.82,0l-253.598,0.346l-3220.65,0l1347.91,-1349.29l2532.17,-0l186.479,-0.346l83.379,-0.346l159.493,-1.038l70.924,-0.692l135.275,-1.384l59.507,-1.038l113.479,-2.768l49.128,-1.383l93.758,-3.806l40.133,-2.422l76.46,-5.19l32.521,-3.113l60.891,-6.574l25.948,-4.151l48.436,-8.65l20.067,-4.843l70.924,-22.489l25.256,-14.876l45.322,-32.522l19.375,-20.412l38.057,-43.938l22.834,-26.986l53.279,-85.801l24.218,-64.351l6.574,-34.597l9.687,-70.233l-0.346,-35.981l-4.498,-72.654l-6.919,-35.635l-17.299,-71.27l-13.492,-33.559l-29.754,-66.081l-19.028,-29.753l-41.517,-57.086l-24.564,-23.872l-52.242,-44.63l-30.099,-16.261l-22.835,-14.877l-5.189,-8.303l3.114,-3.46l11.071,-6.227l12.801,-2.422l31.483,-4.844l24.564,-1.73l55.702,-3.113l38.056,-1.384l83.38,-2.076l53.625,-0.346l115.555,-1.384l70.924,-0.346l73,-0.346l40.133,0l83.033,-0.346l290.963,0l135.621,0.346l55.355,0.692l102.408,1.384l40.478,1.038l74.384,2.768l28.37,2.076l50.858,4.497l17.991,3.114l32.175,6.227l10.725,4.152l18.337,8.995l5.535,5.536l9.19,11.232c3.493,12.522 6.751,25.141 9.766,37.854c0.474,1.995 0.941,3.993 1.403,5.993c12.663,86.895 21.081,175.161 25.034,264.578c1.732,39.179 2.608,78.579 2.608,118.182c-0,107.563 -12.024,238.549 -19.889,312.719l-0.78,13.348l-5.882,45.322Zm-1562.4,-819.847l15.725,10.244l29.647,16.017c0.777,0.42 1.507,0.92 2.178,1.494l52.242,44.63c0.203,0.174 0.401,0.354 0.593,0.54l24.564,23.872c0.51,0.497 0.978,1.036 1.397,1.612l41.517,57.085c0.146,0.202 0.287,0.408 0.421,0.618l19.029,29.753c0.327,0.513 0.617,1.048 0.867,1.603l29.753,66.081c0.07,0.155 0.137,0.311 0.2,0.469l13.493,33.559c0.224,0.558 0.408,1.131 0.55,1.715l17.298,71.27c0.046,0.187 0.087,0.376 0.124,0.566l6.919,35.635c0.104,0.531 0.172,1.069 0.206,1.61l4.497,72.654c0.014,0.217 0.021,0.435 0.024,0.652l0.345,35.981c0.006,0.612 -0.033,1.223 -0.116,1.828l-9.687,70.233c-0.029,0.209 -0.063,0.418 -0.103,0.625l-6.573,34.597c-0.134,0.706 -0.329,1.398 -0.582,2.07l-24.218,64.351c-0.287,0.764 -0.649,1.497 -1.079,2.191l-53.28,85.801c-0.322,0.519 -0.682,1.014 -1.077,1.48l-22.834,26.986l-0.094,0.109l-38.057,43.939c-0.124,0.143 -0.251,0.284 -0.382,0.421l-19.374,20.413c-0.543,0.571 -1.139,1.091 -1.779,1.55l-45.323,32.522c-0.305,0.219 -0.619,0.424 -0.943,0.614l-25.256,14.877c-0.809,0.477 -1.67,0.861 -2.566,1.145l-70.924,22.488c-0.279,0.088 -0.561,0.167 -0.845,0.236l-20.067,4.843c-0.243,0.059 -0.489,0.111 -0.735,0.155l-48.436,8.649l-0.223,0.038l-25.948,4.151c-0.21,0.034 -0.421,0.062 -0.633,0.085l-60.891,6.573l-0.15,0.016l-32.522,3.114c-0.114,0.011 -0.229,0.02 -0.345,0.028l-76.459,5.189l-0.094,0.006l-40.133,2.422l-0.246,0.013l-93.758,3.805l-0.155,0.006l-49.128,1.383l-0.047,0.002l-113.479,2.767l-0.087,0.002l-59.507,1.038l-0.09,0.001l-135.281,1.384l-70.924,0.692l-0.041,0.001l-159.493,1.038l-0.029,-0l-83.379,0.346l-0.029,-0l-186.479,0.346l-0.023,-0l-2526.99,-0l-1322.93,1324.29l3190.49,0l253.589,-0.346l122.827,0l221.748,-0.346l106.913,-0.346l191.656,-0.346l92.692,-0.346l164.321,-1.037l79.217,-0.346l139.392,-1.384l0.059,-0l67.059,-0.346l117.201,-1.729l56.006,-1.037l97.194,-2.075l46.277,-1.036l79.833,-2.765l37.972,-1.381l64.574,-3.108l30.638,-1.721l52.073,-3.793l24.696,-2.058l41.633,-4.473l39.606,-4.78l59.885,-11.635l27.763,-6.433l51.47,-15.441l67.89,-20.916l132.445,-55.042l65.041,-29.782l125.654,-71.261l61.658,-37.337l117.747,-86.072l57.567,-44.546l107.436,-98.827l52.439,-50.726l96.06,-110.177l46.264,-56.202l82.979,-119.819l39.382,-60.615l67.629,-127.705l83.365,-199.456l15.653,-44.577l22.68,-82.128l10.204,-40.817l13.381,-86.123l5.805,-44.729l0.754,-12.906c0.012,-0.197 0.028,-0.393 0.049,-0.589c7.831,-73.858 19.819,-204.291 19.819,-311.401c-0,-39.418 -0.871,-78.634 -2.596,-117.63c-3.927,-88.82 -12.279,-176.498 -24.842,-262.821c-0.418,-1.808 -0.841,-3.613 -1.269,-5.417c-2.776,-11.701 -5.759,-23.322 -8.945,-34.86l-7.129,-8.713l-3.626,-3.626l-15.984,-7.842l-9.178,-3.552l-30.958,-5.992l-17.356,-3.004l-50.246,-4.444l-28.051,-2.052l-74.088,-2.757l-40.331,-1.034l-102.326,-1.383l-55.287,-0.691l-135.542,-0.346l-290.921,0l-83.007,0.346l-0.052,0l-40.103,0l-72.97,0.346l-70.879,0.346l-115.51,1.383l-0.069,0.001l-53.51,0.345l-83.193,2.071l-37.863,1.377l-55.49,3.102l-23.96,1.687l-30.763,4.733l-10.406,1.969Z" style="fill:#0e0e0e;"/><g id="Heads"><path id="Head---Bottom" serif:id="Head - Bottom" d="M2552.62,4464.24l-9.86,-33.57l-8.866,-30.446l1796.22,0l4.786,0.346l59.853,4.498l34.251,1.73l71.616,3.46l40.479,1.729l84.763,2.768l47.744,1.384l98.948,2.768l55.356,1.038l114.862,2.076l64.005,1.383l132.161,2.076l72.655,1.038l150.843,2.076l82.688,1.384l217.962,3.114l132.161,2.075l60.199,1.038l115.901,1.73l33.696,0.67l49.198,-26.801l335.766,-190.882l57.627,-119.216l48.917,-96.08l32.491,-58.388l17.389,-28.072l35.573,-55.683l20.017,-28.651l41.69,-58.172l24.294,-31.751l30.469,-38.51l15.502,-18.275l5.488,-5.6l9.487,-8.496l2.466,-0.765l3.515,1.035l-0.454,4.038l-13.369,165.235l-3.184,109.639l1.297,53.568l4.441,105.737l5.075,50.269l5.602,49.752l3.444,23.968l7.415,47.418l4.408,22.606l18.786,95.851l41.955,16.856l38.369,13.127l27.903,7.873l14.838,3.307l61.638,11.81l32.837,3.507l66.344,5.389l33.235,0.076l65.655,-1.601l30.767,-3.645l75.543,-9.04l41.811,111.143l41.78,111.034l71.347,48.478l27.988,18.357l20.752,12.69l11.295,6.651l47.696,27.238l26.62,14.176l54.887,28.667l29.148,14.455l59.383,28.807l30.248,13.994l60.98,27.721l30.083,12.983l59.751,25.268l28.387,11.266l55.695,21.448l25.292,8.92l48.741,16.403l20.769,5.836l24.669,7.459l14.609,4.913l5.944,2.171l10.772,4.332l3.489,1.752l5.537,3.123l0.268,0.98l-0.829,5.926l-2.34,6.513l-2.025,4.408l-4.414,9.519l-2.784,5.706l-6.27,12.103l-3.603,6.786l-16.077,29.201l-9.544,16.425l-19.908,33.933l-10.598,17.461l-21.432,34.878l-10.456,16.354l-20.577,31.896l-9.203,13.604l-17.445,25.019l-6.754,8.71l-6.286,7.974l-2.502,2.666l-4.61,4.738l-1.524,0.945l-8.212,4.203l-7.979,3.421l-5.09,2.17l-22.974,8.903l-14.686,5.385l-31.311,11.018l-17.446,5.888l-36.112,11.799l-18.491,5.739l-82.321,22.954l-55.032,12.712l-27.162,5.006l-54.092,9.232l-26.287,3.317l-52.033,5.758l-24.796,1.438l-48.785,2.152l-22.731,-0.385l-44.246,-1.619l-20.094,-2.148l-38.692,-5.351l-16.839,-4.103l-31.918,-9.106l-13.012,-6l-63.121,-26.584l-44.083,-16.078l-22.713,-7.239l-92.682,-26.266l-47.244,-9.31l-47.167,-8.624l-23.404,-3.247l-46.628,-5.84l-22.78,-1.786l-45.25,-2.843l-21.79,-0.204l-42.931,0.335l-20.461,1.391l-42.245,2.838l-204.363,71.345l-268.095,1.284l-152.573,0.346l-309.991,0.692l-2508.99,0l-2.454,-2.575c-310.165,-221.935 -539.343,-549.959 -634.308,-930.846Zm4351.41,244.545l1.64,2.325l3.287,2.641l2.71,1.757l13.197,8.304l9.881,5.554l21.792,12.013l13.251,6.871l27.898,14.369l15.458,7.603l26.159,12.901l10.672,5.191l20.02,9.611l8.022,3.651l14.748,6.642l5.842,2.202l10.49,3.711l4.029,0.876l7.204,1.07l2.82,-0.284l4.99,-1.313l1.949,-1.432l6.8,-8.133l3.837,-6.742l19.686,-27.014l17.643,-19.412l8.288,-7.178l18.451,-19.309l2.817,-4.771l0.332,-1.638l-0.202,-2.772l-1.441,-0.379l-7.439,-1.116l-7.585,-0.835l-4.997,-0.338l-22.588,-1.492l-14.696,-0.753l-31.124,-1.322l-17.34,-0.641l-35.501,-1.027l-18.059,-0.417l-35.883,-0.79l-16.647,-0.148l-32.178,-0.286l-13.268,-0.016l-12.664,0.152l-5.451,0.039l-10.063,0.289l-3.967,0.168l-7.021,0.408l-2.174,0.203l-3.406,0.585l-0.219,0.422Z" style="fill:#0e0e0e;"/><path d="M2552.62,4464.24l-9.86,-33.57l-8.866,-30.446l1796.22,0l4.786,0.346l59.853,4.498l34.251,1.73l71.616,3.46l40.479,1.729l84.763,2.768l47.744,1.384l98.948,2.768l55.356,1.038l114.862,2.076l64.005,1.383l132.161,2.076l72.655,1.038l150.843,2.076l82.688,1.384l217.962,3.114l132.161,2.075l60.199,1.038l115.901,1.73l33.696,0.67l49.198,-26.801l335.766,-190.882l57.627,-119.216l48.917,-96.08l32.491,-58.388l17.389,-28.072l35.573,-55.683l20.017,-28.651l41.69,-58.172l24.294,-31.751l30.469,-38.51l15.502,-18.275l5.488,-5.6l9.487,-8.496l2.466,-0.765l3.515,1.035l-0.454,4.038l-13.369,165.235l-3.184,109.639l1.297,53.568l4.441,105.737l5.075,50.269l5.602,49.752l3.444,23.968l7.415,47.418l4.408,22.606l18.786,95.851l41.955,16.856l38.369,13.127l27.903,7.873l14.838,3.307l61.638,11.81l32.837,3.507l66.344,5.389l33.235,0.076l65.655,-1.601l30.767,-3.645l75.543,-9.04l41.811,111.143l41.78,111.034l71.347,48.478l27.988,18.357l20.752,12.69l11.295,6.651l47.696,27.238l26.62,14.176l54.887,28.667l29.148,14.455l59.383,28.807l30.248,13.994l60.98,27.721l30.083,12.983l59.751,25.268l28.387,11.266l55.695,21.448l25.292,8.92l48.741,16.403l20.769,5.836l24.669,7.459l14.609,4.913l5.944,2.171l10.772,4.332l3.489,1.752l5.537,3.123l0.268,0.98l-0.829,5.926l-2.34,6.513l-2.025,4.408l-4.414,9.519l-2.784,5.706l-6.27,12.103l-3.603,6.786l-16.077,29.201l-9.544,16.425l-19.908,33.933l-10.598,17.461l-21.432,34.878l-10.456,16.354l-20.577,31.896l-9.203,13.604l-17.445,25.019l-6.754,8.71l-6.286,7.974l-2.502,2.666l-4.61,4.738l-1.524,0.945l-8.212,4.203l-7.979,3.421l-5.09,2.17l-22.974,8.903l-14.686,5.385l-31.311,11.018l-17.446,5.888l-36.112,11.799l-18.491,5.739l-82.321,22.954l-55.032,12.712l-27.162,5.006l-54.092,9.232l-26.287,3.317l-52.033,5.758l-24.796,1.438l-48.785,2.152l-22.731,-0.385l-44.246,-1.619l-20.094,-2.148l-38.692,-5.351l-16.839,-4.103l-31.918,-9.106l-13.012,-6l-63.121,-26.584l-44.083,-16.078l-22.713,-7.239l-92.682,-26.266l-47.244,-9.31l-47.167,-8.624l-23.404,-3.247l-46.628,-5.84l-22.78,-1.786l-45.25,-2.843l-21.79,-0.204l-42.931,0.335l-20.461,1.391l-42.245,2.838l-204.363,71.345l-268.095,1.284l-152.573,0.346l-309.991,0.692l-2508.99,0l-2.454,-2.575c-310.165,-221.935 -539.343,-549.959 -634.308,-930.846Zm641.908,920.921l2503.83,0l309.977,-0.692l152.557,-0.346l265.99,-1.274l202.392,-70.657c1.059,-0.37 2.163,-0.595 3.282,-0.67l42.24,-2.838l20.456,-1.391c0.25,-0.017 0.5,-0.026 0.751,-0.028l42.93,-0.335l0.215,0l21.79,0.205c0.222,0.002 0.445,0.01 0.666,0.024l45.25,2.843l0.194,0.013l22.78,1.787c0.193,0.015 0.385,0.034 0.577,0.058l46.628,5.84l0.164,0.022l23.403,3.246c0.178,0.025 0.355,0.053 0.531,0.085l47.168,8.625l0.168,0.032l47.244,9.31c0.334,0.066 0.664,0.145 0.992,0.238l92.681,26.265c0.13,0.037 0.259,0.076 0.388,0.117l22.713,7.24c0.164,0.052 0.326,0.107 0.488,0.166l44.082,16.078c0.191,0.07 0.381,0.144 0.568,0.223l63.121,26.584c0.129,0.054 0.256,0.111 0.383,0.169l12.135,5.595l30.757,8.775l15.985,3.895l37.871,5.237l19.467,2.081l43.686,1.599l22.227,0.376l48.318,-2.131l24.383,-1.414l51.613,-5.712l25.922,-3.271l53.742,-9.172l26.806,-4.94l54.486,-12.586l81.876,-22.83l18.228,-5.658l35.967,-11.752l17.313,-5.842l31.158,-10.964l14.502,-5.318l22.673,-8.786l4.886,-2.083l7.578,-3.249l7.207,-3.688l3.417,-3.513l2.057,-2.191l5.922,-7.513l6.529,-8.419l17.213,-24.687l9.077,-13.418l20.489,-31.759l10.382,-16.239l21.356,-34.754l10.532,-17.352l19.847,-33.829l9.459,-16.279l15.961,-28.99l3.528,-6.647l6.173,-11.914l2.664,-5.46l4.353,-9.387l1.792,-3.9l0.705,-1.962l-0.393,-0.197l-10.104,-4.064l-5.604,-2.046l-14.274,-4.801l-24.367,-7.368l-20.65,-5.802c-0.204,-0.057 -0.406,-0.12 -0.606,-0.187l-48.741,-16.403l-0.17,-0.059l-25.292,-8.919c-0.112,-0.04 -0.224,-0.081 -0.335,-0.124l-55.696,-21.448l-0.118,-0.047l-28.387,-11.266c-0.086,-0.034 -0.172,-0.069 -0.257,-0.105l-59.751,-25.268l-0.085,-0.036l-30.083,-12.983l-0.219,-0.098l-60.981,-27.72l-0.076,-0.035l-30.248,-13.995l-0.207,-0.098l-59.383,-28.807l-0.097,-0.048l-29.149,-14.454l-0.233,-0.119l-54.887,-28.667l-0.088,-0.047l-26.62,-14.176c-0.109,-0.058 -0.217,-0.117 -0.324,-0.178l-47.696,-27.239l-0.143,-0.083l-11.296,-6.65l-0.179,-0.108l-20.752,-12.69c-0.112,-0.069 -0.224,-0.14 -0.334,-0.212l-27.988,-18.357l-0.169,-0.113l-71.347,-48.477c-2.133,-1.45 -3.766,-3.524 -4.674,-5.937l-41.781,-111.035l-38.359,-101.969l-65.825,7.877l-30.766,3.645c-0.388,0.046 -0.777,0.074 -1.166,0.083l-65.655,1.601c-0.112,0.003 -0.223,0.004 -0.334,0.004l-33.235,-0.077c-0.328,-0 -0.656,-0.014 -0.983,-0.041l-66.344,-5.388c-0.105,-0.009 -0.21,-0.019 -0.315,-0.03l-32.837,-3.507c-0.344,-0.037 -0.686,-0.088 -1.025,-0.153l-61.638,-11.809c-0.123,-0.024 -0.245,-0.049 -0.367,-0.076l-14.838,-3.307c-0.227,-0.051 -0.452,-0.108 -0.675,-0.171l-27.903,-7.872c-0.219,-0.062 -0.436,-0.13 -0.652,-0.204l-38.37,-13.127c-0.206,-0.07 -0.411,-0.146 -0.614,-0.228l-41.954,-16.856c-3.93,-1.579 -6.793,-5.039 -7.607,-9.195l-18.788,-95.863l-4.408,-22.606c-0.03,-0.153 -0.057,-0.307 -0.081,-0.461l-7.415,-47.418l-0.023,-0.153l-3.444,-23.968c-0.018,-0.126 -0.034,-0.252 -0.049,-0.379l-5.602,-49.752l-0.015,-0.143l-5.075,-50.27c-0.025,-0.243 -0.042,-0.487 -0.052,-0.731l-4.441,-105.737l-0.007,-0.221l-1.297,-53.569c-0.006,-0.221 -0.005,-0.443 0.001,-0.665l3.185,-109.639c0.006,-0.215 0.018,-0.43 0.035,-0.645l11.523,-142.42l-12.029,14.18l-30.273,38.262l-24.114,31.515l-41.532,57.952l-19.826,28.378l-35.387,55.392l-17.189,27.75l-32.237,57.93l-48.754,95.761l-57.571,119.099c-1.103,2.281 -2.874,4.174 -5.077,5.426l-335.765,190.883l-0.198,0.11l-49.198,26.801c-1.908,1.039 -4.055,1.563 -6.228,1.52l-33.666,-0.669l-115.869,-1.729l-60.219,-1.038l-132.143,-2.076l-217.953,-3.113l-0.031,-0.001l-82.668,-1.383l-150.832,-2.076l-72.672,-1.038l-132.161,-2.076l-0.074,-0.001l-63.983,-1.384l-114.849,-2.075l-55.355,-1.038l-0.115,-0.003l-98.961,-2.768l-47.744,-1.384l-0.046,-0.002l-84.763,-2.767l-0.126,-0.005l-40.478,-1.73l-0.07,-0.003l-71.643,-3.461l-34.252,-1.73c-0.102,-0.005 -0.204,-0.012 -0.306,-0.019l-59.835,-4.497l-4.318,-0.312l-1779.1,0l4.204,14.437l9.856,33.556c0.048,0.166 0.093,0.332 0.135,0.499c94.236,377.967 321.666,703.471 629.453,923.704c0.11,0.079 0.218,0.159 0.326,0.241Zm3709.5,-663.876l8.384,-5.307l1.193,0.75c-1.833,2.151 -3.981,3.196 -5.756,3.698l1.242,-0.212c-1.567,0.694 -3.287,1.071 -5.063,1.071Z" style="fill:#0e0e0e;"/><path id="Head---Middle" serif:id="Head - Middle" d="M2470.78,4158.04c-17.94,-96.745 -27.317,-196.479 -27.317,-298.386c-0,-203.485 37.39,-398.306 105.669,-577.961l1475.33,0l7.016,-12.606l10.676,-17.236l21.84,-34.187l12.29,-17.591l25.596,-35.716l14.916,-19.494l18.707,-23.643l9.518,-11.22l3.369,-3.439l5.825,-5.216l1.514,-0.47l2.158,0.636l-0.279,2.479l-8.208,101.449l-1.955,67.314l0.797,32.889l2.726,64.919l3.116,30.864l3.439,30.546l2.115,14.715l4.552,29.113l2.707,13.879l11.534,58.849l25.758,10.35l23.558,8.059l17.132,4.834l9.109,2.03l37.844,7.251l20.161,2.153l40.733,3.309l20.405,0.047l40.31,-0.983l18.89,-2.238l46.381,-5.551l25.67,68.238l25.652,68.172l43.804,29.763l17.184,11.271l12.741,7.791l6.934,4.083l29.284,16.724l16.344,8.703l33.699,17.601l17.895,8.875l36.46,17.686l18.571,8.592l37.44,17.02l18.47,7.971l36.685,15.514l17.428,6.916l34.195,13.169l15.528,5.476l29.926,10.071l12.751,3.583l15.146,4.58l8.969,3.017l3.65,1.332l6.614,2.66l2.142,1.076l3.399,1.917l0.165,0.602l-0.509,3.638l-1.437,3.999l-1.243,2.706l-2.71,5.845l-1.71,3.503l-3.849,7.431l-2.212,4.166l-9.871,17.928l-5.86,10.085l-12.222,20.833l-6.507,10.721l-13.159,21.414l-6.419,10.041l-12.634,19.583l-5.65,8.352l-10.711,15.361l-4.146,5.348l-3.86,4.896l-1.536,1.636l-2.83,2.909l-0.936,0.581l-5.042,2.58l-4.899,2.1l-3.125,1.333l-14.105,5.466l-9.017,3.306l-19.224,6.765l-10.711,3.614l-22.172,7.245l-11.352,3.524l-50.542,14.092l-33.789,7.805l-16.676,3.074l-33.21,5.668l-16.14,2.036l-31.946,3.536l-15.224,0.882l-29.953,1.321l-13.956,-0.236l-27.165,-0.994l-12.337,-1.319l-23.755,-3.285l-10.339,-2.519l-19.597,-5.591l-7.989,-3.683l-38.754,-16.322l-27.065,-9.871l-13.946,-4.445l-56.903,-16.127l-29.006,-5.715l-28.959,-5.296l-14.369,-1.993l-28.628,-3.585l-13.987,-1.097l-27.781,-1.745l-13.379,-0.126l-26.358,0.206l-12.562,0.854l-25.937,1.742l-125.472,43.804l-15.494,-0.331l-74.316,-0l0.146,0.2l-1409.63,0Zm1790.93,-421.39l1.006,1.428l2.018,1.621l1.664,1.079l8.103,5.098l6.066,3.41l13.38,7.376l8.135,4.218l17.129,8.823l9.49,4.667l16.061,7.921l6.553,3.187l12.291,5.901l4.925,2.242l9.055,4.077l3.587,1.353l6.441,2.278l2.473,0.538l4.423,0.657l1.731,-0.175l3.064,-0.806l1.197,-0.879l4.175,-4.994l2.356,-4.139l12.086,-16.585l10.832,-11.918l5.089,-4.408l11.328,-11.854l1.73,-2.93l0.203,-1.006l-0.124,-1.702l-0.884,-0.232l-4.568,-0.686l-4.656,-0.512l-3.068,-0.208l-13.869,-0.916l-9.022,-0.462l-19.11,-0.812l-10.646,-0.393l-21.796,-0.63l-11.088,-0.257l-22.03,-0.485l-10.221,-0.09l-19.757,-0.176l-8.145,-0.01l-7.776,0.093l-3.347,0.024l-6.178,0.178l-2.435,0.103l-4.311,0.251l-1.335,0.124l-2.091,0.359l-0.134,0.259Z" style="fill:#0e0e0e;"/><path d="M3880.41,4158.04l-1409.63,0c-17.94,-96.745 -27.317,-196.479 -27.317,-298.386c-0,-203.485 37.39,-398.306 105.669,-577.961l1475.33,0l7.016,-12.606l10.676,-17.236l21.84,-34.187l12.29,-17.591l25.596,-35.716l14.916,-19.494l18.707,-23.643l9.518,-11.22l3.369,-3.439l5.825,-5.216l1.514,-0.47l2.158,0.636l-0.279,2.479l-8.208,101.449l-1.955,67.314l0.797,32.889l2.726,64.919l3.116,30.864l3.439,30.546l2.115,14.715l4.552,29.113l2.707,13.879l11.534,58.849l25.758,10.35l23.558,8.059l17.132,4.834l9.109,2.03l37.844,7.251l20.161,2.153l40.733,3.309l20.405,0.047l40.31,-0.983l18.89,-2.238l46.381,-5.551l25.67,68.238l25.652,68.172l43.804,29.763l17.184,11.271l12.741,7.791l6.934,4.083l29.284,16.724l16.344,8.703l33.699,17.601l17.895,8.875l36.46,17.686l18.571,8.592l37.44,17.02l18.47,7.971l36.685,15.514l17.428,6.916l34.195,13.169l15.528,5.476l29.926,10.071l12.751,3.583l15.146,4.58l8.969,3.017l3.65,1.332l6.614,2.66l2.142,1.076l3.399,1.917l0.165,0.602l-0.509,3.638l-1.437,3.999l-1.243,2.706l-2.71,5.845l-1.71,3.503l-3.849,7.431l-2.212,4.166l-9.871,17.928l-5.86,10.085l-12.222,20.833l-6.507,10.721l-13.159,21.414l-6.419,10.041l-12.634,19.583l-5.65,8.352l-10.711,15.361l-4.146,5.348l-3.86,4.896l-1.536,1.636l-2.83,2.909l-0.936,0.581l-5.042,2.58l-4.899,2.1l-3.125,1.333l-14.105,5.466l-9.017,3.306l-19.224,6.765l-10.711,3.614l-22.172,7.245l-11.352,3.524l-50.542,14.092l-33.789,7.805l-16.676,3.074l-33.21,5.668l-16.14,2.036l-31.946,3.536l-15.224,0.882l-29.953,1.321l-13.956,-0.236l-27.165,-0.994l-12.337,-1.319l-23.755,-3.285l-10.339,-2.519l-19.597,-5.591l-7.989,-3.683l-38.754,-16.322l-27.065,-9.871l-13.946,-4.445l-56.903,-16.127l-29.006,-5.715l-28.959,-5.296l-14.369,-1.993l-28.628,-3.585l-13.987,-1.097l-27.781,-1.745l-13.379,-0.126l-26.358,0.206l-12.562,0.854l-25.937,1.742l-125.472,43.804l-15.494,-0.331l-61.816,-0c-0,-2.755 -0.892,-5.301 -2.402,-7.368c-2.273,-3.111 -5.95,-5.132 -10.098,-5.132l74.316,-0l0.267,0.003l13.237,0.283l123.342,-43.06c1.059,-0.37 2.163,-0.596 3.282,-0.671l25.932,-1.742l12.558,-0.854c0.249,-0.017 0.5,-0.026 0.75,-0.028l26.358,-0.205l0.214,-0l13.379,0.125c0.222,0.002 0.444,0.01 0.666,0.024l27.782,1.746l0.194,0.013l13.986,1.097c0.193,0.015 0.385,0.035 0.576,0.059l28.628,3.585l0.164,0.022l14.369,1.993c0.178,0.025 0.355,0.053 0.531,0.085l28.959,5.296l0.169,0.031l29.006,5.716c0.334,0.066 0.664,0.145 0.992,0.238l56.903,16.126c0.13,0.037 0.259,0.076 0.387,0.117l13.946,4.445c0.163,0.052 0.326,0.108 0.487,0.166l27.065,9.872c0.191,0.069 0.381,0.144 0.569,0.223l38.754,16.322c0.128,0.054 0.256,0.11 0.382,0.168l7.112,3.28l18.435,5.259l9.485,2.311l22.935,3.172l11.71,1.252l26.605,0.973l13.452,0.228l29.486,-1.301l14.811,-0.858l31.526,-3.489l15.775,-1.991l32.861,-5.608l16.319,-3.008l33.243,-7.679l50.097,-13.968l11.09,-3.443l22.026,-7.197l10.578,-3.569l19.071,-6.711l8.833,-3.239l13.804,-5.349l2.922,-1.246l4.497,-1.928l3.572,-1.828l1.514,-1.557l1.091,-1.162l3.495,-4.434l3.922,-5.057l10.479,-15.029l5.524,-8.166l12.546,-19.447l6.345,-9.925l13.083,-21.29l6.44,-10.611l12.163,-20.731l5.774,-9.937l9.755,-17.718l2.137,-4.027l3.752,-7.242l1.589,-3.257l2.172,-4.683l-1.781,-0.716l-3.309,-1.208l-8.635,-2.905l-14.844,-4.488l-12.633,-3.55c-0.203,-0.057 -0.405,-0.119 -0.605,-0.187l-29.926,-10.071l-0.17,-0.058l-15.528,-5.477c-0.112,-0.039 -0.224,-0.08 -0.335,-0.123l-34.195,-13.169l-0.119,-0.046l-17.428,-6.917c-0.087,-0.034 -0.172,-0.069 -0.258,-0.105l-36.685,-15.514l-0.085,-0.036l-18.469,-7.971l-0.22,-0.098l-37.44,-17.019l-0.076,-0.035l-18.571,-8.592l-0.207,-0.098l-36.459,-17.687l-0.098,-0.048l-17.896,-8.874l-0.233,-0.119l-33.699,-17.601l-0.088,-0.047l-16.344,-8.703c-0.109,-0.058 -0.217,-0.117 -0.324,-0.178l-29.283,-16.724l-0.144,-0.083l-6.935,-4.083l-0.179,-0.108l-12.741,-7.791c-0.112,-0.069 -0.224,-0.14 -0.334,-0.212l-17.184,-11.271l-0.169,-0.113l-43.804,-29.763c-2.134,-1.449 -3.766,-3.523 -4.675,-5.937l-25.652,-68.172l-22.218,-59.064l-36.663,4.388l-18.89,2.238c-0.387,0.046 -0.776,0.073 -1.165,0.083l-40.31,0.983c-0.112,0.003 -0.223,0.004 -0.334,0.004l-20.405,-0.047c-0.328,-0.001 -0.656,-0.015 -0.983,-0.041l-40.733,-3.309c-0.105,-0.009 -0.211,-0.018 -0.316,-0.03l-20.16,-2.153c-0.344,-0.036 -0.686,-0.087 -1.025,-0.152l-37.844,-7.251c-0.122,-0.024 -0.245,-0.049 -0.367,-0.076l-9.11,-2.031c-0.226,-0.05 -0.451,-0.107 -0.675,-0.17l-17.131,-4.834c-0.219,-0.061 -0.437,-0.129 -0.652,-0.203l-23.558,-8.059c-0.206,-0.071 -0.411,-0.147 -0.614,-0.228l-25.759,-10.35c-3.929,-1.578 -6.792,-5.039 -7.606,-9.194l-11.536,-58.861l-2.707,-13.88c-0.03,-0.153 -0.057,-0.307 -0.081,-0.461l-4.552,-29.113l-0.023,-0.153l-2.115,-14.716c-0.018,-0.126 -0.034,-0.252 -0.048,-0.379l-3.44,-30.546l-0.015,-0.143l-3.116,-30.864c-0.024,-0.243 -0.042,-0.487 -0.052,-0.731l-2.726,-64.918l-0.008,-0.222l-0.796,-32.889c-0.006,-0.222 -0.005,-0.444 0.001,-0.666l1.956,-67.314c0.006,-0.215 0.018,-0.431 0.035,-0.645l5.847,-72.274l-16.126,20.383l-14.736,19.258l-25.438,35.495l-12.099,17.318l-21.654,33.897l-10.477,16.913l-6.873,12.351c-2.206,3.964 -6.386,6.421 -10.923,6.421l-1466.68,0c-65.824,176.037 -101.815,366.579 -101.815,565.461c-0,97.544 8.657,193.082 25.246,285.886l1399.2,0l-0,12.3l-0.146,-0l0.146,0.2Zm6.298,-0.2l-0.091,-0l3.745,-7.368l-3.654,7.368Zm374.839,-409.058c0.189,0.073 0.294,0.109 0.294,0.109l-2.116,-24.82l2.092,-0.359c0.317,-0.054 0.636,-0.097 0.957,-0.126l1.334,-0.125c0.145,-0.013 0.289,-0.024 0.434,-0.032l4.311,-0.251l0.195,-0.01l2.435,-0.103l0.171,-0.006l6.178,-0.178l0.271,-0.005l3.316,-0.023l7.745,-0.093l0.164,-0.001l8.146,0.01l0.097,0l19.756,0.176l10.22,0.09l0.165,0.003l22.044,0.485l11.16,0.259l21.797,0.63l0.1,0.003l10.715,0.397l19.109,0.811l0.109,0.006l9.023,0.462l0.184,0.011l13.89,0.917l3.068,0.208c0.174,0.012 0.348,0.027 0.522,0.046l4.656,0.512c0.163,0.018 0.326,0.039 0.488,0.064l4.567,0.685c0.447,0.067 0.89,0.158 1.327,0.273l0.885,0.233c5.166,1.36 8.897,5.852 9.285,11.18l0.124,1.702c0.083,1.134 0.011,2.273 -0.215,3.387l-0.203,1.006c-0.277,1.366 -0.78,2.676 -1.488,3.876l-1.729,2.929c-0.487,0.824 -1.066,1.59 -1.728,2.282l-11.328,11.854c-0.272,0.285 -0.557,0.556 -0.854,0.813l-4.524,3.918l-9.876,10.866l-11.274,15.472l-2.009,3.529c-0.369,0.648 -0.795,1.262 -1.273,1.834l-4.175,4.994c-0.645,0.771 -1.38,1.461 -2.19,2.056l-1.196,0.879c-1.268,0.931 -2.699,1.615 -4.221,2.015l-3.063,0.806c-0.632,0.166 -1.275,0.282 -1.925,0.348l-1.731,0.175c-1.03,0.104 -2.069,0.079 -3.094,-0.073l-4.423,-0.657c-0.273,-0.041 -0.545,-0.091 -0.815,-0.149l-2.473,-0.537c-0.514,-0.112 -1.021,-0.256 -1.517,-0.432l-6.441,-2.278l-0.239,-0.088l-3.587,-1.352c-0.244,-0.092 -0.486,-0.192 -0.723,-0.299l-9.101,-4.098l-4.925,-2.242l-0.232,-0.108l-12.348,-5.929l-6.615,-3.217l-16.055,-7.918l-9.484,-4.665l-0.206,-0.104l-17.16,-8.838l-8.135,-4.218c-0.094,-0.049 -0.188,-0.099 -0.281,-0.15l-13.379,-7.376l-0.091,-0.05l-6.066,-3.411c-0.18,-0.101 -0.357,-0.206 -0.532,-0.316l-8.103,-5.098l-1.806,-1.17c-0.356,-0.23 -0.699,-0.479 -1.03,-0.745l-2.018,-1.621c-0.91,-0.731 -1.713,-1.586 -2.386,-2.54l-1.006,-1.427c2.341,3.32 6.151,5.295 10.215,5.295c1.484,0 2.93,-0.263 4.28,-0.756l-0.415,0.039l-0.137,0.023c1.943,-0.549 4.335,-1.747 6.271,-4.337l2.792,1.757l6.066,3.41l13.38,7.376l8.135,4.218l17.129,8.823l9.49,4.667l16.061,7.921l6.553,3.187l12.291,5.901l4.925,2.242l9.055,4.077l3.587,1.353l6.441,2.278l2.473,0.538l4.423,0.657l1.731,-0.175l3.064,-0.806l1.197,-0.879l4.175,-4.994l2.356,-4.139l12.086,-16.585l10.832,-11.918l5.089,-4.408l11.328,-11.854l1.73,-2.93l0.203,-1.006l-0.124,-1.702l-0.884,-0.232l-4.568,-0.686l-4.656,-0.512l-3.068,-0.208l-13.869,-0.916l-9.022,-0.462l-19.11,-0.812l-10.646,-0.393l-21.796,-0.63l-11.088,-0.257l-22.03,-0.485l-10.221,-0.09l-19.757,-0.176l-8.145,-0.01l-7.776,0.093l-3.347,0.024l-6.178,0.178l-2.435,0.103l-4.311,0.251l-1.335,0.124l-2.091,0.359l-0.134,0.259l1.006,1.428l2.018,1.621l1.664,1.079l4.35,2.737l-9.038,5.635l-0.16,-0.368Zm-0,0c-2.26,-0.865 -16.636,-6.888 -10.809,-18.134c1.522,-2.937 9.572,15.295 10.809,18.134Z" style="fill:#0e0e0e;"/><path id="Head---Top" serif:id="Head - Top" d="M3828.79,2105.53l21.397,-6.024l46.014,-8.995l96.873,-15.915l57.777,-6.227l59.853,-5.536l32.867,-2.421l67.811,-4.152l37.711,-1.73l77.843,-3.46l43.247,-1.384l88.915,-2.421l49.474,-0.692l101.715,-1.73l56.394,-0.692l115.9,-0.692l64.005,-0.346l131.816,-0.692l72.308,-0l148.768,-0.346l27.482,0l310.364,-176.442l57.628,-119.215l48.917,-96.081l32.491,-58.387l17.389,-28.072l35.573,-55.683l20.016,-28.652l41.69,-58.171l24.295,-31.751l30.468,-38.51l15.503,-18.275l5.488,-5.601l9.487,-8.495l2.466,-0.765l3.515,1.034l-0.454,4.039l-13.369,165.235l-3.184,109.639l1.297,53.568l4.441,105.736l5.075,50.27l5.602,49.752l3.444,23.968l7.414,47.418l4.409,22.605l18.785,95.852l41.955,16.856l38.37,13.127l27.903,7.873l14.838,3.307l61.638,11.81l32.837,3.506l66.344,5.389l33.235,0.077l65.655,-1.601l30.767,-3.645l75.543,-9.041l41.81,111.144l41.781,111.034l71.347,48.477l27.988,18.357l20.751,12.691l11.296,6.651l47.696,27.238l26.62,14.176l54.886,28.667l29.149,14.454l59.383,28.807l30.248,13.995l60.98,27.721l30.083,12.983l59.751,25.268l28.386,11.265l55.696,21.449l25.292,8.92l48.741,16.403l20.769,5.835l24.669,7.46l14.609,4.913l5.944,2.17l10.772,4.333l3.489,1.752l5.537,3.123l0.268,0.98l-0.829,5.926l-2.34,6.513l-2.025,4.407l-4.414,9.519l-2.784,5.707l-6.271,12.102l-3.602,6.787l-16.077,29.2l-9.544,16.426l-19.908,33.933l-10.599,17.461l-21.432,34.878l-10.455,16.354l-20.577,31.896l-9.203,13.604l-17.445,25.019l-6.754,8.71l-6.286,7.974l-2.502,2.666l-4.61,4.738l-1.524,0.945l-8.212,4.202l-7.979,3.422l-5.09,2.17l-22.974,8.903l-14.686,5.385l-31.311,11.018l-17.446,5.887l-36.113,11.8l-18.49,5.739l-82.321,22.954l-55.033,12.712l-27.161,5.006l-54.092,9.232l-26.287,3.317l-52.033,5.758l-24.796,1.437l-48.786,2.152l-22.731,-0.384l-44.246,-1.619l-20.093,-2.148l-38.692,-5.351l-16.839,-4.103l-31.919,-9.106l-13.012,-6l-63.121,-26.584l-44.082,-16.078l-22.714,-7.239l-92.681,-26.266l-47.244,-9.31l-47.168,-8.625l-23.403,-3.246l-46.628,-5.84l-22.781,-1.786l-45.25,-2.843l-21.789,-0.204l-42.931,0.334l-20.461,1.391l-42.245,2.838l-204.364,71.346l-25.235,-0.539l-2884.12,-0l11.731,-20.412l55.702,-102.408l30.791,-53.972l2.785,-3.213c230.045,-380.808 611.55,-660.043 1060.79,-753.977Zm2222.56,247.966l1.64,2.326l3.287,2.641l2.71,1.757l13.197,8.303l9.881,5.555l21.792,12.013l13.25,6.87l27.899,14.37l15.457,7.602l26.16,12.902l10.672,5.191l20.02,9.611l8.022,3.651l14.748,6.641l5.841,2.203l10.491,3.711l4.029,0.875l7.204,1.071l2.819,-0.285l4.991,-1.312l1.948,-1.432l6.801,-8.134l3.837,-6.741l19.685,-27.014l17.643,-19.412l8.288,-7.178l18.452,-19.309l2.817,-4.771l0.332,-1.639l-0.202,-2.771l-1.442,-0.38l-7.439,-1.115l-7.584,-0.835l-4.997,-0.338l-22.589,-1.492l-14.695,-0.753l-31.124,-1.323l-17.34,-0.64l-35.502,-1.027l-18.058,-0.417l-35.883,-0.791l-16.647,-0.147l-32.178,-0.287l-13.268,-0.015l-12.664,0.152l-5.451,0.039l-10.063,0.289l-3.967,0.168l-7.021,0.408l-2.174,0.202l-3.406,0.585l-0.219,0.422Z" style="fill:#0e0e0e;"/><path d="M3828.79,2105.53l21.397,-6.024l46.014,-8.995l96.873,-15.915l57.777,-6.227l59.853,-5.536l32.867,-2.421l67.811,-4.152l37.711,-1.73l77.843,-3.46l43.247,-1.384l88.915,-2.421l49.474,-0.692l101.715,-1.73l56.394,-0.692l115.9,-0.692l64.005,-0.346l131.816,-0.692l72.308,-0l148.768,-0.346l27.482,0l310.364,-176.442l57.628,-119.215l48.917,-96.081l32.491,-58.387l17.389,-28.072l35.573,-55.683l20.016,-28.652l41.69,-58.171l24.295,-31.751l30.468,-38.51l15.503,-18.275l5.488,-5.601l9.487,-8.495l2.466,-0.765l3.515,1.034l-0.454,4.039l-13.369,165.235l-3.184,109.639l1.297,53.568l4.441,105.736l5.075,50.27l5.602,49.752l3.444,23.968l7.414,47.418l4.409,22.605l18.785,95.852l41.955,16.856l38.37,13.127l27.903,7.873l14.838,3.307l61.638,11.81l32.837,3.506l66.344,5.389l33.235,0.077l65.655,-1.601l30.767,-3.645l75.543,-9.041l41.81,111.144l41.781,111.034l71.347,48.477l27.988,18.357l20.751,12.691l11.296,6.651l47.696,27.238l26.62,14.176l54.886,28.667l29.149,14.454l59.383,28.807l30.248,13.995l60.98,27.721l30.083,12.983l59.751,25.268l28.386,11.265l55.696,21.449l25.292,8.92l48.741,16.403l20.769,5.835l24.669,7.46l14.609,4.913l5.944,2.17l10.772,4.333l3.489,1.752l5.537,3.123l0.268,0.98l-0.829,5.926l-2.34,6.513l-2.025,4.407l-4.414,9.519l-2.784,5.707l-6.271,12.102l-3.602,6.787l-16.077,29.2l-9.544,16.426l-19.908,33.933l-10.599,17.461l-21.432,34.878l-10.455,16.354l-20.577,31.896l-9.203,13.604l-17.445,25.019l-6.754,8.71l-6.286,7.974l-2.502,2.666l-4.61,4.738l-1.524,0.945l-8.212,4.202l-7.979,3.422l-5.09,2.17l-22.974,8.903l-14.686,5.385l-31.311,11.018l-17.446,5.887l-36.113,11.8l-18.49,5.739l-82.321,22.954l-55.033,12.712l-27.161,5.006l-54.092,9.232l-26.287,3.317l-52.033,5.758l-24.796,1.437l-48.786,2.152l-22.731,-0.384l-44.246,-1.619l-20.093,-2.148l-38.692,-5.351l-16.839,-4.103l-31.919,-9.106l-13.012,-6l-63.121,-26.584l-44.082,-16.078l-22.714,-7.239l-92.681,-26.266l-47.244,-9.31l-47.168,-8.625l-23.403,-3.246l-46.628,-5.84l-22.781,-1.786l-45.25,-2.843l-21.789,-0.204l-42.931,0.334l-20.461,1.391l-42.245,2.838l-204.364,71.346l-25.235,-0.539l-2884.12,-0l11.731,-20.412l55.702,-102.408l30.791,-53.972l2.785,-3.213c230.045,-380.808 611.55,-660.043 1060.79,-753.977Zm3248.44,863.443l3.418,-3.512l2.056,-2.191l5.923,-7.513l6.529,-8.42l17.213,-24.686l9.077,-13.418l20.489,-31.76l10.382,-16.238l21.356,-34.754l10.532,-17.352l19.847,-33.83l9.459,-16.278l15.961,-28.99l3.528,-6.647l6.173,-11.914l2.663,-5.46l4.354,-9.387l1.792,-3.9l0.704,-1.962l-0.392,-0.197l-10.104,-4.064l-5.604,-2.046l-14.275,-4.801l-24.366,-7.368l-20.65,-5.802c-0.204,-0.057 -0.406,-0.12 -0.606,-0.187l-48.741,-16.403l-0.171,-0.059l-25.291,-8.92c-0.112,-0.039 -0.224,-0.08 -0.335,-0.123l-55.696,-21.449l-0.119,-0.046l-28.386,-11.266c-0.086,-0.034 -0.172,-0.069 -0.258,-0.105l-59.751,-25.268l-0.084,-0.036l-30.083,-12.983l-0.22,-0.098l-60.98,-27.721l-0.076,-0.034l-30.248,-13.995l-0.207,-0.098l-59.383,-28.807l-0.098,-0.048l-29.148,-14.454l-0.234,-0.119l-54.886,-28.667l-0.089,-0.047l-26.62,-14.176c-0.108,-0.058 -0.216,-0.117 -0.323,-0.179l-47.696,-27.238l-0.143,-0.083l-11.296,-6.65l-0.179,-0.108l-20.752,-12.691c-0.112,-0.068 -0.224,-0.139 -0.334,-0.211l-27.988,-18.357l-0.169,-0.114l-71.347,-48.477c-2.133,-1.449 -3.766,-3.523 -4.674,-5.937l-41.781,-111.035l-38.359,-101.968l-65.825,7.877l-30.767,3.645c-0.387,0.046 -0.776,0.073 -1.165,0.083l-65.656,1.601c-0.111,0.003 -0.222,0.004 -0.333,0.004l-33.235,-0.077c-0.328,-0 -0.656,-0.014 -0.983,-0.041l-66.344,-5.389c-0.105,-0.008 -0.211,-0.018 -0.316,-0.029l-32.837,-3.507c-0.343,-0.037 -0.685,-0.088 -1.024,-0.153l-61.638,-11.809c-0.123,-0.024 -0.245,-0.049 -0.367,-0.076l-14.838,-3.307c-0.227,-0.051 -0.452,-0.108 -0.675,-0.171l-27.903,-7.873c-0.219,-0.061 -0.437,-0.129 -0.652,-0.203l-38.37,-13.127c-0.207,-0.071 -0.411,-0.147 -0.614,-0.228l-41.955,-16.856c-3.929,-1.579 -6.792,-5.04 -7.606,-9.195l-18.788,-95.863l-4.409,-22.606c-0.029,-0.153 -0.056,-0.307 -0.081,-0.461l-7.414,-47.418l-0.023,-0.153l-3.444,-23.968c-0.018,-0.126 -0.035,-0.253 -0.049,-0.379l-5.602,-49.752l-0.015,-0.143l-5.075,-50.27c-0.025,-0.243 -0.042,-0.487 -0.052,-0.731l-4.441,-105.737l-0.007,-0.222l-1.298,-53.568c-0.005,-0.222 -0.004,-0.444 0.002,-0.665l3.184,-109.639c0.007,-0.215 0.018,-0.43 0.036,-0.645l11.523,-142.421l-12.029,14.181l-30.273,38.262l-24.115,31.515l-41.532,57.952l-19.825,28.378l-35.387,55.392l-17.189,27.75l-32.238,57.93l-48.754,95.76l-57.57,119.099c-1.103,2.282 -2.874,4.175 -5.077,5.427l-310.365,176.442c-1.882,1.07 -4.011,1.633 -6.177,1.633l-27.468,0l-148.753,0.346l-0.029,-0l-72.276,-0l-131.781,0.692l-64,0.346l-115.858,0.691l-56.325,0.691l-101.686,1.73l-0.037,0l-49.392,0.691l-88.802,2.419l-43.139,1.38l-77.757,3.456l-37.607,1.725l-67.637,4.141l-32.674,2.408l-59.643,5.516l-57.338,6.18l-96.344,15.828l-45.329,8.862l-20.908,5.885c-0.273,0.077 -0.55,0.145 -0.828,0.203c-445.792,93.214 -824.364,370.318 -1052.64,748.205c-0.368,0.609 -0.788,1.186 -1.254,1.724l-1.981,2.286l-30.121,52.796l-55.641,102.296c-0.047,0.086 -0.094,0.172 -0.143,0.256l-0.968,1.684l2862.52,-0l0.267,0.003l22.979,0.491l202.233,-70.602c1.059,-0.37 2.163,-0.595 3.282,-0.671l42.24,-2.837l20.456,-1.391c0.25,-0.017 0.5,-0.026 0.75,-0.028l42.931,-0.335l0.215,0l21.79,0.205c0.222,0.002 0.444,0.01 0.666,0.024l45.25,2.842l0.194,0.014l22.78,1.786c0.193,0.015 0.385,0.035 0.576,0.059l46.628,5.84l0.164,0.021l23.404,3.247c0.177,0.025 0.354,0.053 0.531,0.085l47.167,8.625l0.169,0.032l47.244,9.31c0.333,0.065 0.664,0.145 0.991,0.237l92.682,26.266c0.13,0.037 0.259,0.076 0.387,0.117l22.714,7.24c0.164,0.052 0.326,0.107 0.487,0.166l44.083,16.078c0.191,0.07 0.38,0.144 0.568,0.223l63.121,26.584c0.129,0.054 0.256,0.11 0.382,0.169l12.136,5.595l30.757,8.775l15.985,3.895l37.871,5.237l19.467,2.081l43.686,1.599l22.227,0.376l48.318,-2.132l24.383,-1.413l51.613,-5.712l25.922,-3.271l53.742,-9.172l26.806,-4.94l54.486,-12.586l81.876,-22.83l18.228,-5.658l35.967,-11.752l17.313,-5.842l31.158,-10.964l14.502,-5.318l22.673,-8.786l4.886,-2.083l7.578,-3.25l7.206,-3.688Zm-1025.88,-602.977l8.384,-5.307l1.192,0.751c-1.832,2.151 -3.98,3.196 -5.755,3.698l1.242,-0.213c-1.568,0.695 -3.287,1.071 -5.063,1.071Z" style="fill:#0e0e0e;"/></g></g></g></svg>