<?xml version="1.0" encoding="UTF-8" standalone="no"?><!DOCTYPE svg PUBLIC "-//W3C//DTD SVG 1.1//EN" "http://www.w3.org/Graphics/SVG/1.1/DTD/svg11.dtd"><svg width="100%" height="100%" viewBox="2810 329 2546 3799" version="1.1" xmlns="http://www.w3.org/2000/svg" xmlns:xlink="http://www.w3.org/1999/xlink" xml:space="preserve" xmlns:serif="http://www.serif.com/" style="fill-rule:evenodd;clip-rule:evenodd;stroke-linejoin:round;stroke-miterlimit:2;"><g><g><path d="M4096.95,359.142l19.031,45.826l21.423,51.493l2.948,7.207l23.388,56.374l42.78,105.672l24.764,57.684l10.744,26.074l9.27,22.012l22.766,56.473l44.68,107.211l42.845,104.035l9.794,25.91c0.033,0.083 0.069,0.164 0.11,0.243c0.646,1.264 2.205,1.779 3.453,1.14c0.081,-0.042 0.161,-0.088 0.237,-0.138l86.674,-55.85l36.195,-23.552l15.003,-9.63l106.098,-68.527l2.621,-1.408l109.144,-70.754l16.247,-10.122l32.495,-20.341l32.658,-19.916c0.265,-0.172 0.574,-0.264 0.89,-0.264c0.899,0 1.638,0.74 1.638,1.638c0,0.226 -0.046,0.45 -0.137,0.657l-12.709,31.216l-48.316,112.093l-22.275,52.083l-7.403,17.721l-13.037,29.186l-26.074,61.222l-44.057,102.789l-19.982,43.96c-0.178,0.394 -0.27,0.822 -0.27,1.255c-0,1.576 1.222,2.905 2.793,3.036l49.691,4.291l50.871,4.749l106.95,11.105l47.759,4.979l64.988,6.551l48.807,4.684l55.195,5.372l44.451,4.521l62.171,6.518l55.129,4.914l52.771,5.339c15.221,0.677 29.252,1.933 42.092,3.767c16.073,2.293 32.211,4.084 48.414,5.372c1.485,0.131 2.653,0.557 3.505,1.278c0.226,0.198 0.355,0.485 0.355,0.786c-0,0.3 -0.129,0.587 -0.355,0.786l-141.966,117.497l-6.715,5.241l-33.478,27.647l-17.524,14.609l-43.173,35.344l-11.858,9.27l-164.208,136.038l-13.823,11.89l-40.258,33.805l-23.65,19.425l-28.498,23.552l-15.723,13.856c-0.053,0.047 -0.103,0.097 -0.151,0.149c-0.877,0.951 -0.828,2.445 0.11,3.31c0.055,0.051 0.112,0.099 0.172,0.144l12.087,9.204l14.478,10.548l43.632,33.117l28.76,21.783l23.028,17.131l46.252,35.181l62.827,47.693l7.828,6.158l47.792,35.345l13.823,10.514l36.982,28.171c20.997,16.411 44.09,30.889 63.908,47.857c8.298,7.119 16.498,14.194 24.6,21.226c0.169,0.138 0.299,0.315 0.38,0.516c0.268,0.667 -0.074,1.442 -0.757,1.717c-0.203,0.081 -0.422,0.113 -0.638,0.093l-29.645,-2.588l-57.749,-5.568l-49.168,-5.078l-57.324,-4.684l-51.689,-4.684l-55.49,-5.012l-53.622,-4.815l-52.214,-4.324l-53.655,-4.127l-67.871,-5.765c-0.083,-0.007 -0.167,-0.011 -0.25,-0.011c-1.581,-0 -2.883,1.301 -2.883,2.882c0,0.236 0.029,0.471 0.086,0.699l2.424,9.729l10.876,39.046l2.063,9.564l13.398,50.838l14.543,53.099l27.614,106.294l15.363,56.734l12.153,49.266l15.985,57.717l7.173,26.434l6.29,25.026l12.316,46.22l19.032,68.493l26.827,98.433l11.825,43.632c0.041,0.152 0.061,0.308 0.061,0.465c0,0.988 -0.813,1.801 -1.802,1.801c-0.333,0 -0.661,-0.093 -0.945,-0.268l-16.575,-10.646l-53.982,-33.706l-3.407,-2.195l-44.188,-27.155l-112.322,-69.28l-18.278,-11.268l-37.244,-22.34l-102.233,-63.678l-40.258,-24.175l-12.218,-7.435l-23.683,-13.561c-2.031,-9.915 -4.105,-20.157 -6.224,-30.726c-5.896,-29.579 -7.337,-60.403 -8.746,-90.44l5.405,31.511c0.065,0.37 0.164,0.722 0.295,1.048c1.9,4.63 5.066,8.375 9.499,11.236c30.77,19.763 61.823,37.932 93.16,54.507c0.851,0.458 3.69,1.692 8.516,3.701c1.155,0.501 2.263,1.115 3.309,1.834c24.611,17.296 40.312,28.051 47.103,32.266c26.642,16.552 50.129,30.507 70.46,41.862c11.879,6.617 23.464,13.933 34.754,21.947c23.356,16.575 49.823,34.951 77.076,49.069l19.818,11.596l2.784,0.197c0.023,0.001 0.046,0.002 0.07,0.002c0.665,-0 1.212,-0.548 1.212,-1.212c-0,-0.101 -0.013,-0.2 -0.037,-0.297l-15.723,-63.908l-189.005,-714.975c3.319,-6.835 8.626,-12.655 15.92,-17.459c20.199,-13.321 36.37,-26.904 48.512,-40.749c6.202,-7.054 14.544,-14.02 25.026,-20.899c0.98,-0.653 1.891,-1.399 2.719,-2.227c18.867,-18.737 40.301,-36.065 64.301,-51.985c6.944,-4.586 14.511,-11.464 19.359,-16.804c0.89,-0.977 1.916,-1.826 3.046,-2.522c5.569,-3.494 10.351,-7.84 14.347,-13.037c0.846,-1.105 1.876,-2.058 3.047,-2.817c4.826,-3.254 8.866,-6.977 12.119,-11.17c6.683,-3.996 12.47,-9.052 17.361,-15.166c1.398,-1.747 3.287,-3.276 5.667,-4.586c5.787,-3.188 10.854,-7.25 15.199,-12.186c0.566,-0.653 1.192,-1.235 1.867,-1.736l34.722,-26.467c23.912,-17.295 40.411,-30.289 49.495,-38.98c27.734,-26.555 49.058,-45.619 63.974,-57.193c12.054,-9.346 29.633,-22.602 52.737,-39.766c4.128,-3.079 6.89,-5.285 8.288,-6.617c20.025,-19.37 41.175,-37.506 63.449,-54.408c3.297,-2.512 10.984,-8.2 23.061,-17.066c6.944,-5.089 16.312,-12.906 28.105,-23.454c4.782,-4.258 10.831,-9.194 18.147,-14.806c0.715,-0.564 1.335,-1.238 1.834,-1.998c1.376,-2.184 3.09,-3.92 5.143,-5.208c0.689,-0.447 1.106,-1.214 1.106,-2.035c0,-1.278 -1.01,-2.348 -2.285,-2.42l-8.976,-0.426l-7.37,-0.721c-38.03,-3.668 -78.255,-8.942 -113.927,-12.283c-58.437,-5.438 -145.242,-13.955 -260.414,-25.55c-87.241,-8.801 -146.465,-14.817 -177.671,-18.049c-24.894,-2.588 -53.196,-7.01 -78.68,-9.401c-48.109,-4.521 -97.265,-9.096 -147.47,-13.725l-3.014,-4.029c-0.304,-0.413 -0.546,-0.865 -0.72,-1.343c-11.137,-30.835 -22.427,-58.023 -33.87,-81.564c-14.806,-30.463 -22.668,-53.458 -36.851,-89.097c-8.615,-21.751 -19.294,-43.665 -26.271,-61.779c-4.542,-11.836 -11.192,-27.221 -19.949,-46.154c-9.172,-19.807 -18.442,-42.452 -27.81,-67.937c-0.215,-0.561 -0.551,-1.064 -0.983,-1.474c-0.808,-0.699 -1.299,-1.299 -1.474,-1.801c-12.491,-34.962 -21.466,-59.191 -26.925,-72.687c-6.836,-16.88 -12.153,-29.109 -15.953,-36.687c-19.031,-37.801 -34.329,-72.392 -48.643,-116.515c-2.249,-6.922 -5.776,-16.968 -10.581,-30.136c-2.161,-5.896 -5.066,-12.338 -8.713,-19.326c-4.717,-9.041 -7.818,-15.319 -9.303,-18.835c-12.731,-30.027 -24.534,-59.562 -35.409,-88.606c-0.009,-0.022 -0.017,-0.044 -0.025,-0.066c-1.079,-2.781 -4.035,-4.268 -6.548,-3.293c-0.015,0.006 -0.029,0.012 -0.044,0.018c-0.852,0.349 -1.037,1.43 -0.557,3.243l-275.023,661.221c-5.525,1.441 -12.196,3.385 -20.014,5.831c-5.831,1.812 -10.744,5.001 -14.741,9.565c-19.195,21.903 -36.501,44.33 -51.919,67.281c-43.522,2.883 -86.215,6.606 -128.077,11.17c-75.668,8.211 -113.611,12.328 -113.829,12.35c-101.119,10.088 -176.197,18.409 -271.682,27.777c-73.811,7.272 -137.424,14.052 -190.839,20.342c-11.683,1.375 -20.975,2.129 -27.876,2.26l-6.944,0.524c-0.266,0.021 -0.529,0.075 -0.782,0.161c-1.668,0.565 -2.581,2.388 -2.022,4.039c0.085,0.251 0.202,0.491 0.347,0.713c0.415,0.656 1.715,1.922 3.898,3.8c21.358,18.278 43.315,35.792 65.874,52.542c9.794,7.271 17.655,14.773 26.008,21.193c19.621,15.101 39.57,35.868 55.653,48.086c40.258,30.628 60.862,46.842 94.437,77.207c13.605,12.295 31.839,27.254 54.703,44.877c40.782,31.479 76.29,62.04 113.895,95.386c9.564,8.495 24.927,20.801 46.088,36.917c16.007,12.229 32.549,26.423 49.626,42.583c5.852,5.547 12.469,10.34 19.85,14.38c-2.271,3.32 -3.581,7.513 -3.93,12.579c-1.081,16.28 -5.635,30.365 -4.095,46.94c0.328,3.472 2.479,7.84 6.453,13.102c10.842,14.413 21.062,34.69 27.253,41.896c8.583,10.002 15.538,19.392 20.866,28.17c-14.653,57.674 -29.601,114.67 -44.843,170.989c-4.87,17.972 -10.111,38.402 -15.723,61.287c-13.07,53.393 -29.154,102.528 -41.208,152.875c-7.075,29.633 -15.942,62.619 -26.598,98.957c-2.883,9.849 -6.377,23.803 -10.482,41.863c-7.338,32.232 -21.98,77.731 -27.843,104.296c-3.363,15.068 -9.03,38.118 -17.001,69.149c-0.054,0.195 -0.06,0.4 -0.015,0.596c0.15,0.667 0.836,1.088 1.519,0.934c0.193,-0.044 0.373,-0.13 0.527,-0.252l3.767,-3.112c4.848,-1.114 9.445,-4.051 13.79,-8.812c1.442,-1.594 3.931,-2.73 7.469,-3.406c1.033,-0.173 2,-0.589 2.817,-1.212c5.285,-3.997 15.952,-10.046 32.003,-18.148c4.149,-2.096 15.101,-8.898 32.855,-20.407c10.449,-6.78 24.01,-18.016 36.916,-25.091c12.71,-7.01 23.421,-15.789 34.427,-21.095c2.206,-1.049 15.8,-8.593 40.782,-22.635c11.771,-6.639 25.747,-15.952 41.928,-27.941c13.561,-10.067 26.544,-18.486 38.948,-25.256c27.406,-14.936 43.708,-23.792 48.905,-26.565c7.337,-3.887 18.944,-11.629 34.82,-23.224c0.328,10.438 -0.317,19.916 -1.932,28.432c-3.626,18.781 -7.174,37.605 -10.646,56.472l-72.654,44.254l-111.143,68.822l-28.301,17.393l-20.44,12.71l-109.472,67.183l-47.497,29.481l-2.555,1.31l-58.307,36.425l-14.511,8.746c-0.189,0.121 -0.408,0.184 -0.632,0.184c-0.647,0 -1.179,-0.532 -1.179,-1.179c-0,-0.106 0.014,-0.212 0.042,-0.315l11.891,-44.581l9.925,-35.017l18.999,-71.704l13.201,-49.724l15.494,-56.931l3.242,-12.185l0.787,-3.898l9.237,-36.72l14.413,-50.216l14.806,-58.208l13.757,-53c1.835,-4.608 2.49,-8.058 1.966,-10.351l11.432,-38.882l14.478,-58.044l12.546,-44.975l30.398,-116.318c0.042,-0.164 0.069,-0.332 0.081,-0.501c0.115,-1.559 -1.059,-2.935 -2.6,-3.048c-0.176,-0.013 -0.353,-0.009 -0.528,0.011l-27.941,3.145l-41.404,2.162l-59.944,5.143l-44.385,3.898l-58.11,4.815l-49.037,4.356l-55.653,5.012l-48.381,4.226l-3.046,0.098l-56.243,5.372l-50.543,4.52l-31.905,2.752c-0.038,0.003 -0.076,0.005 -0.114,0.005c-0.683,0 -1.245,-0.562 -1.245,-1.245c-0,-0.351 0.149,-0.686 0.409,-0.922c13.452,-12.032 27.592,-23.519 42.42,-34.46c15.635,-11.574 30.463,-22.711 44.483,-33.411l27.679,-21.456l24.797,-18.802l49.429,-37.146c0.218,0.153 0.972,-0.415 2.26,-1.703l108.293,-81.957l30.431,-22.176l24.436,-18.212l47.333,-35.967l21.849,-17.23c0.089,-0.07 0.174,-0.144 0.256,-0.222c1.292,-1.249 1.318,-3.35 0.058,-4.656c-0.079,-0.081 -0.162,-0.159 -0.249,-0.232l-40.716,-34.46l-30.038,-24.567l-32.822,-27.188l-19.031,-16.28l-107.507,-88.18c-1.135,-1.572 -2.489,-2.653 -4.062,-3.243l-51.231,-43.075l-12.676,-10.187l-39.668,-31.938l-25.092,-20.865l-26.893,-22.668l-40.88,-33.248l-10.679,-8.451l-100.66,-82.939c-0.424,-0.348 -0.67,-0.869 -0.67,-1.418c-0,-0.938 0.719,-1.732 1.653,-1.825l98.269,-9.041l51.853,-4.979l55.359,-5.241l51.624,-5.306l52.967,-5.503l52.05,-5.536l61.811,-5.405l46.122,-5.143l53.917,-5.208l105.836,-10.58l56.111,-5.176l48.415,-4.258c1.244,-0.11 2.21,-1.165 2.21,-2.415c-0,-0.342 -0.072,-0.68 -0.212,-0.992l-17.82,-39.602l-48.152,-110.816l-23.06,-52.967l-13.037,-31.937l-9.402,-21.587l-22.831,-52.017l-22.209,-51.231c-0.939,-2.686 -1.768,-4.313 -2.489,-4.881l-21.783,-51.493l-16.444,-36.785c-0.118,-0.259 -0.17,-0.542 -0.151,-0.825c0.063,-0.95 0.911,-1.679 1.88,-1.615c0.28,0.019 0.552,0.103 0.793,0.245l35.148,21.324l107.146,68.56c1.594,1.616 3.68,3.024 6.257,4.225l1.605,0.95l44.221,29.35l109.472,69.607l12.087,7.993l38.194,24.436l86.51,56.047c0.27,0.173 0.584,0.266 0.905,0.266c0.682,-0 1.299,-0.419 1.552,-1.053l10.416,-26.401l44.877,-108.653l43.173,-104.985l23.191,-55.129l5.536,-13.528l16.542,-40.127l18.835,-47.562l47.399,-112.977l21.357,-52.869l4.487,-11.399l16.248,-37.9l24.305,-59.027l11.17,-26.008l12.906,29.677Z" style="fill:#0a243f;fill-rule:nonzero;"/><path d="M3983.58,1198.23c3.177,4.291 6.42,7.272 12.12,5.176c18.715,-6.792 36.425,-13.911 53.131,-21.358c4.169,-1.871 8.836,-2.342 13.299,-1.343l22.831,5.11l103.51,22.373c9.478,3.385 16.793,10.613 21.947,21.685c9.019,19.37 17.776,38.478 26.271,57.323c0.899,2.035 3.105,3.192 5.306,2.785c11.443,-2.075 22.984,-4.608 34.624,-7.6c2.839,-0.72 7.217,0.077 13.135,2.392c19.916,7.796 39.745,15.941 59.486,24.436c14.26,6.507 28.553,13.135 42.878,19.883c6.202,2.926 10.362,6.671 12.48,11.235c9.827,21.008 19.621,42.049 29.383,63.122c1.07,2.304 3.63,3.563 6.125,3.014c8.211,-1.857 16.324,-1.049 24.338,2.424c18.759,8.145 37.201,15.941 55.326,23.388c9.532,4.487 26.5,9.204 31.119,18.081c7.337,14.107 18.463,38.096 33.378,71.966c4.128,7.84 8.419,16.226 12.874,25.157c6.791,13.627 9.084,28.193 6.879,43.697c-1.682,20.287 -3.134,40.586 -4.357,60.894c-0.939,15.265 -0.939,31.949 -0,50.052c0.895,16.837 1.594,33.499 2.096,49.987c1.605,26.401 -4.16,49.724 -12.152,76.519l-24.076,91.325l-51.264,186.056c-0.131,0.479 -0.318,0.941 -0.557,1.376l-6.813,12.447l-40.454,51.461l-20.211,23.06c-10.308,15.505 -18.606,26.97 -24.895,34.395c-4.717,5.568 -7.72,11.421 -9.008,17.557c-0.195,0.888 -0.228,1.798 -0.098,2.686l6.453,45.532l5.404,49.462c0.568,1.179 0.798,2.762 0.688,4.75c1.409,30.037 2.85,60.861 8.746,90.44c2.119,10.569 4.193,20.811 6.224,30.726l2.981,25.975l13.364,106l7.895,55.097l6.027,52.443l7.796,52.869l7.567,54.67l6.256,51.166l7.403,55.26l15.461,107.408l6.814,52.935l8.32,55.882l7.108,50.052l3.046,20.964c0.275,1.845 -0.683,3.668 -2.358,4.488l-26.042,12.873l-25.419,13.561l-30.201,15.33l-104.198,54.507l-108.195,56.472l-106.163,54.179l-52.149,27.581l-51.788,-26.598l-109.242,-56.046l-107.278,-55.392l-32.822,-17.164l-20.374,-10.711l-53.131,-27.909l-77.698,-39.668c-1.271,-0.642 -1.997,-2.029 -1.802,-3.439l2.915,-20.244l8.091,-55.456l8.255,-53.164l6.617,-53.426l14.674,-106.033l6.781,-55.391l7.468,-53.982l6.912,-52.869l7.272,-50.969l7.436,-56.014l12.84,-96.14l9.074,-71.311c1.616,-6.704 1.845,-13.026 0.688,-18.966c3.472,-18.867 7.02,-37.691 10.646,-56.472c1.615,-8.516 2.26,-17.994 1.932,-28.432l4.979,-47.858l4.946,-44.778l9.303,-76.126c0.108,-0.905 0.018,-1.811 -0.262,-2.653c-3.079,-9.565 -7.479,-17.994 -13.201,-25.288l-27.548,-38.423l-51.395,-74.095l-77.96,-113.698l-36.622,-50.871c-5.328,-8.778 -12.283,-18.168 -20.866,-28.17c-6.191,-7.206 -16.411,-27.483 -27.253,-41.896c-3.974,-5.262 -6.125,-9.63 -6.453,-13.102c-1.54,-16.575 3.014,-30.66 4.095,-46.94c0.349,-5.066 1.659,-9.259 3.93,-12.579l14.642,-52.508l35.312,-120.282l21.521,-73.735l24.272,-84.184c0.983,-6.878 3.833,-14.271 8.55,-22.176c0.564,-0.932 1.284,-1.763 2.129,-2.456c19.152,-15.702 38.587,-30.813 58.306,-45.335c5.045,-3.713 9.718,-6.694 14.02,-8.943c2.429,-1.253 4.016,-3.714 4.16,-6.453l2.817,-50.314c0.765,-7.25 2.73,-13.517 5.896,-18.802c7.01,-11.661 13.693,-22.034 20.047,-31.119c15.418,-22.951 32.724,-45.378 51.919,-67.281c3.997,-4.564 8.91,-7.753 14.741,-9.565c7.818,-2.446 14.489,-4.39 20.014,-5.831l55.096,-5.863c27.101,-1.616 49.473,-3.593 67.118,-5.929c4.521,-0.59 8.135,0.273 10.843,2.588c14.958,12.796 29.611,25.823 43.959,39.078Z" style="fill:#291506;fill-rule:nonzero;"/><g><path d="M4068.1,887.536l-7.665,134.695c-0.13,2.328 -0.537,4.648 -1.212,6.911c-1.528,5.219 -2.828,9.041 -3.898,11.465c-13.08,29.546 -33.346,75.613 -60.796,138.199c-3.057,6.945 -6.704,13.42 -10.94,19.425c-14.348,-13.255 -29.001,-26.282 -43.959,-39.078c-2.708,-2.315 -6.322,-3.178 -10.843,-2.588c-17.645,2.336 -40.017,4.313 -67.118,5.929c13.845,-34.416 26.238,-68.778 37.179,-103.085c0.044,-0.087 1.801,-5.012 5.274,-14.773c1.921,-5.394 4.16,-12.568 6.715,-21.521c1.921,-6.791 7.774,-22.001 17.557,-45.63c18.497,-2.991 36.971,-6.922 55.424,-11.792c32.407,-8.582 59.18,-25.779 80.319,-51.591c0.663,-0.813 1.073,-1.792 1.179,-2.817l2.784,-23.749Z" style="fill:#64befc;fill-rule:nonzero;"/><path d="M4160.4,1149.56l28.072,58.634l-103.51,-22.373c1.223,-0.174 2.206,-0.458 2.948,-0.851c1.14,-0.606 1.783,-1.867 1.605,-3.145c-4.225,-32.331 -2.195,-61.648 -2.784,-97.745c-0.459,-28.586 -0.011,-57.237 1.343,-85.953c9.532,15.887 18.442,37.375 24.141,49.167c16.51,34.001 32.571,68.09 48.185,102.266Z" style="fill:#64befc;fill-rule:nonzero;"/><path d="M4363.3,1288.15c-1.244,2.686 0.033,4.215 3.833,4.586c30.922,3.079 61.451,6.879 92.635,8.058c48.196,1.835 96.37,4.357 144.522,7.567l-9.762,0.786c-0.612,0.046 -1.091,0.562 -1.091,1.176c-0,0.171 0.037,0.34 0.109,0.495c19.086,42.911 35.977,75.362 50.674,97.352c12.818,19.217 32.188,34.558 58.11,46.023c-7.185,3.101 -12.874,4.356 -17.066,3.767c-24.524,-3.429 -71.486,-11.203 -140.886,-23.323c-0.24,-0.043 -4.084,-1.146 -11.53,-3.308c-4.87,-1.398 -9.227,-1.081 -13.07,0.95c-18.125,-7.447 -36.567,-15.243 -55.326,-23.388c-8.014,-3.473 -16.127,-4.281 -24.338,-2.424c-2.495,0.549 -5.055,-0.71 -6.125,-3.014c-9.762,-21.073 -19.556,-42.114 -29.383,-63.122c-2.118,-4.564 -6.278,-8.309 -12.48,-11.235c-14.325,-6.748 -28.618,-13.376 -42.878,-19.883l14.052,-21.063Z" style="fill:#64befc;fill-rule:nonzero;"/><path d="M3693.95,1300.95l-2.817,50.314c-0.144,2.739 -1.731,5.2 -4.16,6.453c-4.302,2.249 -8.975,5.23 -14.02,8.943c-19.719,14.522 -39.154,29.633 -58.306,45.335c-0.845,0.693 -1.565,1.524 -2.129,2.456c-4.717,7.905 -7.567,15.298 -8.55,22.176c-40.028,10.308 -79.543,17.602 -118.545,21.882c-1.474,0.151 -2.949,0.04 -4.357,-0.328l-25.976,-6.977c49.626,-35.41 72.327,-85.691 90.867,-141.835c33.018,-2.654 66.069,-4.193 99.088,-6.814c5.394,-0.436 13.55,-0.524 24.469,-0.262c8.342,0.219 16.487,-0.229 24.436,-1.343Z" style="fill:#64befc;fill-rule:nonzero;"/><path d="M4593.48,1829.12l189.005,714.975c0.131,3.931 -0.437,7.425 -1.704,10.482c-0.402,0.969 -1.506,1.471 -2.522,1.146c-1.878,-0.611 -3.712,-2.609 -5.503,-5.994c-6.246,-19.086 -12.491,-38.281 -18.737,-57.586c-3.909,-12.076 -8.495,-23.879 -13.757,-35.41c-7.469,-16.334 -12.961,-32.286 -16.477,-47.857c-2.97,-13.233 -6.333,-24.938 -10.089,-35.115c-20.331,-55.009 -38.871,-112.332 -55.62,-171.971c-1.463,-5.175 -3.702,-11.978 -6.715,-20.407c-10.635,-29.612 -21.237,-61.342 -31.807,-95.19c-0.109,-0.372 -3.374,-12.764 -9.794,-37.179c-3.232,-12.382 -7.523,-24.447 -12.873,-36.196c-7.25,-18.999 -14.02,-41.459 -20.309,-67.38c-1.966,-8.014 -5.645,-16.509 -11.039,-25.484l24.076,-91.325c4.105,1.659 5.394,1.823 3.865,0.491Z" style="fill:#64befc;fill-rule:nonzero;"/><path d="M3669.35,2074.6c-4.214,32.603 -7.359,64.41 -9.434,95.419c-0.698,10.635 -2.227,17.656 -4.586,21.063c-9.368,13.561 -17.863,27.679 -25.484,42.354c-1.441,2.773 -3.56,5.001 -6.355,6.682c-0.92,0.556 -1.659,1.352 -2.129,2.293c-1.004,2.009 -2.413,3.658 -4.226,4.946c-15.461,-47.922 -37.702,-96.762 -75.045,-132.205c7.6,-23.257 13.07,-47.136 21.98,-70.131c4.226,-10.908 6.158,-19.687 8.255,-31.414c0.829,-4.695 1.878,-8.877 3.144,-12.545c4.739,-13.758 10.046,-27.145 15.92,-40.16l77.96,113.698Z" style="fill:#64befc;fill-rule:nonzero;"/></g><g><path d="M4248.71,997.696l-161.391,-18.966l-3.636,-423.639c0.634,-2.337 0.743,-4.499 0.328,-6.486c0,-3.319 0.535,-6.245 1.605,-8.778c0.166,-0.358 0.527,-0.588 0.921,-0.588c0.341,-0 0.66,0.172 0.848,0.456c4.105,6.377 6.781,12.492 8.025,18.344c1.201,5.743 3.232,12.054 6.093,18.933c1.944,4.695 5.121,15.636 9.532,32.822c2.49,9.631 7.076,26.238 12.317,39.144c10.438,25.769 20.068,50.467 28.891,74.095c7.621,20.397 14.118,40.575 19.49,60.534c4.629,17.165 12.578,40.422 23.846,69.771c10.384,27.024 19.785,47.53 29.907,77.338c7.578,22.34 15.319,44.68 23.224,67.02Z" style="fill:#1a5591;fill-rule:nonzero;"/><path d="M3017.53,1340.13c46.219,16.706 97.024,29.776 140.361,45.335c65.218,23.453 131.714,40.945 197.489,64.104c21.51,7.556 43.02,15.145 64.53,22.766c-1.223,51.952 -7.785,103.259 -19.687,153.922c-34.7,-24.742 -69.028,-50.379 -102.986,-76.912c-8.32,-6.507 -33.717,-24.25 -76.191,-53.229c-10.068,-6.857 -23.247,-17.11 -39.537,-30.758c-11.64,-9.74 -21.489,-17.328 -29.547,-22.766c-9.87,-6.66 -20.483,-13.277 -31.839,-19.85c-27.024,-15.658 -60.763,-46.744 -78.779,-59.781c-2.162,-1.55 -11.716,-8.211 -28.662,-19.981c-0.325,-0.227 -0.519,-0.599 -0.519,-0.995c-0,-0.601 0.447,-1.116 1.043,-1.2l4.324,-0.655Z" style="fill:#1a5591;fill-rule:nonzero;"/><path d="M5146.93,1341.61c2.227,0.939 4.466,0.972 6.715,0.098c0.844,-0.311 1.796,0.114 2.129,0.95l0.033,0.033c0.296,0.749 -0.012,1.616 -0.721,2.031c-15.461,8.538 -24.338,13.812 -26.631,15.821c-19.195,16.706 -43.861,36.48 -73.997,59.322c-0.958,0.719 -1.989,1.344 -3.079,1.867c-13.43,6.333 -27.34,14.828 -41.731,25.485c-13.725,10.154 -32.331,28.924 -50.937,40.88c-10.853,6.966 -19.031,12.655 -24.534,17.066c-6.901,5.547 -16.826,12.393 -29.776,20.538c-15.417,9.718 -25.452,16.488 -30.103,20.309c-17.667,14.588 -32.746,26.5 -45.237,35.737c-0.72,0.546 -1.79,1.747 -3.21,3.604c-0.867,1.127 -1.908,2.101 -3.079,2.882c-10.002,6.617 -18.278,12.83 -24.829,18.639c-6.617,5.874 -15.134,12.13 -25.55,18.769c-14.566,9.281 -29.175,18.911 -43.828,28.891c-6.355,-52.017 -15.09,-103.674 -26.206,-154.97l15.723,-18.508c14.064,-4.236 45.707,-15.079 94.929,-32.527c14.347,-5.066 44.985,-14.675 91.914,-28.826c29.656,-8.953 60.228,-18.802 91.718,-29.546c38.391,-13.103 82.667,-27.101 132.828,-41.994c0.652,-0.174 1.27,-0.438 1.834,-0.786c1.66,-1.004 3.854,-2.009 6.584,-3.014l9.041,-2.751Z" style="fill:#1a5591;fill-rule:nonzero;"/><path d="M4876.69,1589.31l-34.722,26.467c-0.675,0.501 -1.301,1.083 -1.867,1.736c-4.345,4.936 -9.412,8.998 -15.199,12.186c-2.38,1.31 -4.269,2.839 -5.667,4.586c-4.891,6.114 -10.678,11.17 -17.361,15.166c5.023,-6.027 11.465,-12.895 19.327,-20.604c4.695,-4.608 9.543,-8.167 14.544,-10.678c0.913,-0.479 1.761,-1.073 2.522,-1.769c11.618,-10.832 24.425,-19.862 38.423,-27.09Z" style="fill:#1a5591;fill-rule:nonzero;"/><path d="M3752.45,2291.18l-4.946,44.778c-12.251,9.631 -25.168,18.552 -38.751,26.763c-10.897,6.616 -19.872,12.742 -26.926,18.376c-16.967,13.627 -25.462,20.451 -25.484,20.473c-0.131,0.153 -12.218,9.434 -36.261,27.843c-3.997,3.079 -6.748,4.957 -8.255,5.634c-7.501,3.439 -13.234,9.008 -20.997,13.528c-18.475,10.766 -35.027,22.187 -49.659,34.263c-28.454,23.476 -45.684,37.037 -51.689,40.684c-23.716,14.391 -45.215,28.367 -64.498,41.928c-1.045,0.741 -2.011,1.586 -2.882,2.522c-7.098,7.665 -14.686,13.889 -22.766,18.672c-0.191,0.111 -0.408,0.17 -0.629,0.17c-0.636,-0 -1.175,-0.488 -1.238,-1.12c-0.306,-2.272 0.142,-4.979 1.343,-8.124c0.939,-0.939 1.78,-2.249 2.522,-3.931c29.808,-34.951 56.963,-76.846 76.552,-101.709c25.659,-32.494 42.081,-54.037 49.266,-64.628c14.26,-21.008 32.592,-45.4 54.998,-73.178c7.948,-9.892 18.911,-24.687 32.887,-44.385c10.679,-15.046 21.761,-29.786 33.248,-44.221l104.165,45.662Z" style="fill:#1a5591;fill-rule:nonzero;"/><path d="M4535.5,2264.36l203.549,269.946c11.464,18.125 24.425,35.136 38.882,51.034c6.911,7.6 9.826,16.116 16.247,23.978l-19.818,-11.596l6.126,1.54c0.113,0.025 0.228,0.037 0.344,0.037c0.881,0 1.605,-0.724 1.605,-1.605c0,-0.504 -0.237,-0.979 -0.639,-1.282c-11.727,-8.255 -21.729,-16.498 -30.005,-24.731c-5.11,-5.077 -14.577,-11.465 -21.521,-15.494c-22.755,-13.234 -40.782,-25.375 -54.081,-36.425c-22.646,-18.824 -34.809,-28.869 -36.491,-30.136c-11.945,-8.91 -27.417,-18.278 -46.416,-28.105c-0.959,-0.501 -1.879,-1.093 -2.751,-1.769c-10.81,-8.342 -16.367,-12.611 -16.673,-12.808c-8.408,-5.044 -14.686,-9.466 -18.835,-13.266c-2.49,-2.315 -14.216,-11.923 -35.18,-28.826c-11.16,-9.019 -23.29,-17.841 -36.393,-26.467c-18.573,-12.251 -35.901,-26.041 -54.769,-36.851c-1.288,-0.742 -2.817,0.077 -4.586,2.457l-5.404,-49.462c26.008,8.582 45.99,-5.766 68.821,-20.834c13.474,-8.909 29.47,-12.021 47.988,-9.335Z" style="fill:#1a5591;fill-rule:nonzero;"/></g><g><path d="M4395.23,1245.2l-31.938,42.943l-14.052,21.063c-19.741,-8.495 -39.57,-16.64 -59.486,-24.436c-5.918,-2.315 -10.296,-3.112 -13.135,-2.392c-11.64,2.992 -23.181,5.525 -34.624,7.6c-2.201,0.407 -4.407,-0.75 -5.306,-2.785c-8.495,-18.845 -17.252,-37.953 -26.271,-57.323c-5.154,-11.072 -12.469,-18.3 -21.947,-21.685l-28.072,-58.634c52.913,21.969 106.557,41.579 160.932,58.83c0.078,0.025 0.159,0.039 0.24,0.043c0.521,0.028 0.97,-0.364 0.997,-0.866c0.004,-0.086 -0.004,-0.173 -0.025,-0.257c-1.987,-8.583 -5.011,-18.519 -9.073,-29.809c-21.576,-60.01 -43.162,-119.943 -64.76,-179.8c-7.905,-22.34 -15.646,-44.68 -23.224,-67.02c-10.122,-29.808 -19.523,-50.314 -29.907,-77.338c-11.268,-29.349 -19.217,-52.606 -23.846,-69.771c-5.372,-19.959 -11.869,-40.137 -19.49,-60.534c-8.823,-23.628 -18.453,-48.326 -28.891,-74.095c-5.241,-12.906 -9.827,-29.513 -12.317,-39.144c-4.411,-17.186 -7.588,-28.127 -9.532,-32.822c-2.861,-6.879 -4.892,-13.19 -6.093,-18.933c-1.244,-5.852 -3.92,-11.967 -8.025,-18.344c-0.188,-0.284 -0.507,-0.456 -0.848,-0.456c-0.394,-0 -0.755,0.23 -0.921,0.588c-1.07,2.533 -1.605,5.459 -1.605,8.778l-0.393,-27.253c1.005,-7.971 0.328,-12.71 -2.031,-14.216c-0.48,-1.813 -0.295,-2.894 0.557,-3.243c0.015,-0.006 0.029,-0.012 0.044,-0.018c2.513,-0.975 5.469,0.512 6.548,3.293c0.008,0.022 0.016,0.044 0.025,0.066c10.875,29.044 22.678,58.579 35.409,88.606c1.485,3.516 4.586,9.794 9.303,18.835c3.647,6.988 6.552,13.43 8.713,19.326c4.805,13.168 8.332,23.214 10.581,30.136c14.314,44.123 29.612,78.714 48.643,116.515c3.8,7.578 9.117,19.807 15.953,36.687c5.459,13.496 14.434,37.725 26.925,72.687c0.175,0.502 0.666,1.102 1.474,1.801c0.432,0.41 0.768,0.913 0.983,1.474c9.368,25.485 18.638,48.13 27.81,67.937c8.757,18.933 15.407,34.318 19.949,46.154c6.977,18.114 17.656,40.028 26.271,61.779c14.183,35.639 22.045,58.634 36.851,89.097c11.443,23.541 22.733,50.729 33.87,81.564c0.174,0.478 0.416,0.93 0.72,1.343l3.014,4.029Z" style="fill:#2d7fca;fill-rule:nonzero;"/><path d="M2987.59,1324.93l-0.753,0.95c-0.264,0.313 -0.408,0.709 -0.408,1.118c-0,0.698 0.42,1.33 1.063,1.601l14.544,6.027l14.151,4.815c0.437,0.48 0.884,0.71 1.343,0.688l-4.324,0.655c-0.596,0.084 -1.043,0.599 -1.043,1.2c-0,0.396 0.194,0.768 0.519,0.995c16.946,11.77 26.5,18.431 28.662,19.981c18.016,13.037 51.755,44.123 78.779,59.781c11.356,6.573 21.969,13.19 31.839,19.85c8.058,5.438 17.907,13.026 29.547,22.766c16.29,13.648 29.469,23.901 39.537,30.758c42.474,28.979 67.871,46.722 76.191,53.229c33.958,26.533 68.286,52.17 102.986,76.912c32.08,22.471 63.34,45.608 93.782,69.411c7.468,5.831 17.088,12.218 28.858,19.163l-14.642,52.508c-7.381,-4.04 -13.998,-8.833 -19.85,-14.38c-17.077,-16.16 -33.619,-30.354 -49.626,-42.583c-21.161,-16.116 -36.524,-28.422 -46.088,-36.917c-37.605,-33.346 -73.113,-63.907 -113.895,-95.386c-22.864,-17.623 -41.098,-32.582 -54.703,-44.877c-33.575,-30.365 -54.179,-46.579 -94.437,-77.207c-16.083,-12.218 -36.032,-32.985 -55.653,-48.086c-8.353,-6.42 -16.214,-13.922 -26.008,-21.193c-22.559,-16.75 -44.516,-34.264 -65.874,-52.542c-2.183,-1.878 -3.483,-3.144 -3.898,-3.8c-0.145,-0.222 -0.262,-0.462 -0.347,-0.713c-0.559,-1.651 0.354,-3.474 2.022,-4.039c0.253,-0.086 0.516,-0.14 0.782,-0.161l6.944,-0.524Z" style="fill:#2d7fca;fill-rule:nonzero;"/><path d="M4876.69,1589.31c-13.998,7.228 -26.805,16.258 -38.423,27.09c-0.761,0.696 -1.609,1.29 -2.522,1.769c-5.001,2.511 -9.849,6.07 -14.544,10.678c-7.862,7.709 -14.304,14.577 -19.327,20.604c-3.253,4.193 -7.293,7.916 -12.119,11.17c-1.171,0.759 -2.201,1.712 -3.047,2.817c-3.996,5.197 -8.778,9.543 -14.347,13.037c-1.13,0.696 -2.156,1.545 -3.046,2.522c-4.848,5.34 -12.415,12.218 -19.359,16.804c-24,15.92 -45.434,33.248 -64.301,51.985c-0.828,0.828 -1.739,1.574 -2.719,2.227c-10.482,6.879 -18.824,13.845 -25.026,20.899c-12.142,13.845 -28.313,27.428 -48.512,40.749c-7.294,4.804 -12.601,10.624 -15.92,17.459c1.529,1.332 0.24,1.168 -3.865,-0.491c7.992,-26.795 13.757,-50.118 12.152,-76.519c6.486,-6.137 13.496,-11.847 21.03,-17.132c11.945,-8.386 19.326,-13.648 22.143,-15.789c12.491,-9.433 25.288,-18.441 38.391,-27.024c1.241,-0.805 2.383,-1.739 3.407,-2.784c12.971,-13.255 26.914,-24.873 41.83,-34.853c14.653,-9.98 29.262,-19.61 43.828,-28.891c10.416,-6.639 18.933,-12.895 25.55,-18.769c6.551,-5.809 14.827,-12.022 24.829,-18.639c1.171,-0.781 2.212,-1.755 3.079,-2.882c1.42,-1.857 2.49,-3.058 3.21,-3.604c12.491,-9.237 27.57,-21.149 45.237,-35.737c4.651,-3.821 14.686,-10.591 30.103,-20.309c12.95,-8.145 22.875,-14.991 29.776,-20.538c5.503,-4.411 13.681,-10.1 24.534,-17.066c18.606,-11.956 37.212,-30.726 50.937,-40.88c14.391,-10.657 28.301,-19.152 41.731,-25.485c1.09,-0.523 2.121,-1.148 3.079,-1.867c30.136,-22.842 54.802,-42.616 73.997,-59.322c2.293,-2.009 11.17,-7.283 26.631,-15.821c0.709,-0.415 1.017,-1.282 0.721,-2.031l-0.033,-0.033c-0.333,-0.836 -1.285,-1.261 -2.129,-0.95c-2.249,0.874 -4.488,0.841 -6.715,-0.098l36.359,-11.727c0.507,-0.164 0.891,-0.574 1.016,-1.081c0.502,-1.791 -0.677,-3.079 -3.538,-3.865l8.976,0.426c1.275,0.072 2.285,1.142 2.285,2.42c0,0.821 -0.417,1.588 -1.106,2.035c-2.053,1.288 -3.767,3.024 -5.143,5.208c-0.499,0.76 -1.119,1.434 -1.834,1.998c-7.316,5.612 -13.365,10.548 -18.147,14.806c-11.793,10.548 -21.161,18.365 -28.105,23.454c-12.077,8.866 -19.764,14.554 -23.061,17.066c-22.274,16.902 -43.424,35.038 -63.449,54.408c-1.398,1.332 -4.16,3.538 -8.288,6.617c-23.104,17.164 -40.683,30.42 -52.737,39.766c-14.916,11.574 -36.24,30.638 -63.974,57.193c-9.084,8.691 -25.583,21.685 -49.495,38.98Z" style="fill:#2d7fca;fill-rule:nonzero;"/><path d="M4596.88,2012.82c5.35,11.749 9.641,23.814 12.873,36.196c6.42,24.415 9.685,36.807 9.794,37.179c10.57,33.848 21.172,65.578 31.807,95.19c3.013,8.429 5.252,15.232 6.715,20.407c16.749,59.639 35.289,116.962 55.62,171.971c3.756,10.177 7.119,21.882 10.089,35.115c3.516,15.571 9.008,31.523 16.477,47.857c5.262,11.531 9.848,23.334 13.757,35.41c6.246,19.305 12.491,38.5 18.737,57.586c1.507,5.525 3.068,10.722 4.684,15.592c0.079,0.247 0.119,0.505 0.119,0.765c-0,1.207 -0.866,2.253 -2.051,2.478c-0.896,0.175 -1.737,-0.295 -2.523,-1.409c-8.822,-12.644 -18.103,-24.916 -27.843,-36.818c-13.321,-17.885 -25.965,-36.239 -37.932,-55.063c-9.302,-14.632 -15.504,-24.022 -18.605,-28.171c-16.739,-22.405 -33.117,-45.4 -48.218,-68.854c-27.013,-41.928 -52.454,-79.675 -76.322,-113.239c-2.621,-3.669 -9.86,-14.784 -21.718,-33.346c-7.119,-11.115 -14.707,-21.947 -22.766,-32.494c11.705,-16.619 21.871,-33.259 30.497,-49.921c19.555,-37.736 25.386,-71.377 33.804,-109.603c1.704,-7.665 6.038,-16.608 13.005,-26.828Z" style="fill:#2d7fca;fill-rule:nonzero;"/><path d="M3747.51,2335.96l-4.979,47.858c-15.876,11.595 -27.483,19.337 -34.82,23.224c-5.197,2.773 -21.499,11.629 -48.905,26.565c-12.404,6.77 -25.387,15.189 -38.948,25.256c-16.181,11.989 -30.157,21.302 -41.928,27.941c-24.982,14.042 -38.576,21.586 -40.782,22.635c-11.006,5.306 -21.717,14.085 -34.427,21.095c-12.906,7.075 -26.467,18.311 -36.916,25.091c-17.754,11.509 -28.706,18.311 -32.855,20.407c-16.051,8.102 -26.718,14.151 -32.003,18.148c-0.817,0.623 -1.784,1.039 -2.817,1.212c-3.538,0.676 -6.027,1.812 -7.469,3.406c-4.345,4.761 -8.942,7.698 -13.79,8.812c1.638,-4.368 3.756,-7.971 6.355,-10.81l15.592,-19.228c-1.201,3.145 -1.649,5.852 -1.343,8.124c0.063,0.632 0.602,1.12 1.238,1.12c0.221,-0 0.438,-0.059 0.629,-0.17c8.08,-4.783 15.668,-11.007 22.766,-18.672c0.871,-0.936 1.837,-1.781 2.882,-2.522c19.283,-13.561 40.782,-27.537 64.498,-41.928c6.005,-3.647 23.235,-17.208 51.689,-40.684c14.632,-12.076 31.184,-23.497 49.659,-34.263c7.763,-4.52 13.496,-10.089 20.997,-13.528c1.507,-0.677 4.258,-2.555 8.255,-5.634c24.043,-18.409 36.13,-27.69 36.261,-27.843c0.022,-0.022 8.517,-6.846 25.484,-20.473c7.054,-5.634 16.029,-11.76 26.926,-18.376c13.583,-8.211 26.5,-17.132 38.751,-26.763Z" style="fill:#2d7fca;fill-rule:nonzero;"/><path d="M4774.36,2597.72c-27.253,-14.118 -53.72,-32.494 -77.076,-49.069c-11.29,-8.014 -22.875,-15.33 -34.754,-21.947c-20.331,-11.355 -43.818,-25.31 -70.46,-41.862c-6.791,-4.215 -22.492,-14.97 -47.103,-32.266c-1.046,-0.719 -2.154,-1.333 -3.309,-1.834c-4.826,-2.009 -7.665,-3.243 -8.516,-3.701c-31.337,-16.575 -62.39,-34.744 -93.16,-54.507c-4.433,-2.861 -7.599,-6.606 -9.499,-11.236c-0.131,-0.326 -0.23,-0.678 -0.295,-1.048l-5.405,-31.511c0.11,-1.988 -0.12,-3.571 -0.688,-4.75c1.769,-2.38 3.298,-3.199 4.586,-2.457c18.868,10.81 36.196,24.6 54.769,36.851c13.103,8.626 25.233,17.448 36.393,26.467c20.964,16.903 32.69,26.511 35.18,28.826c4.149,3.8 10.427,8.222 18.835,13.266c0.306,0.197 5.863,4.466 16.673,12.808c0.872,0.676 1.792,1.268 2.751,1.769c18.999,9.827 34.471,19.195 46.416,28.105c1.682,1.267 13.845,11.312 36.491,30.136c13.299,11.05 31.326,23.191 54.081,36.425c6.944,4.029 16.411,10.417 21.521,15.494c8.276,8.233 18.278,16.476 30.005,24.731c0.402,0.303 0.639,0.778 0.639,1.282c0,0.881 -0.724,1.605 -1.605,1.605c-0.116,0 -0.231,-0.012 -0.344,-0.037l-6.126,-1.54Z" style="fill:#2d7fca;fill-rule:nonzero;"/></g><g><path d="M4081.59,507.136c2.359,1.506 3.036,6.245 2.031,14.216c-8.298,19.501 -15.035,39.81 -20.211,60.927c-1.288,5.285 -4.302,13.779 -9.041,25.484c-12.316,30.508 -22.132,62.074 -29.448,94.699c-1.375,6.202 -4.902,15.614 -10.58,28.236c-1.419,3.167 -2.719,6.737 -3.898,10.712c-1.07,3.625 -2.369,7.195 -3.898,10.711c-11.203,26.074 -21.434,54.529 -30.693,85.363c-1.31,4.346 -2.62,10.646 -3.93,18.901c-0.175,1.089 -0.449,2.153 -0.819,3.177c-6.814,18.213 -13.845,36.338 -21.096,54.376c-5.83,14.544 -13.037,35.726 -21.619,63.547c-9.783,23.629 -15.636,38.839 -17.557,45.63c-2.555,8.953 -4.794,16.127 -6.715,21.521c-3.473,9.761 -5.23,14.686 -5.274,14.773c-10.941,34.307 -23.334,68.669 -37.179,103.085l-55.096,5.863l275.023,-661.221Z" style="fill:#9ee1fd;fill-rule:nonzero;"/><path d="M4083.69,555.091l3.636,423.639l0.754,19.392c-1.354,28.716 -1.802,57.367 -1.343,85.953c0.589,36.097 -1.441,65.414 2.784,97.745c0.178,1.278 -0.465,2.539 -1.605,3.145c-0.742,0.393 -1.725,0.677 -2.948,0.851l-22.831,-5.11c-4.463,-0.999 -9.13,-0.528 -13.299,1.343c-16.706,7.447 -34.416,14.566 -53.131,21.358c-5.7,2.096 -8.943,-0.885 -12.12,-5.176c4.236,-6.005 7.883,-12.48 10.94,-19.425c27.45,-62.586 47.716,-108.653 60.796,-138.199c1.07,-2.424 2.37,-6.246 3.898,-11.465c0.675,-2.263 1.082,-4.583 1.212,-6.911l7.665,-134.695c2.359,-41.764 5.307,-84.053 4.816,-125.719c-0.426,-36.949 1.506,-66.987 4.946,-107.114c0.568,-6.747 0.917,-23.41 1.048,-49.986c0.087,-17.819 1.147,-34.624 3.177,-50.412c0.031,-0.353 0.331,-0.628 0.686,-0.628c0.128,0 0.254,0.036 0.363,0.104c0.436,0.262 0.622,0.699 0.556,1.31Z" style="fill:#9ee1fd;fill-rule:nonzero;"/><path d="M4395.23,1245.2c50.205,4.629 99.361,9.204 147.47,13.725c25.484,2.391 53.786,6.813 78.68,9.401c31.206,3.232 90.43,9.248 177.671,18.049c115.172,11.595 201.977,20.112 260.414,25.55c35.672,3.341 75.897,8.615 113.927,12.283l3.898,2.129c0.295,0.161 0.48,0.471 0.48,0.807c-0,0.387 -0.246,0.735 -0.611,0.864c-19.195,7.108 -37.211,2.588 -57.258,3.21c-40.946,1.245 -63.089,2.097 -98.106,-1.605c-40.192,-4.258 -74.324,-4.586 -117.53,-6.387c-47.475,-1.966 -131.397,-5.984 -251.766,-12.055c-23.541,-1.179 -39.613,-2.118 -48.217,-2.817c-48.152,-3.21 -96.326,-5.732 -144.522,-7.567c-31.184,-1.179 -61.713,-4.979 -92.635,-8.058c-3.8,-0.371 -5.077,-1.9 -3.833,-4.586l31.938,-42.943Z" style="fill:#9ee1fd;fill-rule:nonzero;"/><path d="M3719.89,1251.03c-6.354,9.085 -13.037,19.458 -20.047,31.119c-3.166,5.285 -5.131,11.552 -5.896,18.802c-7.949,1.114 -16.094,1.562 -24.436,1.343c-10.919,-0.262 -19.075,-0.174 -24.469,0.262c-33.019,2.621 -66.07,4.16 -99.088,6.814c-62.914,3.909 -125.894,7.151 -188.939,9.728c-55.643,2.271 -92.778,3.975 -111.405,5.11c-79.074,4.815 -142.196,8.157 -215.636,6.617c-3.712,-0.065 -8.353,0.546 -13.921,1.834c-4.914,1.158 -9.587,1.813 -14.02,1.966l-14.544,-6.027c-0.643,-0.271 -1.063,-0.903 -1.063,-1.601c-0,-0.409 0.144,-0.805 0.408,-1.118l0.753,-0.95c6.901,-0.131 16.193,-0.885 27.876,-2.26c53.415,-6.29 117.028,-13.07 190.839,-20.342c95.485,-9.368 170.563,-17.689 271.682,-27.777c0.218,-0.022 38.161,-4.139 113.829,-12.35c41.862,-4.564 84.555,-8.287 128.077,-11.17Z" style="fill:#9ee1fd;fill-rule:nonzero;"/><path d="M3455.09,1451.21l25.976,6.977c1.408,0.368 2.883,0.479 4.357,0.328c39.002,-4.28 78.517,-11.574 118.545,-21.882l-24.272,84.184c-19.152,-6.988 -34.864,-12.349 -47.137,-16.083c-21.99,-6.682 -48.654,-13.998 -79.991,-21.947l-32.658,-10.449c-21.51,-7.621 -43.02,-15.21 -64.53,-22.766c-65.775,-23.159 -132.271,-40.651 -197.489,-64.104c-43.337,-15.559 -94.142,-28.629 -140.361,-45.335c-0.459,0.022 -0.906,-0.208 -1.343,-0.688c-0.371,-1.179 -0.404,-2.053 -0.098,-2.621c0.327,-0.633 1.124,-0.786 2.391,-0.458c33.411,8.844 58.568,12.578 88.311,22.504c22.1,7.359 49.157,13.965 81.171,19.817c16.083,2.916 28.17,7.37 45.891,11.465c28.99,6.682 54.998,16.313 81.498,23.945c7.054,2.031 30.868,8.386 71.442,19.064c22.864,6.027 45.63,12.044 68.297,18.049Z" style="fill:#9ee1fd;fill-rule:nonzero;"/><path d="M5137.89,1344.36c-2.73,1.005 -4.924,2.01 -6.584,3.014c-0.564,0.348 -1.182,0.612 -1.834,0.786c-50.161,14.893 -94.437,28.891 -132.828,41.994c-31.49,10.744 -62.062,20.593 -91.718,29.546c-46.929,14.151 -77.567,23.76 -91.914,28.826c-49.222,17.448 -80.865,28.291 -94.929,32.527c-22.514,7.272 -44.92,13.201 -67.216,17.787c-13.146,2.708 -35.344,10.537 -66.594,23.486c-14.915,-33.87 -26.041,-57.859 -33.378,-71.966c-4.619,-8.877 -21.587,-13.594 -31.119,-18.081c3.843,-2.031 8.2,-2.348 13.07,-0.95c7.446,2.162 11.29,3.265 11.53,3.308c69.4,12.12 116.362,19.894 140.886,23.323c4.192,0.589 9.881,-0.666 17.066,-3.767c32.341,-7.862 65.01,-16.007 98.007,-24.436c11.661,-2.981 24.764,-8.124 35.377,-10.876c39.635,-10.22 75.471,-23.65 113.632,-32.068c51.711,-11.378 95.834,-22.952 132.369,-34.722c0.892,-0.305 1.826,-0.514 2.784,-0.622c7.993,-0.939 15.243,-2.697 21.75,-5.274c0.992,-0.388 2.045,-0.545 3.079,-0.459c2.621,0.175 7.098,-0.699 13.431,-2.62c5.481,-1.66 10.525,-1.245 15.133,1.244Z" style="fill:#9ee1fd;fill-rule:nonzero;"/><path d="M3554.77,1910.03l36.622,50.871c-5.874,13.015 -11.181,26.402 -15.92,40.16c-1.266,3.668 -2.315,7.85 -3.144,12.545c-2.097,11.727 -4.029,20.506 -8.255,31.414c-8.91,22.995 -14.38,46.874 -21.98,70.131c-12.927,31.228 -24.119,62.904 -33.575,95.027c-3.963,13.528 -5.732,30.332 -11.17,45.597c-2.882,8.014 -5.601,17.153 -8.156,27.417c-0.721,2.97 -2.435,6.562 -5.143,10.777c-0.644,0.965 -1.017,2.085 -1.081,3.243c-0.218,3.581 -3.57,12.338 -10.056,26.27c-6.65,14.217 -12.841,34.001 -16.542,52.443c-4.28,21.314 -10.449,40.859 -18.508,58.634c-7.796,17.274 -12.502,29.023 -14.118,35.246c-0.611,2.337 -5.841,19.84 -15.69,52.509c-3.101,10.329 -6.3,19.151 -9.598,26.467c-3.865,8.56 -7.446,17.994 -10.744,28.302c-0.065,0.196 -0.12,0.404 -0.163,0.622c-0.808,6.398 -2.25,12.764 -4.324,19.097c-2.599,2.839 -4.717,6.442 -6.355,10.81l-3.767,3.112c-0.154,0.122 -0.334,0.208 -0.527,0.252c-0.683,0.154 -1.369,-0.267 -1.519,-0.934c-0.045,-0.196 -0.039,-0.401 0.015,-0.596c7.971,-31.031 13.638,-54.081 17.001,-69.149c5.863,-26.565 20.505,-72.064 27.843,-104.296c4.105,-18.06 7.599,-32.014 10.482,-41.863c10.656,-36.338 19.523,-69.324 26.598,-98.957c12.054,-50.347 28.138,-99.482 41.208,-152.875c5.612,-22.885 10.853,-43.315 15.723,-61.287c15.242,-56.319 30.19,-113.315 44.843,-170.989Z" style="fill:#9ee1fd;fill-rule:nonzero;"/><path d="M3720.75,2148.69l-48.086,66.495l-24.371,30.333c-11.487,14.435 -22.569,29.175 -33.248,44.221c-13.976,19.698 -24.939,34.493 -32.887,44.385c-22.406,27.778 -40.738,52.17 -54.998,73.178c-7.185,10.591 -23.607,32.134 -49.266,64.628c-19.589,24.863 -46.744,66.758 -76.552,101.709c-4.455,2.271 -4.63,-0.043 -0.524,-6.944c12.644,-21.139 26.838,-42.081 42.583,-62.827c6.224,-8.211 20.724,-30.322 43.501,-66.332c0.85,-1.329 1.826,-2.579 2.915,-3.734c4.411,-4.651 7.272,-9.063 8.582,-13.234c0.497,-1.533 1.311,-2.949 2.392,-4.16l16.705,-18.966c0.24,-0.261 0.449,-0.558 0.623,-0.884c2.424,-4.433 6.54,-10.58 12.349,-18.442c3.931,-5.328 10.558,-16.149 19.883,-32.462c6.573,-11.508 13.081,-21.575 19.523,-30.201c8.932,-11.923 15.745,-21.87 20.44,-29.841c0.48,-0.83 0.83,-1.714 1.048,-2.653c0.3,-1.203 0.91,-2.309 1.769,-3.211c4.018,-4.149 8.135,-8.658 12.349,-13.528c1.747,-2.009 3.603,-5.121 5.569,-9.336c1.638,-3.515 3.669,-6.693 6.092,-9.532c1.813,-1.288 3.222,-2.937 4.226,-4.946c0.47,-0.941 1.209,-1.737 2.129,-2.293c2.795,-1.681 4.914,-3.909 6.355,-6.682c7.621,-14.675 16.116,-28.793 25.484,-42.354c2.359,-3.407 3.888,-10.428 4.586,-21.063c2.075,-31.009 5.22,-62.816 9.434,-95.419l51.395,74.095Z" style="fill:#9ee1fd;fill-rule:nonzero;"/><path d="M4506.9,2119.83c-1.551,31.993 2.675,58.438 12.676,79.337c8.059,10.547 15.647,21.379 22.766,32.494c11.858,18.562 19.097,29.677 21.718,33.346c23.868,33.564 49.309,71.311 76.322,113.239c15.101,23.454 31.479,46.449 48.218,68.854c3.101,4.149 9.303,13.539 18.605,28.171c11.967,18.824 24.611,37.178 37.932,55.063c-1.79,2.075 -3.821,3.396 -6.092,3.964l-203.549,-269.946l-41.175,-51.035l-27.875,-42.026l40.454,-51.461Z" style="fill:#9ee1fd;fill-rule:nonzero;"/></g><g><path d="M4248.71,997.696c21.598,59.857 43.184,119.79 64.76,179.8c4.062,11.29 7.086,21.226 9.073,29.809c0.021,0.084 0.029,0.171 0.025,0.257c-0.027,0.502 -0.476,0.894 -0.997,0.866c-0.081,-0.004 -0.162,-0.018 -0.24,-0.043c-54.375,-17.251 -108.019,-36.861 -160.932,-58.83c-15.614,-34.176 -31.675,-68.265 -48.185,-102.266c-5.699,-11.792 -14.609,-33.28 -24.141,-49.167l-0.754,-19.392l161.391,18.966Z" style="fill:#2165aa;fill-rule:nonzero;"/><path d="M3452.57,1482.79c2.14,4.106 5.874,8.975 11.203,14.61c30.31,32.166 61.778,64.552 94.404,97.155l-35.312,120.282c-11.77,-6.945 -21.39,-13.332 -28.858,-19.163c-30.442,-23.803 -61.702,-46.94 -93.782,-69.411c11.902,-50.663 18.464,-101.97 19.687,-153.922l32.658,10.449Z" style="fill:#2165aa;fill-rule:nonzero;"/><path d="M4702.36,1499.56c11.116,51.296 19.851,102.953 26.206,154.97c-14.916,9.98 -28.859,21.598 -41.83,34.853c-1.024,1.045 -2.166,1.979 -3.407,2.784c-13.103,8.583 -25.9,17.591 -38.391,27.024c-2.817,2.141 -10.198,7.403 -22.143,15.789c-7.534,5.285 -14.544,10.995 -21.03,17.132c-0.502,-16.488 -1.201,-33.15 -2.096,-49.987c-0.939,-18.103 -0.939,-34.787 -0,-50.052c1.223,-20.308 2.675,-40.607 4.357,-60.894l0.196,7.501c0.007,0.161 0.044,0.319 0.109,0.466c0.282,0.642 1.028,0.944 1.653,0.669c0.151,-0.066 0.287,-0.162 0.4,-0.283l95.976,-99.972Z" style="fill:#2165aa;fill-rule:nonzero;"/><path d="M3752.45,2291.18l-104.165,-45.662l24.371,-30.333c5.503,-0.742 10.678,-2.052 15.526,-3.93c14.217,-5.547 28.367,-11.29 42.453,-17.23c0.741,-0.305 1.508,-0.546 2.293,-0.721c5.896,-1.31 11.017,-3.374 15.362,-6.191c5.722,7.294 10.122,15.723 13.201,25.288c0.28,0.842 0.37,1.748 0.262,2.653l-9.303,76.126Z" style="fill:#2165aa;fill-rule:nonzero;"/><path d="M4446.24,2194.35c15.09,8.255 31.118,14.577 48.086,18.966l41.175,51.035c-18.518,-2.686 -34.514,0.426 -47.988,9.335c-22.831,15.068 -42.813,29.416 -68.821,20.834l-6.453,-45.532c-0.13,-0.888 -0.097,-1.798 0.098,-2.686c1.288,-6.136 4.291,-11.989 9.008,-17.557c6.289,-7.425 14.587,-18.89 24.895,-34.395Z" style="fill:#2165aa;fill-rule:nonzero;"/></g><g><path d="M4083.62,521.352l0.393,27.253c0.415,1.987 0.306,4.149 -0.328,6.486c0.066,-0.611 -0.12,-1.048 -0.556,-1.31c-0.109,-0.068 -0.235,-0.104 -0.363,-0.104c-0.355,0 -0.655,0.275 -0.686,0.628c-2.03,15.788 -3.09,32.593 -3.177,50.412c-0.131,26.576 -0.48,43.239 -1.048,49.986c-3.44,40.127 -5.372,70.165 -4.946,107.114c0.491,41.666 -2.457,83.955 -4.816,125.719l-2.784,23.749c-0.106,1.025 -0.516,2.004 -1.179,2.817c-21.139,25.812 -47.912,43.009 -80.319,51.591c-18.453,4.87 -36.927,8.801 -55.424,11.792c8.582,-27.821 15.789,-49.003 21.619,-63.547c7.251,-18.038 14.282,-36.163 21.096,-54.376c0.37,-1.024 0.644,-2.088 0.819,-3.177c1.31,-8.255 2.62,-14.555 3.93,-18.901c9.259,-30.834 19.49,-59.289 30.693,-85.363c1.529,-3.516 2.828,-7.086 3.898,-10.711c1.179,-3.975 2.479,-7.545 3.898,-10.712c5.678,-12.622 9.205,-22.034 10.58,-28.236c7.316,-32.625 17.132,-64.191 29.448,-94.699c4.739,-11.705 7.753,-20.199 9.041,-25.484c5.176,-21.117 11.913,-41.426 20.211,-60.927Z" style="fill:#52abfd;fill-rule:nonzero;"/><path d="M4604.29,1308.36c8.604,0.699 24.676,1.638 48.217,2.817c120.369,6.071 204.291,10.089 251.766,12.055c43.206,1.801 77.338,2.129 117.53,6.387c35.017,3.702 57.16,2.85 98.106,1.605c20.047,-0.622 38.063,3.898 57.258,-3.21c0.365,-0.129 0.611,-0.477 0.611,-0.864c-0,-0.336 -0.185,-0.646 -0.48,-0.807l-3.898,-2.129l7.37,0.721c2.861,0.786 4.04,2.074 3.538,3.865c-0.125,0.507 -0.509,0.917 -1.016,1.081l-36.359,11.727l-9.041,2.751c-4.608,-2.489 -9.652,-2.904 -15.133,-1.244c-6.333,1.921 -10.81,2.795 -13.431,2.62c-1.034,-0.086 -2.087,0.071 -3.079,0.459c-6.507,2.577 -13.757,4.335 -21.75,5.274c-0.958,0.108 -1.892,0.317 -2.784,0.622c-36.535,11.77 -80.658,23.344 -132.369,34.722c-38.161,8.418 -73.997,21.848 -113.632,32.068c-10.613,2.752 -23.716,7.895 -35.377,10.876c-32.997,8.429 -65.666,16.574 -98.007,24.436c-25.922,-11.465 -45.292,-26.806 -58.11,-46.023c-14.697,-21.99 -31.588,-54.441 -50.674,-97.352c-0.072,-0.155 -0.109,-0.324 -0.109,-0.495c-0,-0.614 0.479,-1.13 1.091,-1.176l9.762,-0.786Z" style="fill:#52abfd;fill-rule:nonzero;"/><path d="M3545.96,1309.37c-18.54,56.144 -41.241,106.425 -90.867,141.835c-22.667,-6.005 -45.433,-12.022 -68.297,-18.049c-40.574,-10.678 -64.388,-17.033 -71.442,-19.064c-26.5,-7.632 -52.508,-17.263 -81.498,-23.945c-17.721,-4.095 -29.808,-8.549 -45.891,-11.465c-32.014,-5.852 -59.071,-12.458 -81.171,-19.817c-29.743,-9.926 -54.9,-13.66 -88.311,-22.504c-1.267,-0.328 -2.064,-0.175 -2.391,0.458c-0.306,0.568 -0.273,1.442 0.098,2.621l-14.151,-4.815c4.433,-0.153 9.106,-0.808 14.02,-1.966c5.568,-1.288 10.209,-1.899 13.921,-1.834c73.44,1.54 136.562,-1.802 215.636,-6.617c18.627,-1.135 55.762,-2.839 111.405,-5.11c63.045,-2.577 126.025,-5.819 188.939,-9.728Z" style="fill:#52abfd;fill-rule:nonzero;"/><path d="M4718.08,1481.05l-15.723,18.508l-95.976,99.972c-0.113,0.121 -0.249,0.217 -0.4,0.283c-0.625,0.275 -1.371,-0.027 -1.653,-0.669c-0.065,-0.147 -0.102,-0.305 -0.109,-0.466l-0.196,-7.501c2.205,-15.504 -0.088,-30.07 -6.879,-43.697c-4.455,-8.931 -8.746,-17.317 -12.874,-25.157c31.25,-12.949 53.448,-20.778 66.594,-23.486c22.296,-4.586 44.702,-10.515 67.216,-17.787Z" style="fill:#52abfd;fill-rule:nonzero;"/><path d="M3579.7,1520.82l-21.521,73.735c-32.626,-32.603 -64.094,-64.989 -94.404,-97.155c-5.329,-5.635 -9.063,-10.504 -11.203,-14.61c31.337,7.949 58.001,15.265 79.991,21.947c12.273,3.734 27.985,9.095 47.137,16.083Z" style="fill:#52abfd;fill-rule:nonzero;"/><path d="M4565.53,1919.95c5.394,8.975 9.073,17.47 11.039,25.484c6.289,25.921 13.059,48.381 20.309,67.38c-6.967,10.22 -11.301,19.163 -13.005,26.828c-8.418,38.226 -14.249,71.867 -33.804,109.603c-8.626,16.662 -18.792,33.302 -30.497,49.921c-10.001,-20.899 -14.227,-47.344 -12.676,-79.337l6.813,-12.447c0.239,-0.435 0.426,-0.897 0.557,-1.376l51.264,-186.056Z" style="fill:#52abfd;fill-rule:nonzero;"/><path d="M3617.14,2247.35c-2.423,2.839 -4.454,6.017 -6.092,9.532c-1.966,4.215 -3.822,7.327 -5.569,9.336c-4.214,4.87 -8.331,9.379 -12.349,13.528c-0.859,0.902 -1.469,2.008 -1.769,3.211c-0.218,0.939 -0.568,1.823 -1.048,2.653c-4.695,7.971 -11.508,17.918 -20.44,29.841c-6.442,8.626 -12.95,18.693 -19.523,30.201c-9.325,16.313 -15.952,27.134 -19.883,32.462c-5.809,7.862 -9.925,14.009 -12.349,18.442c-0.174,0.326 -0.383,0.623 -0.623,0.884l-16.705,18.966c-1.081,1.211 -1.895,2.627 -2.392,4.16c-1.31,4.171 -4.171,8.583 -8.582,13.234c-1.089,1.155 -2.065,2.405 -2.915,3.734c-22.777,36.01 -37.277,58.121 -43.501,66.332c-15.745,20.746 -29.939,41.688 -42.583,62.827c-4.106,6.901 -3.931,9.215 0.524,6.944c-0.742,1.682 -1.583,2.992 -2.522,3.931l-15.592,19.228c2.074,-6.333 3.516,-12.699 4.324,-19.097c0.043,-0.218 0.098,-0.426 0.163,-0.622c3.298,-10.308 6.879,-19.742 10.744,-28.302c3.298,-7.316 6.497,-16.138 9.598,-26.467c9.849,-32.669 15.079,-50.172 15.69,-52.509c1.616,-6.223 6.322,-17.972 14.118,-35.246c8.059,-17.775 14.228,-37.32 18.508,-58.634c3.701,-18.442 9.892,-38.226 16.542,-52.443c6.486,-13.932 9.838,-22.689 10.056,-26.27c0.064,-1.158 0.437,-2.278 1.081,-3.243c2.708,-4.215 4.422,-7.807 5.143,-10.777c2.555,-10.264 5.274,-19.403 8.156,-27.417c5.438,-15.265 7.207,-32.069 11.17,-45.597c9.456,-32.123 20.648,-63.799 33.575,-95.027c37.343,35.443 59.584,84.283 75.045,132.205Z" style="fill:#52abfd;fill-rule:nonzero;"/><path d="M3720.75,2148.69l27.548,38.423c-4.345,2.817 -9.466,4.881 -15.362,6.191c-0.785,0.175 -1.552,0.416 -2.293,0.721c-14.086,5.94 -28.236,11.683 -42.453,17.23c-4.848,1.878 -10.023,3.188 -15.526,3.93l48.086,-66.495Z" style="fill:#52abfd;fill-rule:nonzero;"/><path d="M4466.45,2171.29l27.875,42.026c-16.968,-4.389 -32.996,-10.711 -48.086,-18.966l20.211,-23.06Z" style="fill:#52abfd;fill-rule:nonzero;"/><path d="M4772.75,2549.73c1.791,3.385 3.625,5.383 5.503,5.994c1.016,0.325 2.12,-0.177 2.522,-1.146c1.267,-3.057 1.835,-6.551 1.704,-10.482l15.723,63.908c0.024,0.097 0.037,0.196 0.037,0.297c-0,0.664 -0.547,1.212 -1.212,1.212c-0.024,-0 -0.047,-0.001 -0.07,-0.002l-2.784,-0.197c-6.421,-7.862 -9.336,-16.378 -16.247,-23.978c-14.457,-15.898 -27.418,-32.909 -38.882,-51.034c2.271,-0.568 4.302,-1.889 6.092,-3.964c9.74,11.902 19.021,24.174 27.843,36.818c0.786,1.114 1.627,1.584 2.523,1.409c1.185,-0.225 2.051,-1.271 2.051,-2.478c-0,-0.26 -0.04,-0.518 -0.119,-0.765c-1.616,-4.87 -3.177,-10.067 -4.684,-15.592Z" style="fill:#52abfd;fill-rule:nonzero;"/></g><g><path d="M3955.77,1282.38c-0.612,5.853 -1.234,12.011 -1.868,18.475c-0.545,5.459 -1.594,11.563 -3.144,18.311c-1.638,7.228 -3.101,16.411 -4.39,27.548c-0.851,7.403 -7.796,7.01 -14.085,7.141c-15.417,0.371 -30.791,1.223 -46.121,2.555c-24.502,2.129 -52.934,2.096 -79.336,2.784c-0.262,-14.915 -0.808,-29.775 -1.638,-44.581c-0.72,-12.928 -0.524,-21.816 0.59,-26.664c2.074,-9.063 4.618,-17.481 7.632,-25.255c1.239,-3.227 4.38,-5.36 7.862,-5.34c29.59,0.197 58.481,0.907 86.673,2.13c5.765,0.24 13.834,3.472 24.207,9.695c7.534,4.521 15.407,8.921 23.618,13.201Z" style="fill:#b67e3c;fill-rule:nonzero;"/><path d="M4176.26,1356.81c-5.852,22.121 -12.152,44.09 -18.9,65.906c-4.291,13.856 -7.862,27.646 -10.679,43.762c-6.333,35.923 -14.718,70.241 -25.157,102.954c-3.843,12.011 -7.108,25.528 -9.794,40.552c-22.231,6.071 -43.926,4.302 -65.087,-5.306c-3.165,-1.446 -5.078,-4.758 -4.75,-8.222c1.027,-10.504 3.221,-20.287 6.584,-29.35c0.218,-0.544 0.372,-1.115 0.459,-1.703l2.096,-14.02c19.021,-25.462 32.91,-51.711 41.667,-78.746c8.822,-27.166 10.624,-54.158 5.404,-80.974c-3.21,-16.597 -7.119,-32.91 -11.726,-48.938c-0.508,-1.802 -2.247,-3.002 -4.128,-2.85l-76.552,6.42l19.523,-54.932c0.341,-0.959 0.969,-1.794 1.802,-2.392c2.424,-1.725 5.383,-2.849 8.877,-3.374c16.684,-2.402 32.156,-2.282 46.416,0.361c13.867,2.555 28.356,5.481 43.468,8.778c5.47,1.18 15.69,0.295 18.769,6.388c12.775,25.419 21.75,44.199 26.926,56.341c0.409,0.958 1.48,1.458 2.456,1.147c0.459,-0.153 1.234,-0.754 2.326,-1.802Z" style="fill:#b67e3c;fill-rule:nonzero;"/><path d="M4372.53,1455.89l-89.13,225.004c-2.534,2.926 -4.215,6.115 -5.045,9.565c-0.939,3.815 -4.199,6.596 -8.025,6.846c-28.411,1.966 -55.239,-2.511 -80.483,-13.43c-9.172,-3.964 -19.785,-12.775 -28.989,-19.031c-0.261,-0.196 -0.537,-0.351 -0.819,-0.459l-10.941,-4.75l1.081,-3.144c0.808,0.546 1.551,0.688 2.228,0.425c0.567,-0.24 1.048,-0.84 1.441,-1.801c7.905,-20.069 13.659,-35.694 17.262,-46.875c5.962,-18.442 16.28,-36.72 22.373,-56.93c6.944,-23.061 10.417,-34.613 10.417,-34.657c4.302,-12.403 9.302,-25.932 15.002,-40.585c3.341,-8.713 5.765,-19.195 9.729,-27.843c9.717,-21.117 17.765,-43.588 24.141,-67.413c0.511,-1.915 2.259,-3.257 4.241,-3.257c0.689,-0 1.368,0.162 1.983,0.473c19.239,9.652 40.301,16.946 63.187,21.881c1.989,0.411 3.872,1.213 5.536,2.359c18.431,12.578 33.368,30.452 44.811,53.622Z" style="fill:#b67e3c;fill-rule:nonzero;"/><path d="M4044.54,1421.17c2.358,30.879 -6.956,57.597 -27.942,80.155c-14.216,15.309 -25.899,27.396 -35.049,36.262c-6.42,6.202 -15.811,12.633 -28.171,19.293c-33.499,17.994 -69.585,31.173 -108.26,39.537c-5.35,1.158 -14.019,-0.109 -26.008,-3.799c-28.215,-8.67 -53.59,-18.803 -76.126,-30.398c-0.703,-0.365 -1.58,-0.102 -1.966,0.589c-0.655,1.179 -0.349,2.697 0.918,4.553c-0.939,12.208 0.535,27.439 4.422,45.696c4.258,20.112 4.433,44.799 0.524,74.062c-0.283,2.263 -0.833,4.484 -1.638,6.617l-28.334,75.733c-0.05,0.135 -0.081,0.276 -0.093,0.419c-0.075,0.877 0.57,1.66 1.43,1.734c0.144,0.012 0.289,0.004 0.431,-0.024l9.205,-1.769c27.45,-5.503 46.077,-10.166 55.883,-13.987c11.377,-4.411 22.165,-10.515 32.363,-18.311c0.397,-0.31 0.887,-0.479 1.391,-0.479c1.24,0 2.26,1.02 2.26,2.26c0,0.241 -0.038,0.48 -0.113,0.709c-7.993,24.894 -16.018,45.334 -31.348,68.657c-12.098,18.409 -22.537,33.554 -31.316,45.433c-0.085,0.132 -0.13,0.287 -0.13,0.444c-0,0.449 0.37,0.819 0.819,0.819c0.125,-0 0.248,-0.029 0.36,-0.084c18.835,-10.22 41.404,-23.322 57.16,-41.731c7.108,-8.353 23.65,-22.537 32.298,-37.867c7.665,-13.561 13.135,-31.97 18.376,-43.959c1.19,-2.692 4.361,-3.955 7.075,-2.817c21.532,9.063 40.323,17.383 56.374,24.961c22.111,10.383 45.007,15.035 68.068,27.417c10.788,5.808 22.853,12.316 36.196,19.522c1.261,0.696 2.418,1.555 3.439,2.556c13.955,13.823 23.465,26.052 28.531,36.687c13.43,28.105 21.128,43.882 23.093,47.333c4.63,8.167 9.227,19.381 13.791,33.641c5.612,17.579 9.215,29.218 10.81,34.918c6.726,24.021 10.099,50.86 10.121,80.515l-0.491,27.319c0,0.149 0.019,0.298 0.056,0.443c0.235,0.922 1.159,1.496 2.047,1.269c0.147,-0.037 0.288,-0.095 0.419,-0.172c0.35,-0.197 0.786,-0.754 1.31,-1.671c1.092,-1.9 10.919,-22.449 29.481,-61.647c11.367,-23.978 22.176,-58.634 30.562,-78.223c5.929,-13.79 17.033,-14.544 26.5,-19.686c6.42,-3.516 11.345,-5.809 14.773,-6.879c5.809,-1.791 17.285,-6.988 34.427,-15.592c13.496,-6.781 20.8,-7.272 33.248,-2.424c27.057,10.514 42.42,17.066 66.889,20.833c14.281,2.205 30.714,7.261 49.298,15.166c1.859,0.779 3.076,2.607 3.076,4.623c-0,0.796 -0.19,1.58 -0.554,2.289c-10.897,21.204 -20.505,41.12 -28.825,59.747c-18.966,42.485 -41.536,77.993 -70.263,112.519c-2.852,3.435 -6.398,6.257 -10.417,8.287c-23.977,12.186 -47.529,19.851 -81.76,31.348c-9.695,3.254 -23.966,7.086 -42.812,11.498c-12.928,3.035 -27.275,6.867 -43.042,11.497c-1.135,0.325 -1.922,1.37 -1.922,2.55c0,0.67 0.254,1.316 0.71,1.807l23.748,25.681c0.467,0.507 0.745,1.155 0.786,1.834c1.769,22.569 -2.26,44.451 -4.618,66.332c-0.104,0.945 -0.669,1.779 -1.507,2.227l-13.725,7.305c-27.614,11.497 -57.258,18.999 -86.018,27.188c-34.875,9.98 -70.449,16.444 -106.721,19.392l-7.599,0.032c-0.006,0 -0.012,0 -0.017,0c-1.6,0 -2.916,-1.316 -2.916,-2.915c0,-0.232 0.028,-0.463 0.083,-0.688c3.013,-13.146 6.791,-25.299 11.333,-36.458c2.708,-6.66 8.932,-17.568 18.672,-32.723c8.494,-13.212 16.509,-26.926 24.043,-41.142c26.161,-8.08 51.973,-19.349 77.436,-33.805c0.242,-0.132 0.393,-0.386 0.393,-0.662c-0,-0.413 -0.34,-0.753 -0.753,-0.753c-0.033,-0 -0.066,0.002 -0.098,0.006l-94.372,10.744l-5.044,-0.262c-0.044,-0 -0.087,-0.004 -0.13,-0.013c-0.406,-0.078 -0.673,-0.491 -0.591,-0.914c0.008,-0.041 0.019,-0.081 0.033,-0.121l0.491,-1.277c0.044,-0.127 0.066,-0.261 0.066,-0.395c0,-0.641 -0.507,-1.176 -1.147,-1.21c-7.665,-0.459 -22.274,-9.139 -30.66,-12.284c-31.337,-11.749 -60.96,-28.858 -88.868,-51.329c-13.954,-11.269 -24.633,-26.042 -37.113,-39.603c-48.152,-52.301 -74.27,-80.843 -78.353,-85.625c-18.148,-21.226 -31.119,-32.822 -45.532,-50.674c-9.783,-12.12 -16.553,-19.938 -20.309,-23.454c-15.33,-14.326 -27.603,-28.214 -36.818,-41.666c-10.515,-15.429 -20.702,-27.352 -33.051,-43.206c-6.355,-8.145 -7.338,-16.171 -2.949,-24.076c7.251,-12.972 12.546,-25.255 15.887,-36.851c5.634,-19.523 15.723,-35.967 21.358,-55.489c7.468,-25.878 21.881,-51.821 28.661,-77.24c3.757,-13.998 9.816,-31.916 18.18,-53.753c4.652,-12.088 8.681,-27.057 12.186,-39.537c2.948,-10.417 7.566,-20.277 11.563,-29.481c0.056,-0.131 0.117,-0.259 0.184,-0.385c1.316,-2.475 4.449,-3.422 6.94,-2.097c0.128,0.068 0.254,0.142 0.377,0.222l10.973,7.075l11.531,12.054c0.109,0.372 0.218,0.634 0.327,0.786l0.033,0c38.816,4.029 69.345,-0.655 112.682,-8.451c48.971,-8.778 91.423,-20.898 136.234,-39.307c26.467,-10.876 47.519,-28.619 63.155,-53.23Z" style="fill:#b67e3c;fill-rule:nonzero;"/><path d="M4532.84,1599.43c-0.284,-0.066 -0.59,-0.262 -0.917,-0.59c-0.434,-0.433 -1.113,-0.503 -1.605,-0.164c-4.586,3.232 -7.873,6.923 -9.86,11.072c-9.587,20.069 -19.163,37.768 -28.728,53.098c-3.581,5.744 -9.237,17.722 -16.967,35.934c-3.767,8.975 -9.893,18.016 -15.33,26.598c-6.159,9.729 -11.007,21.521 -17.46,31.84c-42.059,3.636 -80.941,-14.413 -114.483,-37.67c-1.988,-1.376 -3.931,-3.025 -5.831,-4.946c0.524,-0.437 1.026,-1.212 1.507,-2.326c-0.306,1.572 -0.415,2.391 -0.328,2.457c0.058,0.043 0.118,0.084 0.18,0.122c1.205,0.75 2.822,0.363 3.582,-0.857c0.037,-0.059 0.071,-0.12 0.104,-0.183c8.451,-16.793 17.197,-32.199 26.237,-46.219c4.477,-6.966 9.969,-17.699 16.477,-32.2c5.569,-12.447 11.05,-23.115 16.444,-32.003c14.609,-24.01 22.012,-41.109 35.442,-62.27c2.293,-3.581 7.196,-14.205 14.708,-31.872c1.004,-2.35 3.48,-3.749 6.027,-3.406c19.523,2.587 34.198,6.289 48.414,21.357c11.683,12.338 22.744,26.38 33.182,42.125c5.045,7.621 8.375,15.668 9.991,24.141c0.216,1.057 0.193,2.143 -0.066,3.178l-0.72,2.784Z" style="fill:#b67e3c;fill-rule:nonzero;"/><path d="M3948.24,2316.08l62.728,6.159c1.88,0.203 3.303,1.828 3.243,3.701c-1.463,54.157 -2.304,112.759 -2.522,175.804c-0.35,108.227 -1.3,293.847 -2.85,556.859c-0.295,50.118 -1.146,74.751 -2.62,109.538c-0.525,12.098 -0.339,24.174 0.556,36.229c0,0.109 0.011,0.229 0.033,0.36c0,-3.112 0.655,-6.584 1.605,-9.565l-2.522,62.041c-0.001,0.239 0.187,0.441 0.426,0.458c0.193,0.003 0.361,-0.137 0.393,-0.327c25.746,-238.62 49.517,-464.17 71.311,-676.65c4.717,-45.957 11.235,-96.664 16.411,-138.724c1.048,-8.626 1.845,-28.116 2.391,-58.47l30.922,492.952c0.017,0.275 0.248,0.492 0.524,0.491c0.294,0.002 0.54,-0.215 0.557,-0.491l2.719,-43.566c2.576,-18.868 5.033,-37.572 7.37,-56.112c1.354,-10.548 2.664,-21.947 3.931,-34.198c10.11,-97.701 16.247,-155.942 18.409,-174.723c4.171,-36.163 7.588,-73.047 10.253,-110.651c1.353,-19.283 5.241,-56.09 11.661,-110.422c0.252,-2.058 1.825,-3.724 3.865,-4.094c19.305,-3.407 38.129,-8.441 56.472,-15.101c0.336,-0.123 0.691,-0.186 1.048,-0.186c1.668,-0 3.041,1.368 3.047,3.036c-0,16.269 0.644,36.523 1.932,60.763c0.459,8.669 6.148,81.673 17.066,219.009c1.147,14.512 0.885,29.842 1.081,44.811l-6.977,614.577c-0.039,3.284 -1.878,6.294 -4.782,7.828l-165.912,87.558c-0.804,0.435 -1.664,0.755 -2.555,0.95c-2.423,0.568 -6.977,-0.939 -13.659,-4.52c-44.909,-24.076 -89.851,-46.219 -133.548,-70.197c1.987,-9.259 2.675,-18.671 2.064,-28.236c-1.092,-16.75 -1.638,-25.277 -1.638,-25.583c-0.229,-53.688 -1.671,-111.143 -1.9,-160.867c-1.005,-222.525 -1.747,-352.153 -2.227,-388.884c-0.983,-75.799 -0.907,-130.12 0.229,-162.964c2.467,-71.845 3.265,-123.71 2.391,-155.593c-0.24,-9.259 -1.004,-26.041 -2.293,-50.346c-0.055,-1.049 0.628,-2.006 1.638,-2.293c2.97,-0.83 6.213,-0.95 9.729,-0.361Z" style="fill:#b67e3c;fill-rule:nonzero;"/></g><path d="M4140.78,2264.75c2.97,-0.568 4.455,0.633 4.455,3.603c-0.022,33.128 -0.011,50.696 0.033,52.705c0.589,27.417 -2.85,55.654 -3.767,84.053c-1.267,38.675 -2.304,91.085 -3.112,157.231c-0.099,7.927 -1.409,18.409 -1.671,27.286c-2.293,78.943 -3.909,130.993 -4.848,156.15c-1.223,32.211 -1.332,61.244 -0.327,87.1l-2.719,43.566c-0.017,0.276 -0.263,0.493 -0.557,0.491c-0.276,0.001 -0.507,-0.216 -0.524,-0.491l-30.922,-492.952l-1.605,-40.258c-0.053,-1.238 -1.086,-2.228 -2.326,-2.227l-28.302,-0c-2.126,-0.003 -3.908,1.677 -4.029,3.8l-52.148,850.357c-0.95,2.981 -1.605,6.453 -1.605,9.565c-0.022,-0.131 -0.033,-0.251 -0.033,-0.36c-0.895,-12.055 -1.081,-24.131 -0.556,-36.229c1.474,-34.787 2.325,-59.42 2.62,-109.538c1.55,-263.012 2.5,-448.632 2.85,-556.859c0.218,-63.045 1.059,-121.647 2.522,-175.804c0.06,-1.873 -1.363,-3.498 -3.243,-3.701l-62.728,-6.159l-0.197,-4.749c36.272,-2.948 71.846,-9.412 106.721,-19.392c28.76,-8.189 58.404,-15.691 86.018,-27.188Z" style="fill:#291506;fill-rule:nonzero;"/><g><path d="M4683.46,891.107c1.288,0.152 2.162,0.458 2.62,0.917c0.525,0.524 0.383,1.354 -0.425,2.489c-6.311,8.976 -12.874,17.874 -19.687,26.697l-8.877,9.925l0.721,-2.85c0.018,-0.071 0.027,-0.144 0.027,-0.218c-0,-0.485 -0.399,-0.884 -0.885,-0.884c-0.23,-0 -0.451,0.09 -0.616,0.25c-21.096,21.882 -41.372,44.484 -60.829,67.806c-7.796,9.336 -18.409,18.901 -26.402,28.236c-11.858,13.867 -23.715,27.734 -35.573,41.601c-6.18,7.206 -18.431,20.702 -36.753,40.487c-21.991,23.738 -42.54,49.004 -61.648,75.798l-30.594,-78.615c4.214,-2.315 12.131,-7.894 23.748,-16.739c15.352,-11.705 46.918,-34.47 94.699,-68.297c26.173,-18.507 42.911,-34.722 67.577,-50.739c11.748,-7.644 25.484,-18.311 41.207,-32.004c4.805,-4.171 7.545,-9.128 8.222,-14.871l43.468,-28.989Z" style="fill:#64befc;fill-rule:nonzero;"/><path d="M3763.62,1103.99l-30.005,73.931c-6.769,-9.368 -13.757,-17.83 -20.964,-25.386c-6.835,-7.163 -11.989,-12.808 -15.461,-16.935c-9.892,-11.76 -18.605,-20.244 -27.188,-31.774c-3.668,-4.935 -6.573,-8.32 -8.713,-10.155c-3.69,-3.166 -6.628,-6.332 -8.811,-9.499c-5.962,-8.648 -17.23,-21.914 -26.893,-31.937c-20.178,-20.997 -33.445,-33.347 -48.48,-51.821c-8.429,-10.329 -17.59,-20.397 -27.483,-30.202c-6.704,-6.638 -14.38,-15.253 -23.027,-25.844c-0.11,-0.131 -7.381,-9.118 -21.816,-26.959c-0.27,-0.301 -0.42,-0.691 -0.42,-1.095c-0,-0.899 0.739,-1.638 1.638,-1.638c0.38,0 0.749,0.132 1.042,0.375c18.868,14.172 33.106,24.436 42.714,30.791c11.695,7.697 19.785,18.802 32.757,27.024c31.293,19.85 58.547,39.853 81.76,60.009c14.675,12.775 32.265,20.572 47.562,33.314c8.037,6.704 16.313,13.102 24.83,19.195c0.83,0.59 5.11,3.985 12.84,10.187c4.608,3.691 9.314,6.497 14.118,8.419Z" style="fill:#64befc;fill-rule:nonzero;"/><path d="M3487.82,1834.75c-19.981,8.626 -40.138,16.073 -60.468,22.34c-13.889,4.291 -23.028,9.237 -34.984,12.939c-5.438,1.66 -14.064,5.164 -25.878,10.515c-13.801,6.245 -27.854,11.858 -42.157,16.836l36.687,-17.262c0.85,-0.396 1.295,-1.356 1.048,-2.26c-3.494,-13.016 -10.209,-23.934 -20.145,-32.757c-0.725,-0.628 -1.768,-0.734 -2.588,-0.262l-69.64,40.716c18.562,-13.364 42.714,-28.814 72.457,-46.35c10.22,-6.027 21.991,-14.107 35.312,-24.24c5.918,-4.498 13.637,-9.99 23.158,-16.476c7.796,-5.285 15.407,-10.952 22.832,-17.001l64.366,53.262Z" style="fill:#64befc;fill-rule:nonzero;"/><path d="M4745.11,1781.92c9.39,6.508 18.703,12.808 27.941,18.9c19.162,12.612 35.508,25.616 53.458,38.227c5.001,3.516 9.904,6.541 14.708,9.074c4.848,2.555 9.991,5.186 15.428,7.894c-12.207,-4.193 -21.379,-2.948 -27.515,3.734c-6.923,7.534 -10.864,16.531 -11.825,26.992c-15.811,-6.311 -31.545,-12.71 -47.202,-19.196c-25.387,-10.514 -45.663,-16.509 -68.953,-24.174c-6.42,-2.096 -12.84,-6.191 -19.686,-8.418l63.646,-53.033Z" style="fill:#64befc;fill-rule:nonzero;"/><path d="M3193.76,1947.01c0.808,2.467 2.599,4.16 5.373,5.077l-57.75,19.686c-8.124,3.887 -16.444,6.246 -24.96,7.076l33.411,-25.616l-0.655,1.179c-0.132,0.238 -0.201,0.506 -0.201,0.778c0,0.88 0.725,1.605 1.605,1.605c0.18,-0 0.359,-0.03 0.529,-0.09l18.736,-6.846l-11.268,8.648c-0.098,0.071 -0.169,0.172 -0.202,0.286c-0.084,0.294 0.102,0.609 0.413,0.698c0.114,0.033 0.235,0.032 0.346,-0.001l34.623,-12.48Z" style="fill:#64befc;fill-rule:nonzero;"/></g><g><path d="M3495.25,911.317c10.285,14.26 18.758,25.234 25.419,32.921c31.97,36.774 63.22,74.029 93.749,111.765c1.769,4.083 2.675,7.523 2.718,10.318c0.021,1.766 -1.068,3.366 -2.718,3.996c-10.089,3.8 -18.366,9.347 -24.83,16.64c-0.54,0.608 -1.316,0.956 -2.129,0.956c-0.944,-0 -1.828,-0.469 -2.358,-1.25l-13.398,-19.556c-8.451,-15.985 -16.684,-32.025 -24.698,-48.119c-4.149,-8.299 -6.398,-12.939 -6.748,-13.922c-3.898,-10.482 -9.86,-18.573 -15.395,-28.662c-8.746,-16.018 -15.265,-34.492 -24.601,-47.791c-3.865,-5.482 -6.977,-10.799 -9.335,-15.953c-0.102,-0.22 -0.155,-0.46 -0.155,-0.702c0,-0.917 0.754,-1.671 1.671,-1.671c0.073,0 0.147,0.005 0.22,0.015c0.699,0.087 1.561,0.426 2.588,1.015Z" style="fill:#1a5591;fill-rule:nonzero;"/><path d="M4618.44,1025.28c-11.159,11.923 -18.387,22.001 -21.684,30.234c-10.526,26.271 -21.98,50.74 -34.362,73.407c-0.428,0.771 -1.076,1.408 -1.867,1.835c-4.149,2.205 -6.868,1.987 -8.156,-0.655c-0.368,-0.757 -1.084,-1.275 -1.9,-1.376l-1.278,-0c-1.012,-0.021 -1.964,-0.503 -2.587,-1.31c-10.22,-13.627 -22.078,-29.842 -11.072,-44.353c10.591,-13.932 17.918,-24.119 21.979,-30.561c19.982,-23.782 39.996,-47.541 60.043,-71.278c13.758,-16.269 26.937,-32.964 39.537,-50.085l8.877,-9.925l1.802,-0.688c0.258,-0.098 0.533,-0.148 0.809,-0.148c1.258,0 2.293,1.035 2.293,2.293c0,0.251 -0.041,0.5 -0.122,0.737c-7.108,21.03 -22.765,37.343 -31.184,58.372c-7.403,18.475 -10.908,27.974 -21.128,43.501Z" style="fill:#1a5591;fill-rule:nonzero;"/><path d="M4818.91,1897.68l228.378,81.007c0.213,0.074 0.437,0.111 0.663,0.111c1.114,0 2.031,-0.916 2.031,-2.031c0,-0.136 -0.014,-0.272 -0.041,-0.406c-0.044,-0.284 -0.12,-0.589 -0.229,-0.917c3.516,1.289 5.241,2.555 5.175,3.8c-0.001,0.035 -0.003,0.07 -0.006,0.105c-0.152,2.241 -2.152,3.958 -4.428,3.803c-0.04,-0.003 -0.079,-0.006 -0.119,-0.01l-35.18,-3.472l7.206,-0.754c0.795,-0.104 1.397,-0.789 1.397,-1.591c-0,-0.728 -0.496,-1.37 -1.2,-1.553c-5.864,-1.409 -12.382,-1.573 -17.853,-2.719c-47.475,-10.089 -77.054,-15.887 -88.737,-17.394c-34.307,-4.411 -68.592,-9.259 -102.855,-14.544l-64.334,-10.842c-0.964,-0.165 -1.642,-1.074 -1.539,-2.064c1.703,-13.364 9.139,-21.291 20.243,-28.367c16.313,-10.384 34.263,-4.553 51.428,-2.162Z" style="fill:#1a5591;fill-rule:nonzero;"/><path d="M3367.73,1939.31c-27.843,5.863 -60.501,7.665 -83.988,11.399c-41.622,6.66 -83.146,13.856 -124.572,21.586c-5.46,1.027 -11.389,0.852 -17.787,-0.524l57.75,-19.686l170.235,-59.945c15.046,2.272 29.994,5.034 44.843,8.288c11.334,2.467 21.226,8.353 29.678,17.656c0.277,0.311 0.43,0.714 0.43,1.131c-0,0.701 -0.433,1.333 -1.085,1.587c-23.978,9.172 -50.118,12.415 -75.504,18.508Z" style="fill:#1a5591;fill-rule:nonzero;"/></g><g><path d="M4051.03,1551.38l-2.096,14.02c-0.087,0.588 -0.241,1.159 -0.459,1.703c-3.363,9.063 -5.557,18.846 -6.584,29.35c-0.328,3.464 1.585,6.776 4.75,8.222c21.161,9.608 42.856,11.377 65.087,5.306c-7.534,22.712 -13.343,45.674 -17.426,68.887c-0.4,2.272 -2.272,4.009 -4.554,4.226c-8.887,0.873 -21.815,2.282 -38.783,4.225c-7.37,0.852 -48.152,-0.458 -55.391,-10.973c-7.884,-11.443 -15.483,-21.182 -22.799,-29.219c-5.699,-6.245 -8.604,-11.41 -8.713,-15.494c-0.262,-7.97 1.31,-14.128 4.717,-18.474c1.082,-1.385 2.416,-2.552 3.931,-3.44c28.105,-16.443 54.212,-35.89 78.32,-58.339Z" style="fill:#875323;fill-rule:nonzero;"/><path d="M3727.89,1769.83l-9.205,1.769c-0.142,0.028 -0.287,0.036 -0.431,0.024c-0.86,-0.074 -1.505,-0.857 -1.43,-1.734c0.012,-0.143 0.043,-0.284 0.093,-0.419l28.334,-75.733c0.805,-2.133 1.355,-4.354 1.638,-6.617c3.909,-29.263 3.734,-53.95 -0.524,-74.062c-3.887,-18.257 -5.361,-33.488 -4.422,-45.696c8.942,10.417 16.443,21.947 26.139,30.628c18.475,16.574 39.93,33.149 63.449,42.157c1.831,0.716 3.077,2.438 3.178,4.39c0.305,6.223 -0.088,11.355 -1.179,15.395c-5.11,18.737 -9.434,31.61 -12.972,38.62c-4.062,8.08 -11.399,15.199 -22.012,21.357c-17.885,10.373 -36.393,21.969 -55.523,34.787c-8.287,5.569 -14.576,8.059 -22.11,12.12c-0.522,0.26 -0.853,0.795 -0.853,1.378c-0,0.722 0.508,1.352 1.213,1.505c1.769,0.437 3.975,0.48 6.617,0.131Z" style="fill:#875323;fill-rule:nonzero;"/><path d="M4149.1,1659.64l10.941,4.75c0.282,0.108 0.558,0.263 0.819,0.459c9.204,6.256 19.817,15.067 28.989,19.031c25.244,10.919 52.072,15.396 80.483,13.43c3.826,-0.25 7.086,-3.031 8.025,-6.846c0.83,-3.45 2.511,-6.639 5.045,-9.565c-1.638,7.993 -3.385,13.507 -5.242,16.542c-7.883,12.884 -14.107,26.533 -18.671,40.946c-1.153,3.649 -4.145,6.43 -7.861,7.304c-13.802,3.298 -25.277,6.213 -34.427,8.746c-16.772,4.619 -26.795,4.16 -39.472,-3.963c-0.958,-0.631 -1.837,-1.368 -2.62,-2.195c-13.583,-14.631 -24.393,-26.041 -32.429,-34.23c-5.733,-5.864 -5.798,-10.155 -3.374,-18.082c3.778,-12.425 7.043,-24.534 9.794,-36.327Z" style="fill:#875323;fill-rule:nonzero;"/><path d="M4346.49,2298.49c-6.092,1.267 -11.333,3.287 -15.723,6.06c-1.393,0.866 -2.209,2.424 -2.129,4.062c1.835,35.672 7.239,80.646 9.598,106.36c9.565,103.117 19.817,228.083 31.905,345.22c6.201,60.119 9.488,94.382 9.859,102.79c0.372,8.604 6.683,72.959 18.933,193.066c2.119,20.768 5.504,58.492 10.155,113.174c0.59,6.966 1.976,15.701 4.16,26.205l-91.554,50.51c-0.486,0.27 -1.033,0.411 -1.589,0.411c-1.358,0 -2.581,-0.844 -3.063,-2.114c-0.895,-2.293 -1.397,-4.575 -1.506,-6.846c-3.101,-62.194 -7.742,-126.156 -13.922,-191.887c-2.686,-28.859 -3.865,-66.168 -6.387,-91.718c-5.766,-58.569 -9.795,-92.308 -12.874,-140.951c-3.21,-51.297 -7.697,-104.701 -13.463,-160.212c-0.021,-0.218 -0.032,-0.426 -0.032,-0.622l-0,0.032c0.153,1.354 -0.241,2.348 -1.18,2.981c-0.196,-14.969 0.066,-30.299 -1.081,-44.811c-10.918,-137.336 -16.607,-210.34 -17.066,-219.009c-1.288,-24.24 -1.932,-44.494 -1.932,-60.763c-0.006,-1.668 -1.379,-3.036 -3.047,-3.036c-0.357,-0 -0.712,0.063 -1.048,0.186c-18.343,6.66 -37.167,11.694 -56.472,15.101c-2.04,0.37 -3.613,2.036 -3.865,4.094c-6.42,54.332 -10.308,91.139 -11.661,110.422c-2.665,37.604 -6.082,74.488 -10.253,110.651c-2.162,18.781 -8.299,77.022 -18.409,174.723c-1.267,12.251 -2.577,23.65 -3.931,34.198c-2.337,18.54 -4.794,37.244 -7.37,56.112c-1.005,-25.856 -0.896,-54.889 0.327,-87.1c0.939,-25.157 2.555,-77.207 4.848,-156.15c0.262,-8.877 1.572,-19.359 1.671,-27.286c0.808,-66.146 1.845,-118.556 3.112,-157.231c0.917,-28.399 4.356,-56.636 3.767,-84.053c-0.044,-2.009 -0.055,-19.577 -0.033,-52.705c-0,-2.97 -1.485,-4.171 -4.455,-3.603l13.725,-7.305c0.838,-0.448 1.403,-1.282 1.507,-2.227c2.358,-21.881 6.387,-43.763 4.618,-66.332c-0.041,-0.679 -0.319,-1.327 -0.786,-1.834l-23.748,-25.681c-0.456,-0.491 -0.71,-1.137 -0.71,-1.807c0,-1.18 0.787,-2.225 1.922,-2.55c15.767,-4.63 30.114,-8.462 43.042,-11.497c18.846,-4.412 33.117,-8.244 42.812,-11.498c34.231,-11.497 57.783,-19.162 81.76,-31.348c4.019,-2.03 7.565,-4.852 10.417,-8.287c28.727,-34.526 51.297,-70.034 70.263,-112.519c8.32,-18.627 17.928,-38.543 28.825,-59.747c0.364,-0.709 0.554,-1.493 0.554,-2.289c-0,-2.016 -1.217,-3.844 -3.076,-4.623c-18.584,-7.905 -35.017,-12.961 -49.298,-15.166c-24.469,-3.767 -39.832,-10.319 -66.889,-20.833c-12.448,-4.848 -19.752,-4.357 -33.248,2.424c-17.142,8.604 -28.618,13.801 -34.427,15.592c-3.428,1.07 -8.353,3.363 -14.773,6.879c-9.467,5.142 -20.571,5.896 -26.5,19.686c-8.386,19.589 -19.195,54.245 -30.562,78.223c-18.562,39.198 -28.389,59.747 -29.481,61.647c-0.524,0.917 -0.96,1.474 -1.31,1.671c-0.131,0.077 -0.272,0.135 -0.419,0.172c-0.888,0.227 -1.812,-0.347 -2.047,-1.269c-0.037,-0.145 -0.056,-0.294 -0.056,-0.443l0.491,-27.319c1.66,3.778 1.977,7.916 0.95,12.415c-0.011,0.033 -0.016,0.067 -0.016,0.102c-0,0.161 0.119,0.3 0.278,0.324l1.9,0.295c0.033,0.005 0.066,0.007 0.098,0.007c0.342,0 0.623,-0.28 0.623,-0.622c-0,-0.002 -0,-0.005 -0,-0.008c0.043,-3.341 0.95,-6.191 2.719,-8.549c0.812,-1.091 1.301,-2.385 1.408,-3.734c1.867,-20.244 6.322,-39.472 7.043,-59.224c0.371,-10.307 0.873,-17.961 1.507,-22.962c2.129,-16.706 5.339,-30.922 1.441,-47.792c-5.765,-24.764 -8.713,-44.319 -17.23,-63.94c-0.208,-0.476 -0.315,-0.99 -0.315,-1.509c-0,-2.025 1.632,-3.706 3.656,-3.765c17.689,-0.503 32.473,-1.813 44.352,-3.931c37.375,-6.682 57.259,-12.448 78.681,-11.465c1.343,0.065 2.664,0.376 3.898,0.917c12.972,5.7 24.175,10.712 39.21,14.774c27.057,7.337 51.962,17.994 74.717,31.97c14.97,9.172 35.082,-13.725 48.873,-20.276c17.131,-8.157 36.359,-15.527 50.15,-29.121c4.498,-4.455 9.226,-11.093 14.183,-19.916c14.086,-25.058 22.635,-39.537 29.547,-63.351c4.127,-14.183 11.596,-27.941 17.295,-37.932c0.338,-0.622 0.991,-1.012 1.699,-1.012c0.936,0 1.744,0.68 1.904,1.602c4.324,22.58 6.049,43.271 5.176,62.073c-0.753,15.691 -6.519,30.562 -9.237,45.859c-2.817,15.92 -10.057,34.264 -16.313,52.771c-6.846,20.145 -10.089,40.683 -16.87,60.763c-3.297,9.74 -6.999,22.831 -11.104,39.275c-10.853,43.37 -21.445,80.974 -31.774,112.813c-2.38,7.338 -6.693,14.26 -12.939,20.768c-11.17,11.563 -21.029,22.012 -30.398,35.835c-7.206,10.592 -12.12,17.973 -14.74,22.144c-9.27,14.806 -20.637,24.862 -32.756,39.864c-1.517,1.88 -3.557,3.27 -5.864,3.997c-26.554,8.364 -51.078,13.364 -73.571,15.002c-7.73,0.546 -32.614,2.086 -74.652,4.619c-0.61,0.025 -1.098,0.534 -1.098,1.145c-0,0.309 0.124,0.605 0.345,0.82c0.983,0.939 2.861,2.075 5.634,3.407c37.976,18.191 77.862,27.45 119.659,27.777c6.879,0.044 10.624,3.614 11.236,10.712c1.113,13.255 2.38,26.281 3.799,39.078Z" style="fill:#875323;fill-rule:nonzero;"/><path d="M4321.66,1714.6c1.9,1.921 3.843,3.57 5.831,4.946c33.542,23.257 72.424,41.306 114.483,37.67c-3.504,16.05 -11.595,23.552 -26.762,31.249c-12.076,6.137 -23.278,12.994 -33.608,20.571c-3.21,2.337 -7.359,2.588 -12.447,0.754c-10.329,-3.756 -21.63,-8.32 -33.903,-13.692c-17.132,-7.502 -22.93,-27.942 -24.043,-44.942c-0.109,-1.732 0.102,-3.475 0.622,-5.143l9.827,-31.413Z" style="fill:#875323;fill-rule:nonzero;"/><path d="M3991.64,2197.43c-7.534,14.216 -15.549,27.93 -24.043,41.142c-9.74,15.155 -15.964,26.063 -18.672,32.723c-4.542,11.159 -8.32,23.312 -11.333,36.458c-0.055,0.225 -0.083,0.456 -0.083,0.688c0,1.599 1.316,2.915 2.916,2.915c0.005,0 0.011,0 0.017,0l7.599,-0.032l0.197,4.749c-3.516,-0.589 -6.759,-0.469 -9.729,0.361c-1.01,0.287 -1.693,1.244 -1.638,2.293c1.289,24.305 2.053,41.087 2.293,50.346c0.874,31.883 0.076,83.748 -2.391,155.593c-1.136,32.844 -1.212,87.165 -0.229,162.964c0.48,36.731 1.222,166.359 2.227,388.884c0.229,49.724 1.671,107.179 1.9,160.867c-0,0.306 0.546,8.833 1.638,25.583c0.611,9.565 -0.077,18.977 -2.064,28.236l-134.596,-69.378c19.435,-192.215 37.91,-383.84 55.424,-574.876c4.258,-46.547 11.727,-103.707 15.264,-145.013c7.643,-88.704 12.131,-138.734 13.463,-150.09c4.739,-40.443 7.13,-64.759 7.174,-72.948c0.098,-14.085 4.324,-35.672 4.356,-52.836c0,-3.887 -2.904,-5.405 -8.713,-4.554c10.089,-1.201 20.113,-2.533 30.071,-3.996c10.067,-1.463 19.894,-3.701 29.48,-6.715c13.103,-4.149 26.26,-8.604 39.472,-13.364Z" style="fill:#875323;fill-rule:nonzero;"/></g><g><path d="M3955.77,1282.38c-8.211,-4.28 -16.084,-8.68 -23.618,-13.201c-10.373,-6.223 -18.442,-9.455 -24.207,-9.695c-28.192,-1.223 -57.083,-1.933 -86.673,-2.13c-3.482,-0.02 -6.623,2.113 -7.862,5.34c-3.014,7.774 -5.558,16.192 -7.632,25.255c-1.114,4.848 -1.31,13.736 -0.59,26.664c0.83,14.806 1.376,29.666 1.638,44.581l-49.855,1.638c-0.024,0.001 -0.047,0.001 -0.07,0.002c-1.905,0.033 -3.499,-1.521 -3.533,-3.444c-0,-0.021 -0,-0.042 -0,-0.063l-0,-45.826c-0.001,-2.018 0.667,-3.977 1.899,-5.569c20.921,-26.904 38.653,-52.17 53.197,-75.798c1.255,-2.02 3.39,-3.342 5.765,-3.571l97.942,-8.516c3.228,-0.292 6.425,0.805 8.778,3.013l36.196,33.87c2.355,2.192 3.378,5.486 2.686,8.648l-4.061,18.802Z" style="fill:#edb466;fill-rule:nonzero;"/><path d="M4176.26,1356.81c-1.092,1.048 -1.867,1.649 -2.326,1.802c-0.976,0.311 -2.047,-0.189 -2.456,-1.147c-5.176,-12.142 -14.151,-30.922 -26.926,-56.341c-3.079,-6.093 -13.299,-5.208 -18.769,-6.388c-15.112,-3.297 -29.601,-6.223 -43.468,-8.778c-14.26,-2.643 -29.732,-2.763 -46.416,-0.361c-3.494,0.525 -6.453,1.649 -8.877,3.374c-0.833,0.598 -1.461,1.433 -1.802,2.392l-19.523,54.932c-4.935,0.699 -7.861,0.175 -8.778,-1.572c-0.106,-0.211 -0.14,-0.442 -0.099,-0.655l12.251,-75.7c0.307,-1.838 1.518,-3.395 3.21,-4.128l46.023,-20.276c2.89,-1.275 6.136,-1.563 9.238,-0.819l87.164,21.128c3.547,0.864 6.493,3.325 7.96,6.65l19.556,44.45c1.467,3.295 1.823,6.986 1.015,10.515l-6.977,30.922Z" style="fill:#edb466;fill-rule:nonzero;"/><path d="M4372.53,1455.89c-11.443,-23.17 -26.38,-41.044 -44.811,-53.622c-1.664,-1.146 -3.547,-1.948 -5.536,-2.359c-22.886,-4.935 -43.948,-12.229 -63.187,-21.881c-0.615,-0.311 -1.294,-0.473 -1.983,-0.473c-1.982,-0 -3.73,1.342 -4.241,3.257c-6.376,23.825 -14.424,46.296 -24.141,67.413c-3.964,8.648 -6.388,19.13 -9.729,27.843c-5.7,14.653 -10.7,28.182 -15.002,40.585c-0,0.044 -3.473,11.596 -10.417,34.657c-6.093,20.21 -16.411,38.488 -22.373,56.93c-3.603,11.181 -9.357,26.806 -17.262,46.875c-0.393,0.961 -0.874,1.561 -1.441,1.801c-0.677,0.263 -1.42,0.121 -2.228,-0.425l73.997,-294.677c0.621,-2.511 2.601,-4.465 5.11,-5.045l43.369,-10.285c2.761,-0.638 5.642,-0.349 8.19,0.819c5.896,2.729 29.6,11.967 71.114,27.712c3.931,1.506 6.78,4.389 8.549,8.647c3.953,9.631 10.166,25.397 18.639,47.301c0.388,1.013 0.545,2.088 0.458,3.144c-0.48,6.005 -2.839,13.266 -7.075,21.783Z" style="fill:#edb466;fill-rule:nonzero;"/><path d="M4045.04,1411.77l-0.491,9.401c-15.636,24.611 -36.688,42.354 -63.155,53.23c-44.811,18.409 -87.263,30.529 -136.234,39.307c-43.337,7.796 -73.866,12.48 -112.682,8.451l-0.033,0c-0.109,-0.152 -0.218,-0.414 -0.327,-0.786c0.327,-0.043 0.644,-0.098 0.95,-0.163c0.582,-0.1 1.028,-0.572 1.08,-1.147c0.328,-3.691 0.088,-6.639 -0.72,-8.844c-7.163,-19.589 -12.459,-36.305 -15.887,-50.15c-0.094,-0.386 -0.142,-0.782 -0.142,-1.18c0,-2.711 2.214,-4.949 4.924,-4.979c10.679,-0.098 19.687,0.164 28.335,-0.818c80.864,-9.216 147.862,-17.787 200.993,-25.714c19.261,-2.883 44.363,-9.227 75.307,-19.032c1.503,-0.479 2.952,-1.116 4.324,-1.9c3.057,-1.747 6.901,-3.199 11.53,-4.356c0.142,-0.035 0.287,-0.053 0.433,-0.053c0.848,0 1.586,0.599 1.762,1.429c0.459,2.249 0.47,4.684 0.033,7.304Z" style="fill:#edb466;fill-rule:nonzero;"/><path d="M3672.56,1444.59c3.494,6.224 9.576,13.954 18.246,23.192c7.687,8.167 17.612,22.012 29.775,41.535l-10.973,-7.075c-0.123,-0.08 -0.249,-0.154 -0.377,-0.222c-2.491,-1.325 -5.624,-0.378 -6.94,2.097c-0.067,0.126 -0.128,0.254 -0.184,0.385c-3.997,9.204 -8.615,19.064 -11.563,29.481c-3.505,12.48 -7.534,27.449 -12.186,39.537c-8.364,21.837 -14.423,39.755 -18.18,53.753c-6.78,25.419 -21.193,51.362 -28.661,77.24c-5.635,19.522 -15.724,35.966 -21.358,55.489c-3.341,11.596 -8.636,23.879 -15.887,36.851c-4.389,7.905 -3.406,15.931 2.949,24.076c12.349,15.854 22.536,27.777 33.051,43.206c9.215,13.452 21.488,27.34 36.818,41.666c3.756,3.516 10.526,11.334 20.309,23.454c14.413,17.852 27.384,29.448 45.532,50.674c4.083,4.782 30.201,33.324 78.353,85.625c12.48,13.561 23.159,28.334 37.113,39.603c27.908,22.471 57.531,39.58 88.868,51.329c8.386,3.145 22.995,11.825 30.66,12.284c0.64,0.034 1.147,0.569 1.147,1.21c0,0.134 -0.022,0.268 -0.066,0.395l-0.491,1.277c-0.014,0.04 -0.025,0.08 -0.033,0.121c-0.082,0.423 0.185,0.836 0.591,0.914c0.043,0.009 0.086,0.013 0.13,0.013l5.044,0.262c-33.608,0.503 -66.867,-2.642 -99.776,-9.433c-19.949,-4.128 -39.046,-7.731 -59.06,-14.577c-8.353,-2.883 -10.416,-3.865 -15.461,-10.81c-18.605,-25.724 -43.904,-62.084 -75.896,-109.079c-21.128,-30.987 -49.495,-66.954 -68.822,-96.598c-20.986,-32.167 -33.499,-51.002 -37.539,-56.505c-15.887,-21.718 -30.365,-46.351 -46.71,-68.723c-0.624,-0.839 -1.04,-1.816 -1.212,-2.85c-0.437,-2.533 -0.011,-6.071 1.277,-10.613c13.671,-48.611 25.681,-90.364 36.032,-125.261c7.796,-26.238 13.267,-57.193 20.932,-79.925c8.418,-25.092 13.561,-48.12 20.505,-69.444c6.399,-19.741 12.36,-42.212 17.885,-67.413c0.568,-2.511 2.621,-4.892 6.158,-7.141Z" style="fill:#edb466;fill-rule:nonzero;"/><path d="M4532.84,1599.43l0.72,-2.784c0.259,-1.035 0.282,-2.121 0.066,-3.178c-1.616,-8.473 -4.946,-16.52 -9.991,-24.141c-10.438,-15.745 -21.499,-29.787 -33.182,-42.125c-14.216,-15.068 -28.891,-18.77 -48.414,-21.357c-2.547,-0.343 -5.023,1.056 -6.027,3.406c-7.512,17.667 -12.415,28.291 -14.708,31.872c-13.43,21.161 -20.833,38.26 -35.442,62.27c-5.394,8.888 -10.875,19.556 -16.444,32.003c-6.508,14.501 -12,25.234 -16.477,32.2c-9.04,14.02 -17.786,29.426 -26.237,46.219c-0.033,0.063 -0.067,0.124 -0.104,0.183c-0.76,1.22 -2.377,1.607 -3.582,0.857c-0.062,-0.038 -0.122,-0.079 -0.18,-0.122c-0.087,-0.066 0.022,-0.885 0.328,-2.457l95.976,-240.826c0.746,-1.845 2.461,-3.115 4.422,-3.275l22.275,-1.966c1.052,-0.086 2.111,0.094 3.079,0.525l50.183,21.848c2.098,0.912 3.831,2.517 4.913,4.553c14.26,26.751 27.002,54.016 38.227,81.793c0.924,2.256 1.251,4.727 0.95,7.174c-1.332,10.788 -2.719,21.848 -4.16,33.182c-0.306,2.533 -0.983,4.63 -2.031,6.289c-0.089,0.136 -0.207,0.251 -0.346,0.336c-0.506,0.311 -1.169,0.164 -1.47,-0.326c-0.087,-0.141 -0.138,-0.302 -0.149,-0.468l-2.195,-21.685Z" style="fill:#edb466;fill-rule:nonzero;"/><path d="M3892.62,2221.51c5.809,-0.851 8.713,0.667 8.713,4.554c-0.032,17.164 -4.258,38.751 -4.356,52.836c-0.044,8.189 -2.435,32.505 -7.174,72.948c-1.332,11.356 -5.82,61.386 -13.463,150.09c-3.537,41.306 -11.006,98.466 -15.264,145.013c-17.514,191.036 -35.989,382.661 -55.424,574.876l-91.817,-49.2c-2.231,-1.204 -3.508,-3.654 -3.21,-6.159c3.451,-29.349 6.65,-53.316 9.598,-71.9c5.197,-32.757 8.713,-56.614 10.548,-71.573c2.991,-24.633 24.72,-188.076 65.185,-490.331c5.208,-38.915 8.222,-78.386 14.314,-117.53c5.722,-36.666 10.821,-79.052 15.298,-127.161c1.572,-16.902 5.601,-40.388 8.713,-60.239c0.213,-1.396 1.392,-2.466 2.817,-2.555l55.522,-3.669Z" style="fill:#edb466;fill-rule:nonzero;"/><path d="M4346.49,2298.49c3.385,21.488 6.224,42.9 8.517,64.236c7.862,72.915 16.498,145.733 25.91,218.452c1.081,8.288 3.473,18.508 4.586,27.679c1.529,12.47 4.619,39.548 9.27,81.236c1.573,13.856 4.75,30.89 6.322,43.73c5.547,45.51 11.596,89.753 18.147,132.729c2.839,18.628 5.318,36.415 7.436,53.361c0.612,4.891 2.763,22.754 6.453,53.589c0.371,3.167 0.601,5.056 0.688,5.667c5.984,47.344 11.105,83.059 15.363,107.146c4.848,27.516 8.451,54.802 10.809,81.859c0.196,2.189 -0.966,4.278 -2.915,5.241l-43.828,22.012c-2.184,-10.504 -3.57,-19.239 -4.16,-26.205c-4.651,-54.682 -8.036,-92.406 -10.155,-113.174c-12.25,-120.107 -18.561,-184.462 -18.933,-193.066c-0.371,-8.408 -3.658,-42.671 -9.859,-102.79c-12.088,-117.137 -22.34,-242.103 -31.905,-345.22c-2.359,-25.714 -7.763,-70.688 -9.598,-106.36c-0.08,-1.638 0.736,-3.196 2.129,-4.062c4.39,-2.773 9.631,-4.793 15.723,-6.06Z" style="fill:#edb466;fill-rule:nonzero;"/><path d="M4096.82,2383.49c-0.546,30.354 -1.343,49.844 -2.391,58.47c-5.176,42.06 -11.694,92.767 -16.411,138.724c-21.794,212.48 -45.565,438.03 -71.311,676.65c-0.032,0.19 -0.2,0.33 -0.393,0.327c-0.239,-0.017 -0.427,-0.219 -0.426,-0.458l2.522,-62.041l52.148,-850.357c0.121,-2.123 1.903,-3.803 4.029,-3.8l28.302,-0c1.24,-0.001 2.273,0.989 2.326,2.227l1.605,40.258Z" style="fill:#edb466;fill-rule:nonzero;"/></g><g><path d="M4540.38,1193.22c-2.49,-0.458 -4.269,-1.277 -5.339,-2.456c-0.74,-0.815 -0.861,-2.021 -0.295,-2.949c13.823,-22.405 22.078,-40.749 32.789,-61.483c5.285,-10.264 10.613,-21.227 15.985,-32.888c10.635,-23.148 22.274,-45.87 34.918,-68.166c10.22,-15.527 13.725,-25.026 21.128,-43.501c8.419,-21.029 24.076,-37.342 31.184,-58.372c0.081,-0.237 0.122,-0.486 0.122,-0.737c0,-1.258 -1.035,-2.293 -2.293,-2.293c-0.276,0 -0.551,0.05 -0.809,0.148l-1.802,0.688c6.813,-8.823 13.376,-17.721 19.687,-26.697c0.808,-1.135 0.95,-1.965 0.425,-2.489c-0.458,-0.459 -1.332,-0.765 -2.62,-0.917c2.337,-4.259 5.852,-6.923 10.548,-7.993c0.12,-0.027 0.243,-0.041 0.367,-0.041c0.858,0 1.584,0.661 1.663,1.515c0.59,5.722 -0.425,10.548 -3.046,14.478c-3.035,4.564 -5.121,8.2 -6.256,10.908c-7.01,16.673 -16.837,32.003 -22.439,48.185c-4.356,12.644 -5.961,19.261 -10.776,28.302c-7.862,14.784 -14.293,29.677 -19.294,44.679c-5.208,15.658 -11.039,27.745 -16.608,43.01c-2.03,5.525 -4.629,11.082 -7.796,16.673c-8.145,14.281 -16.367,31.479 -24.665,51.591c-3.079,7.468 -5.46,12.578 -7.141,15.33c-0.066,0.131 -0.12,0.262 -0.164,0.393l-11.006,34.231c-0.769,2.416 -3.187,3.944 -5.7,3.603l-20.767,-2.752Z" style="fill:#2d7fca;fill-rule:nonzero;"/><path d="M3483.92,892.057c-0.459,0.021 -0.852,0.054 -1.179,0.098c-0.919,0.145 -1.603,0.946 -1.603,1.876c-0,0.453 0.162,0.892 0.456,1.236l13.66,16.05c-1.027,-0.589 -1.889,-0.928 -2.588,-1.015c-0.073,-0.01 -0.147,-0.015 -0.22,-0.015c-0.917,0 -1.671,0.754 -1.671,1.671c0,0.242 0.053,0.482 0.155,0.702c2.358,5.154 5.47,10.471 9.335,15.953c9.336,13.299 15.855,31.773 24.601,47.791c5.535,10.089 11.497,18.18 15.395,28.662c0.35,0.983 2.599,5.623 6.748,13.922c8.014,16.094 16.247,32.134 24.698,48.119c5.023,9.914 9.936,19.916 14.741,30.005c4.367,9.172 9.532,19.02 15.493,29.546c12.208,21.554 23.17,43.621 32.888,66.201l-25.288,3.046c-3.152,0.388 -6.142,-1.62 -6.977,-4.684c-3.505,-12.906 -10.122,-24.665 -14.02,-36.36c-3.625,-10.94 -6.213,-17.874 -7.763,-20.8c-10.875,-20.636 -17.536,-34.187 -19.982,-40.651c-12.403,-32.778 -21.28,-54.474 -26.631,-65.087c-14.38,-28.465 -24.305,-55.915 -39.078,-87.099c-0.764,-1.616 -7.807,-18.901 -21.128,-51.854c-0.06,-0.153 -0.097,-0.315 -0.11,-0.48c-0.069,-0.896 0.597,-1.689 1.475,-1.757c0.168,-0.012 0.338,0.002 0.502,0.043c2.817,0.655 5.514,2.282 8.091,4.881Z" style="fill:#2d7fca;fill-rule:nonzero;"/><path d="M4813.11,1941.11c34.263,5.285 68.548,10.133 102.855,14.544c11.683,1.507 41.262,7.305 88.737,17.394c5.471,1.146 11.989,1.31 17.853,2.719c0.704,0.183 1.2,0.825 1.2,1.553c-0,0.802 -0.602,1.487 -1.397,1.591l-7.206,0.754c-19.261,-1.857 -38.544,-3.429 -57.848,-4.717c-40.815,-2.719 -72.949,-7.141 -110.881,-9.696c-3.887,-0.262 -33.379,-3.407 -88.475,-9.434c-19.85,-2.184 -39.843,-3.177 -59.977,-2.981c-2.741,0.041 -5.213,-1.714 -6.093,-4.324l-6.42,-18.867l0.688,-8.026c0.062,-0.869 0.795,-1.551 1.666,-1.551c0.067,-0 0.134,0.004 0.201,0.012c6.944,0.786 13.692,1.605 20.669,3.505c34.22,9.171 69.029,15.013 104.428,17.524Z" style="fill:#2d7fca;fill-rule:nonzero;"/><path d="M3482.9,1931.29c-1.769,5.001 -3.44,10.253 -5.012,15.756c-1.092,3.866 -4.826,5.885 -11.203,6.06c-26.183,0.677 -47.726,2.162 -64.628,4.455c-12.339,1.682 -24.371,2.784 -36.098,3.308c-14.937,0.656 -33.379,5.045 -48.086,5.929c-7.796,0.481 -20.746,1.409 -38.85,2.785c-14.128,1.07 -25.44,2.074 -33.935,3.013c-11.771,1.289 -23.159,2.173 -34.165,2.654c-27.188,1.179 -54.933,4.585 -84.02,7.599c-3.211,0.328 -7.305,0.328 -12.284,0c-0.646,-0.049 -1.151,-0.594 -1.151,-1.241c0,-0.17 0.035,-0.339 0.103,-0.495c0.742,-1.66 1.692,-2.413 2.85,-2.26c8.516,-0.83 16.836,-3.189 24.96,-7.076c6.398,1.376 12.327,1.551 17.787,0.524c41.426,-7.73 82.95,-14.926 124.572,-21.586c23.487,-3.734 56.145,-5.536 83.988,-11.399c20.746,-2.184 44.854,-6.442 72.326,-12.775c10.722,-2.49 24.185,-4.248 40.389,-5.274c0.923,-0.056 1.732,0.65 1.801,1.572l0.656,8.451Z" style="fill:#2d7fca;fill-rule:nonzero;"/></g><g><path d="M3483.92,892.057l287.864,185.041c1.762,1.126 2.436,3.401 1.572,5.306l-9.729,21.587c-4.804,-1.922 -9.51,-4.728 -14.118,-8.419c-7.73,-6.202 -12.01,-9.597 -12.84,-10.187c-8.517,-6.093 -16.793,-12.491 -24.83,-19.195c-15.297,-12.742 -32.887,-20.539 -47.562,-33.314c-23.213,-20.156 -50.467,-40.159 -81.76,-60.009c-12.972,-8.222 -21.062,-19.327 -32.757,-27.024c-9.608,-6.355 -23.846,-16.619 -42.714,-30.791c-0.293,-0.243 -0.662,-0.375 -1.042,-0.375c-0.899,0 -1.638,0.739 -1.638,1.638c-0,0.404 0.15,0.794 0.42,1.095c14.435,17.841 21.706,26.828 21.816,26.959c8.647,10.591 16.323,19.206 23.027,25.844c9.893,9.805 19.054,19.873 27.483,30.202c15.035,18.474 28.302,30.824 48.48,51.821c9.663,10.023 20.931,23.289 26.893,31.937c2.183,3.167 5.121,6.333 8.811,9.499c2.14,1.835 5.045,5.22 8.713,10.155c8.583,11.53 17.296,20.014 27.188,31.774c3.472,4.127 8.626,9.772 15.461,16.935c7.207,7.556 14.195,16.018 20.964,25.386c-0.808,1.157 -1.965,3.134 -3.472,5.929c-0.786,1.463 -2.38,2.173 -4.782,2.129l-110.946,-129.977c-30.529,-37.736 -61.779,-74.991 -93.749,-111.765c-6.661,-7.687 -15.134,-18.661 -25.419,-32.921l-13.66,-16.05c-0.294,-0.344 -0.456,-0.783 -0.456,-1.236c-0,-0.93 0.684,-1.731 1.603,-1.876c0.327,-0.044 0.72,-0.077 1.179,-0.098Z" style="fill:#9ee1fd;fill-rule:nonzero;"/><path d="M4639.99,920.096c-0.677,5.743 -3.417,10.7 -8.222,14.871c-15.723,13.693 -29.459,24.36 -41.207,32.004c-24.666,16.017 -41.404,32.232 -67.577,50.739c-47.781,33.827 -79.347,56.592 -94.699,68.297c-11.617,8.845 -19.534,14.424 -23.748,16.739l-9.27,-20.538c-0.913,-2.026 -0.213,-4.434 1.638,-5.634l243.085,-156.478Z" style="fill:#9ee1fd;fill-rule:nonzero;"/><path d="M4657.09,931.135c-12.6,17.121 -25.779,33.816 -39.537,50.085c-20.047,23.737 -40.061,47.496 -60.043,71.278l-112.321,131.975c-5.416,1.289 -8.768,0.251 -10.057,-3.112c19.108,-26.794 39.657,-52.06 61.648,-75.798c18.322,-19.785 30.573,-33.281 36.753,-40.487c11.858,-13.867 23.715,-27.734 35.573,-41.601c7.993,-9.335 18.606,-18.9 26.402,-28.236c19.457,-23.322 39.733,-45.924 60.829,-67.806c0.165,-0.16 0.386,-0.25 0.616,-0.25c0.486,-0 0.885,0.399 0.885,0.884c-0,0.074 -0.009,0.147 -0.027,0.218l-0.721,2.85Z" style="fill:#9ee1fd;fill-rule:nonzero;"/><path d="M3423.45,1781.49c-7.425,6.049 -15.036,11.716 -22.832,17.001c-9.521,6.486 -17.24,11.978 -23.158,16.476c-13.321,10.133 -25.092,18.213 -35.312,24.24c-29.743,17.536 -53.895,32.986 -72.457,46.35c-32.516,22.821 -65.797,44.254 -99.842,64.301l-18.736,6.846c-0.17,0.06 -0.349,0.09 -0.529,0.09c-0.88,-0 -1.605,-0.725 -1.605,-1.605c0,-0.272 0.069,-0.54 0.201,-0.778l0.655,-1.179c23.672,-18.736 47.672,-37.102 71.999,-55.096c34.7,-25.659 67.576,-50.805 98.629,-75.438c23.192,-18.377 50.347,-35.836 71.606,-54.016c2.577,-2.205 5.143,-3.657 7.698,-4.356c1.431,-0.409 2.979,-0.077 4.127,0.884l19.556,16.28Z" style="fill:#9ee1fd;fill-rule:nonzero;"/><path d="M5049.71,1975.44c0.109,0.328 0.185,0.633 0.229,0.917c0.027,0.134 0.041,0.27 0.041,0.406c0,1.115 -0.917,2.031 -2.031,2.031c-0.226,0 -0.45,-0.037 -0.663,-0.111l-228.378,-81.007c-53.917,-17.645 -102.834,-34.7 -146.749,-51.165c-0.764,-0.284 -1.092,-1.114 -0.983,-2.49l10.286,-9.073c6.846,2.227 13.266,6.322 19.686,8.418c23.29,7.665 43.566,13.66 68.953,24.174c15.657,6.486 31.391,12.885 47.202,19.196c27.253,11.486 54.9,22.023 82.939,31.61c21.554,7.337 39.472,15.69 55.719,22.274c1.526,0.611 3.092,1.125 4.684,1.54c9.543,2.489 16.258,4.815 20.145,6.977c5.722,3.21 11.771,5.306 18.147,6.289c0.13,0.023 0.262,0.034 0.394,0.034c1.24,0 2.26,-1.02 2.26,-2.26c0,-0.813 -0.439,-1.566 -1.147,-1.967c-20.964,-12.426 -41.939,-25.681 -62.925,-39.766c-9.696,-6.519 -22.406,-17.263 -33.051,-23.716c-16.859,-10.198 -32.8,-20.778 -47.825,-31.741c-5.437,-2.708 -10.58,-5.339 -15.428,-7.894c-4.804,-2.533 -9.707,-5.558 -14.708,-9.074c-17.95,-12.611 -34.296,-25.615 -53.458,-38.227c-9.238,-6.092 -18.551,-12.392 -27.941,-18.9l20.407,-17.197c1.476,-1.239 3.624,-1.294 5.143,-0.131l279.052,210.853Z" style="fill:#9ee1fd;fill-rule:nonzero;"/><path d="M3487.82,1834.75l8.189,6.158l3.079,3.342c0.339,0.353 0.529,0.825 0.529,1.315c0,0.809 -0.517,1.533 -1.282,1.796l-128.962,44.778l-170.235,59.945c-2.774,-0.917 -4.565,-2.61 -5.373,-5.077l130.568,-49.627c14.303,-4.978 28.356,-10.591 42.157,-16.836c11.814,-5.351 20.44,-8.855 25.878,-10.515c11.956,-3.702 21.095,-8.648 34.984,-12.939c20.33,-6.267 40.487,-13.714 60.468,-22.34Z" style="fill:#9ee1fd;fill-rule:nonzero;"/></g><g><path d="M4618.44,1025.28c-12.644,22.296 -24.283,45.018 -34.918,68.166c-5.372,11.661 -10.7,22.624 -15.985,32.888c-10.711,20.734 -18.966,39.078 -32.789,61.483c-0.566,0.928 -0.445,2.134 0.295,2.949c1.07,1.179 2.849,1.998 5.339,2.456c-13.922,-0.786 -28.629,-4.553 -40.815,-5.339c-18.147,-1.147 -36.589,0.295 -54.375,-3.407l112.321,-131.975c-4.061,6.442 -11.388,16.629 -21.979,30.561c-11.006,14.511 0.852,30.726 11.072,44.353c0.623,0.807 1.575,1.289 2.587,1.31l1.278,-0c0.816,0.101 1.532,0.619 1.9,1.376c1.288,2.642 4.007,2.86 8.156,0.655c0.791,-0.427 1.439,-1.064 1.867,-1.835c12.382,-22.667 23.836,-47.136 34.362,-73.407c3.297,-8.233 10.525,-18.311 21.684,-30.234Z" style="fill:#2165aa;fill-rule:nonzero;"/><path d="M3725.37,1185.98l-90.539,6.879c-9.718,-22.58 -20.68,-44.647 -32.888,-66.201c-5.961,-10.526 -11.126,-20.374 -15.493,-29.546c-4.805,-10.089 -9.718,-20.091 -14.741,-30.005l13.398,19.556c0.53,0.781 1.414,1.25 2.358,1.25c0.813,-0 1.589,-0.348 2.129,-0.956c6.464,-7.293 14.741,-12.84 24.83,-16.64c1.65,-0.63 2.739,-2.23 2.718,-3.996c-0.043,-2.795 -0.949,-6.235 -2.718,-10.318l110.946,129.977Z" style="fill:#2165aa;fill-rule:nonzero;"/><path d="M3482.9,1931.29l-0.656,-8.451c-0.069,-0.922 -0.878,-1.628 -1.801,-1.572c-16.204,1.026 -29.667,2.784 -40.389,5.274c-27.472,6.333 -51.58,10.591 -72.326,12.775c25.386,-6.093 51.526,-9.336 75.504,-18.508c0.652,-0.254 1.085,-0.886 1.085,-1.587c-0,-0.417 -0.153,-0.82 -0.43,-1.131c-8.452,-9.303 -18.344,-15.189 -29.678,-17.656c-14.849,-3.254 -29.797,-6.016 -44.843,-8.288l128.962,-44.778c0.765,-0.263 1.282,-0.987 1.282,-1.796c0,-0.49 -0.19,-0.962 -0.529,-1.315l-3.079,-3.342c5.154,1.813 7.261,4.521 6.322,8.124c-3.046,11.792 -6.453,22.733 -8.287,35.246c-2.359,15.92 -6.071,31.588 -11.137,47.005Z" style="fill:#2165aa;fill-rule:nonzero;"/><path d="M4671.17,1844.02c-0.109,1.376 0.219,2.206 0.983,2.49c43.915,16.465 92.832,33.52 146.749,51.165c-17.165,-2.391 -35.115,-8.222 -51.428,2.162c-11.104,7.076 -18.54,15.003 -20.243,28.367c-0.103,0.99 0.575,1.899 1.539,2.064l64.334,10.842c-35.399,-2.511 -70.208,-8.353 -104.428,-17.524c-6.977,-1.9 -13.725,-2.719 -20.669,-3.505c-0.067,-0.008 -0.134,-0.012 -0.201,-0.012c-0.871,-0 -1.604,0.682 -1.666,1.551l-0.688,8.026c-9.215,-30.311 -15.406,-56.756 -18.573,-79.337c-0.349,-2.533 1.081,-4.629 4.291,-6.289Z" style="fill:#2165aa;fill-rule:nonzero;"/></g><g><path d="M3324.33,1897.38l-130.568,49.627l-34.623,12.48c-0.111,0.033 -0.232,0.034 -0.346,0.001c-0.311,-0.089 -0.497,-0.404 -0.413,-0.698c0.033,-0.114 0.104,-0.215 0.202,-0.286l11.268,-8.648c34.045,-20.047 67.326,-41.48 99.842,-64.301l69.64,-40.716c0.82,-0.472 1.863,-0.366 2.588,0.262c9.936,8.823 16.651,19.741 20.145,32.757c0.247,0.904 -0.198,1.864 -1.048,2.26l-36.687,17.262Z" style="fill:#52abfd;fill-rule:nonzero;"/><path d="M4856.64,1856.01c15.025,10.963 30.966,21.543 47.825,31.741c10.645,6.453 23.355,17.197 33.051,23.716c20.986,14.085 41.961,27.34 62.925,39.766c0.708,0.401 1.147,1.154 1.147,1.967c0,1.24 -1.02,2.26 -2.26,2.26c-0.132,0 -0.264,-0.011 -0.394,-0.034c-6.376,-0.983 -12.425,-3.079 -18.147,-6.289c-3.887,-2.162 -10.602,-4.488 -20.145,-6.977c-1.592,-0.415 -3.158,-0.929 -4.684,-1.54c-16.247,-6.584 -34.165,-14.937 -55.719,-22.274c-28.039,-9.587 -55.686,-20.124 -82.939,-31.61c0.961,-10.461 4.902,-19.458 11.825,-26.992c6.136,-6.682 15.308,-7.927 27.515,-3.734Z" style="fill:#52abfd;fill-rule:nonzero;"/></g><path d="M4089.45,2031.91c-0.35,-0.065 -0.634,-0.251 -0.852,-0.557c-9.259,-11.989 -18.638,-23.879 -28.138,-35.671c-17.525,-21.751 -41.863,-45.794 -63.777,-68.396c-6.245,-6.442 -13.91,-13.878 -22.995,-22.307c-17.557,-16.28 -35.082,-35.967 -53.425,-48.512c-2.686,-1.835 -13.42,-10.035 -32.2,-24.6c-3.079,-2.403 -4.804,-3.844 -5.176,-4.324c-0.236,-0.292 -0.366,-0.657 -0.366,-1.033c0,-0.898 0.739,-1.638 1.638,-1.638c0.079,0 0.157,0.006 0.235,0.017c15.887,2.392 37.343,10.057 52.64,17.525c10.788,5.263 28.564,13.245 53.327,23.945c9.893,4.291 19.687,10.777 29.055,16.902c18.77,12.219 35.41,38.85 42.649,62.893c1.551,5.11 4.75,13.758 9.598,25.943c7.032,17.688 13.496,37.026 19.392,58.012c0.033,0.122 0.05,0.249 0.05,0.376c-0,0.791 -0.651,1.441 -1.442,1.441c-0.071,0 -0.143,-0.005 -0.213,-0.016Z" style="fill:#edb466;fill-rule:nonzero;"/></g><g><g><path d="M4285.4,4128.87l-0,-170.875l220.833,-0c-2.583,18.5 6.5,43.916 -6.25,58.333l-156.25,0l0,54.208l183.334,0l-0,58.334l-241.667,-0Z" style="fill-rule:nonzero;"/><path d="M4527.06,3862.16l-0.001,58.334l-231.249,-0l-8.584,-3.917c-4.167,-17.667 -0.792,-36.417 -1.833,-54.458l241.708,-0l-0.042,0.041Z" style="fill-rule:nonzero;"/></g><g><path d="M4006.23,4128.83l0,-170.833l216.667,-0l-0,58.333l-158.334,0l0,112.5l-58.333,0Z" style="fill-rule:nonzero;"/><path d="M4247.9,3862.16l-3.917,56.5l-230.916,1.25c-13.125,-4.291 -4.417,-45.5 -6.834,-57.75l241.667,0Z" style="fill-rule:nonzero;"/></g><path d="M3952.06,3857.99l-0,270.833l-58.334,0l4.167,-270.833l54.167,-0Z" style="fill-rule:nonzero;"/><path d="M3697.9,3857.99l-0,212.5l152.083,-0c12.75,14.416 3.709,39.791 6.25,58.333l-216.666,0l-0,-270.833l58.333,-0Z" style="fill-rule:nonzero;"/></g><g><path d="M5106.25,3505.44c4.167,9.208 61.542,90.875 66.583,87.5l62.584,-87.5l66.666,-0l-103.291,144.625l-0.875,126.208l-58.334,-0l-1,-126.083c-26.791,-43.125 -64.5,-82.709 -91.666,-125.042c-4.125,-6.417 -8.417,-11.292 -7.334,-19.75l66.667,-0l0,0.042Z" style="fill-rule:nonzero;"/><path d="M4993.75,3505.44c13.583,47.708 -14.833,99 -49,131.208l82.333,139.625l-66.666,-0l-67.25,-116.042l-5.625,-1.041l-60.5,4.583l-0,112.542l-58.292,-0l0,-170.875l102.083,-0c15.334,-0 54.125,-23.334 56.25,-41.667l-158.333,-0l4.167,-58.333l220.833,-0Z" style="fill-rule:nonzero;"/><g><path d="M4589.58,3505.44l150,270.833l-70.833,-0l-116.042,-211.5c-2.291,-14.333 21.209,-44.875 28.542,-59.333l8.333,-0Z" style="fill-rule:nonzero;"/><path d="M4431.25,3776.27l93.792,-170.875l19.458,26.417l15.917,37.916l-58.334,106.542l-70.833,-0Z" style="fill-rule:nonzero;"/></g><path d="M4385.42,3505.44c11.208,45.125 -13.459,101 -50.25,127.333l83.583,143.5l-66.667,-0c-22.583,-31.583 -40.916,-78.833 -64.75,-108.167c-13.583,-16.708 -47.291,1.542 -68.625,-4.375l0,112.542l-58.291,-0l-0,-170.833l102.083,-0c15.333,-0 54.125,-23.334 56.25,-41.667l-158.333,-0l-0,-58.333l225,-0Z" style="fill-rule:nonzero;"/><g><rect x="3972.92" y="3605.44" width="58.333" height="170.833"/><path d="M4122.92,3509.61l-0,58.334l-235.417,-0c-12.75,-14.417 -3.667,-39.834 -6.25,-58.334l241.667,0Z" style="fill-rule:nonzero;"/></g><rect x="3785.42" y="3505.44" width="54.167" height="270.833"/><path d="M3652.08,3505.44c50,15.541 76.042,43.041 70.834,97.958c-0.875,9.292 -8.5,23.625 -7.5,28.542c0.791,4 13.708,16.333 17.5,23.916c25.958,52.459 1.666,96.542 -47.5,120.417l-183.334,-0l0,-162.5l147.917,-0c20.375,-0 19.208,-45.833 4.167,-45.833l-152.084,-0l0,-62.5l150,-0Zm18.75,166.666c-25.208,-7 -81.458,5.167 -110.416,0l-0,45.834l110.416,-0c18.167,-0 19.5,-40.417 0,-45.834Z" style="fill-rule:nonzero;"/><path d="M3427.08,3505.44c15.292,49.833 -13,99.041 -49.25,131.208l86.75,139.625l-70.833,-0l-64.542,-112.542c-10.541,-9.625 -51.958,5.459 -68.833,0l0,112.542l-58.292,-0l0,-170.833l102.084,-0c12.75,-0 58.416,-22.667 56.25,-41.667l-158.334,-0l4.167,-58.333l220.833,-0Z" style="fill-rule:nonzero;"/><g><path d="M3027.08,3505.44l145.834,270.833l-70.834,-0l-116.041,-211.333c-2.459,-15.334 23.75,-43.542 28.541,-59.5l12.5,-0Z" style="fill-rule:nonzero;"/><path d="M2939.58,3776.27l-75,-0l0,-4.167l97.875,-166.625l34.584,63.792l-57.459,107Z" style="fill-rule:nonzero;"/></g></g></g></svg>