<?xml version="1.0" encoding="UTF-8" standalone="no"?><!DOCTYPE svg PUBLIC "-//W3C//DTD SVG 1.1//EN" "http://www.w3.org/Graphics/SVG/1.1/DTD/svg11.dtd"><svg width="100%" height="100%" viewBox="4556 1010 5061 8003" version="1.1" xmlns="http://www.w3.org/2000/svg" xmlns:xlink="http://www.w3.org/1999/xlink" xml:space="preserve" xmlns:serif="http://www.serif.com/" style="fill-rule:evenodd;clip-rule:evenodd;stroke-linejoin:round;stroke-miterlimit:2;"><g id="Logo"><g id="Ballot"><path id="Ballot1" serif:id="Ballot" d="M8606.38,8179.15c13.314,42.517 19.97,89.359 19.97,140.529c0,135.512 -42.633,243.364 -127.899,323.554c-85.266,79.684 -183.728,119.525 -295.386,119.525c-107.09,0 -201.238,-36.796 -282.444,-110.389c-80.698,-74.1 -121.047,-174.085 -121.047,-299.954c-0,-136.02 42.633,-243.871 127.899,-323.554c85.266,-79.683 183.728,-119.525 295.386,-119.525c91.173,0 172.781,26.671 244.824,80.013l-83.732,83.732c-53.316,-44.706 -113.358,-67.059 -180.125,-67.059c-70.547,-0 -133.482,30.198 -188.803,90.595c-54.814,60.397 -82.221,140.08 -82.221,239.049c-0,103.03 29.183,183.475 87.55,241.334c58.874,57.859 126.123,86.789 201.746,86.789c70.547,-0 133.228,-30.199 188.042,-90.596c55.321,-60.904 82.982,-140.841 82.982,-239.81c-0,-13.55 -0.504,-26.703 -1.512,-39.462l114.77,-114.771Zm253.066,-253.065l507.653,-0l-3.806,98.208c-88.819,-4.568 -178.146,-6.852 -267.979,-6.852c-1.523,59.89 -2.284,158.352 -2.284,295.386c-0,139.065 2.03,281.175 6.09,426.331l-136.273,-0c5.583,-139.573 8.374,-281.683 8.374,-426.331c-0,-115.21 -1.269,-213.672 -3.807,-295.386c-51.919,0 -120.116,1.756 -204.591,5.267l96.623,-96.623Zm-3358.25,510.835c-0,98.462 -41.872,174.592 -125.615,228.391c-81.714,52.276 -193.879,78.415 -336.497,78.415c-39.588,-0 -117.241,-1.523 -232.959,-4.568c7.106,-157.336 10.658,-330.914 10.658,-520.732c0,-178.653 -3.552,-335.482 -10.658,-470.486l91.357,-0c17.763,-0 53.545,-0.762 107.344,-2.284c53.798,-1.523 92.879,-2.284 117.24,-2.284c211.135,-0 316.703,72.831 316.703,218.494c0,113.688 -49.992,189.311 -149.977,226.869l0,7.613c141.603,25.377 212.404,105.567 212.404,240.572Zm-190.326,-436.989c-0,-105.06 -70.801,-157.59 -212.404,-157.59c-71.055,0 -128.66,3.807 -172.816,11.42c4.06,36.542 6.09,139.826 6.09,309.851c24.87,1.015 52.277,1.522 82.221,1.522c100.492,0 173.578,-11.419 219.256,-34.258c51.769,-25.377 77.653,-69.025 77.653,-130.945Zm61.666,449.931c-0,-124.854 -110.643,-187.281 -331.929,-187.281c-40.603,0 -76.384,1.523 -107.344,4.568c-0,135.512 2.791,256.56 8.374,363.142c19.287,4.568 53.292,6.852 102.015,6.852c122.316,-0 209.105,-15.987 260.366,-47.962c45.678,-28.93 68.518,-75.369 68.518,-139.319Zm1047.55,289.296l-157.59,-0c0,-27.915 -26.645,-113.181 -79.937,-255.798l-369.232,-0c-52.784,140.587 -79.176,225.853 -79.176,255.798l-149.216,-0c0,-15.734 56.337,-148.962 169.01,-399.685c113.181,-250.723 169.771,-388.519 169.771,-413.388l176.622,-0c0,24.362 53.292,160.381 159.874,408.059c106.583,247.17 159.874,382.175 159.874,405.014Zm-268.74,-346.394c-98.462,-237.527 -147.693,-364.157 -147.693,-379.891l-8.375,0c0,13.704 -51.007,140.334 -153.022,379.891l309.09,0Zm916.61,244.379l-3.806,102.015l-534.436,-0c5.583,-104.553 8.374,-246.663 8.374,-426.331c0,-156.321 -2.791,-285.235 -8.374,-386.742l139.319,-0c-5.076,86.788 -7.613,215.703 -7.613,386.742c-0,138.558 -2.792,249.201 -8.375,331.929c131.452,0 269.756,-2.538 414.911,-7.613Zm656.245,-0l-3.807,102.015l-534.436,-0c5.583,-104.553 8.375,-246.663 8.375,-426.331c-0,-156.321 -2.792,-285.235 -8.375,-386.742l139.319,-0c-5.075,86.788 -7.613,215.703 -7.613,386.742c0,138.558 -2.791,249.201 -8.374,331.929c131.452,0 269.755,-2.538 414.911,-7.613Z"/><path id="Check" d="M8821.73,7921.74l-0.241,0.241l-0.301,0.196l-0.709,0.467l-0.528,0.332l-1.131,0.679l-0.724,0.422l-3.242,1.855l-2.097,1.161l-4.494,2.458l-2.594,1.373l-22.591,12.472l-15.05,8.731l-7.51,4.57l-15.006,9.274l-7.48,4.841l-14.945,9.818l-7.45,5.112l-14.869,10.331l-7.405,5.353l-14.794,10.843l-7.36,5.61l-14.673,11.341l-7.299,5.852l-14.568,11.808l-7.239,6.092l-14.432,12.291l-7.164,6.304l-14.266,12.743l-7.088,6.545l-14.116,13.181l-6.982,6.756l-13.935,13.618l-6.892,6.967l-13.738,14.025l-6.786,7.164l-13.528,14.432l-6.681,7.359l-13.301,14.825l-6.545,7.555l-13.06,15.202l-6.424,7.736l-31.037,38.667l-20.147,26.452l-9.788,13.557l-19.409,27.312l-9.41,13.964l-18.64,28.126l-9.018,14.357l-17.826,28.91l-8.611,14.719l-16.996,29.633l-8.189,15.066l-16.136,30.312l-7.752,15.383l-15.261,30.945l-7.284,15.684l-4.781,10.301l-2.217,4.795l-2.187,4.705l-1.025,2.217l-2.006,4.313l-0.905,1.976l-1.764,3.785l-0.769,1.674l-1.463,3.152l-0.588,1.297l-1.116,2.398l-0.407,0.875l-0.694,1.523l-0.181,0.392l-2.594,5.7l-45.348,-55.467l-4.976,-6.077l-3.605,-4.419l-1.93,-2.353l-3.936,-4.825l-2.081,-2.549l-4.253,-5.203l-2.217,-2.714l-9.154,-11.19l-4.871,-5.972l-9.923,-12.155l-5.158,-6.304l-21.007,-25.713l-10.466,-12.818l-10.421,-12.744l-5.037,-6.183l-9.953,-12.185l-4.706,-5.761l-13.768,-16.86l-8.777,-10.753l-4.148,-5.067l-8.068,-9.893l-3.71,-4.524l-3.649,-4.464l-1.734,-2.126l-3.394,-4.148l-1.583,-1.945l-3.122,-3.816l-1.448,-1.764l-2.805,-3.438l-1.281,-1.569l-2.489,-3.031l-1.101,-1.357l-2.141,-2.609l-0.92,-1.131l-1.765,-2.142l-0.723,-0.89l-1.358,-1.658l-0.527,-0.634l-0.935,-1.131l-0.302,-0.362l-0.483,-0.588l-0.06,-0.075l-0.603,-0.92l-0.076,-0.784l0.272,-0.649l0.332,-0.709l0.271,-0.467l0.618,-0.981l0.423,-0.618l0.95,-1.327l0.618,-0.814l1.342,-1.719l0.83,-1.041l1.794,-2.217l1.071,-1.297l2.277,-2.745l1.342,-1.613l2.836,-3.348l1.628,-1.93l3.439,-4.027l1.96,-2.307l4.087,-4.766l2.323,-2.699l4.795,-5.58l2.685,-3.122l5.579,-6.47l3.092,-3.574l6.379,-7.42l3.529,-4.071l9.818,-11.401l7.027,-8.144l3.469,-4.011l6.831,-7.933l3.047,-3.544l2.986,-3.468l1.342,-1.554l2.594,-3.016l1.116,-1.297l6.409,-7.314l3.831,-4.298l1.583,-1.704l1.508,-1.629l0.649,-0.679l1.221,-1.266l0.483,-0.468l0.874,-0.859l0.302,-0.242l0.483,-0.392l0.09,0l0.392,0.392l0.543,0.649l0.392,0.512l0.89,1.147l0.558,0.739l1.206,1.598l0.724,0.965l1.523,2.051l0.86,1.177l1.795,2.458l1.01,1.372l2.066,2.835l1.131,1.554l2.323,3.197l1.251,1.719l5.218,7.239l2.911,4.056l6.002,8.37l3.257,4.555l6.651,9.335l3.514,4.946l7.133,10.059l3.71,5.233l10.858,15.337l6.937,9.788l3.273,4.599l6.379,8.988l2.926,4.132l5.685,7.978l2.534,3.544l2.458,3.454l1.146,1.598l2.232,3.122l1.025,1.433l1.976,2.759l0.875,1.222l1.704,2.368l0.739,1.025l1.402,1.945l0.588,0.8l1.086,1.508l0.422,0.573l0.755,1.025l0.241,0.317l0.407,0.528l0.06,0.075l0.664,0.347l0.558,-0.03l0.362,-0.151l0.784,-0.422l0.498,-0.377l1.07,-0.875l0.649,-0.618l1.402,-1.372l0.845,-0.89l1.779,-1.915l1.056,-1.192l2.232,-2.533l1.312,-1.508l2.73,-3.198l1.583,-1.855l19.65,-22.756l13.422,-15.066l6.862,-7.48l13.829,-14.915l7.043,-7.39l14.191,-14.733l7.208,-7.284l29.167,-28.895l14.99,-14.04l30.207,-27.779l15.382,-13.392l15.443,-13.301l7.766,-6.5l15.564,-12.924l7.827,-6.304l15.684,-12.502l7.857,-6.092l15.744,-12.065l7.872,-5.851l15.775,-11.582l7.887,-5.595l15.759,-11.07l7.857,-5.338l15.714,-10.527l7.827,-5.052l15.639,-9.953l7.782,-4.75l28.759,-16.951l19.59,-10.934l9.923,-5.233l19.906,-10.315l9.969,-4.901l19.937,-9.592l9.893,-4.479l19.71,-8.731l9.682,-4.012l19.213,-7.766l9.32,-3.484l18.443,-6.681l8.853,-2.88l8.777,-2.82l4.283,-1.282l8.475,-2.489l4.117,-1.116l0.226,0.031Z" style="fill:#de0000;fill-rule:nonzero;"/></g><g id="Legacy"><path id="Torch" d="M6494.98,3891.89l492.484,103.261l58.543,12.107l35.691,7.491l16.188,3.405l31.471,6.623l14.213,3.078l27.581,6.06l12.464,2.797l24.068,5.573l10.851,2.623l21.022,5.105l9.388,2.479l18.247,4.849l8.242,2.321l15.758,4.731l7.14,2.331l26.598,9.314l11.095,4.872l21.042,9.979l9.387,5.542l18.347,11.624l9.139,6.748l18.53,14.175l10.383,8.339l23.533,21.173l15.595,15.85l7.559,8.701l29.503,36.46l13.129,19.82l24.7,40.343l9.596,20.194l9.144,20.102l3.661,9.706l6.778,19.38l2.367,9.126l9.631,36.461l4.592,21.994l0.819,13.6l0.453,14.231l-0.316,8.418l-0.849,17.891l-1.037,10.783l-2.445,22.983l-1.898,13.827l-4.289,29.281l-2.823,17.564l-3.067,17.985l-1.712,9.859l-3.532,20.246l-1.928,10.914l-4.163,22.552l-2.282,12.255l-4.749,25.023l-2.546,13.537l-5.382,27.72l-2.9,14.878l-5.97,30.584l-3.3,16.445l-6.665,33.584l-3.611,17.952l-7.33,36.824l-4.042,19.67l-8.088,40.125l-4.322,21.419l-8.891,43.651l-4.785,23.287l-9.65,47.344l-91.519,445.402l-377.625,1838.39l-251.347,-0l377.869,-1840.35l19.125,-93.074l12.081,-59.177l38.28,-186.299l9.851,-48.324l13.937,-67.828l4.291,-21.268l8.579,-41.752l3.967,-19.685l7.944,-38.662l3.656,-18.178l7.25,-35.663l3.438,-16.731l6.585,-32.814l3.159,-15.374l6.028,-30.102l2.821,-14.108l5.561,-27.448l2.557,-12.828l4.991,-25.051l2.309,-11.622l4.51,-22.716l2.002,-10.506l4.046,-20.455l1.785,-9.451l3.537,-18.36l1.659,-8.456l6.007,-31.912l2.424,-13.326l4.417,-24.935l1.714,-10.251l3.117,-18.996l1.081,-7.554l1.885,-14.144l0.588,-5.534l0.913,-10.181l0.187,-3.967l0.084,-7.288l-0.121,-2.852l-1.245,-9.996l-1.017,-4.607l-10.687,-33.615l-10.056,-21.781l-6.208,-10.308l-13.324,-20.018l-7.707,-9.124l-16.054,-17.437l-8.908,-7.486l-9.558,-7.384l-6.948,-4.412l-4.5,-2.181l-9.967,-4.248l-6.914,-2.284l-15.2,-4.773l-10.367,-2.68l-10.879,-2.864l-6.284,-1.527l-13.156,-3.253l-7.505,-1.699l-15.659,-3.689l-8.862,-1.978l-18.477,-4.11l-10.445,-2.304l-21.567,-4.746l-12.028,-2.628l-25.034,-5.458l-13.851,-2.925l-28.652,-6.201l-15.811,-3.328l-32.571,-7.006l-17.921,-3.761l-473.272,-101.023l30.651,-244.91Zm758.441,3462.96l651.616,-3171.24l248.702,51.102l-641.116,3120.14l-259.202,-0Zm510.549,-0l433.168,-2108.11l10.203,-49.273l4.769,-23.212l9.413,-45.429l4.398,-21.404l8.745,-41.796l4.027,-19.594l8.048,-38.405l3.836,-17.906l7.367,-35.088l3.511,-16.323l6.808,-31.984l3.201,-14.816l6.279,-29.028l2.923,-13.459l5.766,-26.15l2.719,-12.087l5.314,-23.571l2.472,-10.881l4.894,-21.145l2.3,-9.66l4.58,-18.852l2.082,-8.605l8.229,-32.398l3.707,-13.455l7.133,-25.162l3.374,-10.303l6.378,-19.19l3.12,-7.92l6.067,-14.62l3.066,-6.125l12.108,-21.468l6.748,-9.139l14.324,-18.107l8.873,-11.451l19.781,-22.877l15.123,-15.115l8.444,-7.455l35.673,-29.115l19.821,-13.129l40.646,-25.031l20.755,-10.03l20.737,-9.563l10.161,-3.961l20.288,-7.377l9.763,-2.785l35.447,-9.29l21.618,-4.669l10.886,-1.377l21.891,-2.178l12.192,-0.087l25.272,0.48l14.961,1.346l15.398,1.515l8.43,1.025l17.506,2.34l9.664,1.515l19.871,3.062l11.065,1.959l22.749,3.968l12.572,2.269l25.928,4.935l14.365,2.716l29.514,5.828l16.294,3.27l33.568,6.74l18.404,3.703l37.833,7.774l20.741,4.183l295.819,60.05l0,250.903l-345.683,-68.28l-50.646,-10.014l-30.72,-6.077l-13.898,-2.698l-26.876,-5.287l-12.165,-2.343l-23.349,-4.483l-10.431,-1.987l-20.185,-3.833l-8.923,-1.676l-17.186,-3.139l-7.582,-1.322l-14.548,-2.597l-6.392,-0.999l-12.167,-1.95l-5.337,-0.783l-19.255,-2.621l-7.179,-0.611l-13.033,-0.793l-5.056,0.14l-9.178,0.706l-3.942,0.839l-7.675,1.801l-4.02,1.216l-32.767,13.061l-21.065,11.538l-9.754,6.95l-19.044,14.702l-8.554,8.375l-16.267,17.236l-6.809,9.44l-7.837,12.528l-2.564,5.6l-1.468,3.704l-2.925,8.118l-1.643,5.318l-3.486,11.615l-2.001,7.444l-4.158,16.032l-2.452,10.022l-5.214,21.55l-3.026,13.202l-6.32,28.078l-3.77,16.819l-3.788,17.288l-2.011,9.405l-4.206,19.322l-2.227,10.46l-4.655,21.508l-2.46,11.59l-5.045,23.784l-2.708,12.797l-5.539,26.195l-2.881,14.018l-6.066,28.758l-3.234,15.359l-6.533,31.411l-3.513,16.716l-7.106,34.199l-3.732,18.163l-7.71,37.139l-4.042,19.67l-8.329,40.154l-4.367,21.252l-8.979,43.319l-14.278,69.486l-5.124,24.553l-32.504,158.189l-11.844,57.261l-25.288,123.07l-327.051,1590.97l-251.36,-0Zm873.601,-5647.22l40.513,138.083l23.476,92.167l9.901,45.47l18.551,90.527l7.267,44.143l13.182,87.224l4.458,41.76l9.961,94.103l-28.121,36.322l-51.273,60.313l-19.131,19.712l-10.737,10.204l-22.229,20.646l-12.702,10.978l-26.571,22.66l-15.184,12.353l-31.957,25.559l-18.409,14.283l-18.831,14.432l-10.075,7.748l-20.649,15.629l-11.043,8.256l-22.572,16.963l-12.134,8.974l-24.646,18.264l-13.239,9.769l-59.201,44.231l-35.299,26.914l-15.759,12.472l-30.335,24.164l-13.565,11.351l-26.069,22.134l-11.734,10.471l-22.531,20.583l-10.223,9.996l-19.689,19.754l-9,9.775l-34.186,39.082l-15.469,20.621l-22.267,30.77l-13.307,19.652l-5.874,9.475l-21.819,37.382l-8.564,18.741l-15.786,37.836l-6.234,20.397l-5.994,20.762l-2.728,10.985l-5.249,22.486l-2.387,11.998l-7.644,44.85l-3.746,29.313l-1.087,14.465l-2.701,57.49l1.554,28.753l2.081,28.862l1.719,14.57l4.041,29.264l2.683,14.846l5.998,30.059l3.676,15.365l7.985,31.096l4.714,16.049l17.568,53.644l7.113,18.899l4.156,10.357l8.685,21.186l5.098,11.887l10.795,24.682l6.309,14.021l13.396,29.222l7.804,16.685l16.459,34.957l9.552,20.028l9.791,20.392l5.208,10.967l10.732,22.313l5.792,11.951l20.221,42.642l11.742,25.427l4.698,10.391l4.399,9.937l1.804,4.219l3.398,7.924l1.236,3.161l2.219,5.64l0.654,1.783l0.875,3.008l-0.093,0.452l-1.112,1.971l-1.345,0.43l-3.338,0.571l-2.474,-0.194l-5.443,-0.647l-3.361,-0.848l-7.308,-1.894l-4.278,-1.35l-18.767,-6.527l-11.503,-4.799l-24.118,-10.297l-13.532,-6.393l-27.95,-13.441l-14.928,-7.623l-30.216,-15.791l-15.451,-8.516l-62.147,-35.47l-28.481,-18.498l-55.942,-38.907l-35.272,-27.12l-16.644,-14.18l-32.501,-28.75l-15.237,-14.913l-29.748,-30.304l-13.814,-15.72l-27.008,-31.784l-12.408,-16.452l-24.194,-33.248l-11,-17.184l-21.395,-34.637l-9.593,-17.916l-18.445,-35.994l-8.217,-18.497l-15.572,-37.367l-6.75,-19.138l-12.728,-38.59l-5.283,-19.779l-9.869,-39.887l-3.756,-20.33l-6.967,-41.019l-2.304,-20.895l-3.973,-42.21l-0.853,-21.461l-0.934,-43.236l0.583,-21.951l2.029,-44.276l2.185,-22.486l5.067,-45.301l3.621,-22.977l4.77,-28.946l2.91,-16.839l1.442,-7.402l5.666,-27.19l3.167,-11.21l6.586,-21.347l4.189,-10.45l9.059,-21.152l6.011,-12.432l32.218,-60.851l23.942,-39.302l13.668,-19.498l28.512,-38.992l16.492,-19.861l34.493,-40.197l19.953,-21.034l20.452,-21.169l11.042,-10.926l22.524,-22.078l12.086,-11.419l24.717,-23.198l13.311,-12.031l27.153,-24.347l14.568,-12.794l29.725,-25.782l15.9,-13.542l32.495,-27.412l17.338,-14.424l35.387,-29.253l18.867,-15.367l38.551,-31.273l20.487,-16.37l63.932,-51.585l39.584,-32.475l18.459,-15.294l35.858,-30.019l16.658,-14.172l32.362,-27.911l14.962,-13.184l29.047,-25.921l13.314,-12.424l25.945,-24.202l11.891,-11.617l23.07,-22.829l10.575,-10.944l20.394,-21.651l9.214,-10.439l17.913,-20.668l8.126,-10.113l15.632,-19.88l7.128,-9.846l26.247,-38.671l10.543,-19.198l19.532,-38.48l7.829,-19.756l14.606,-40.121l5.952,-21.32l18.959,-67.424m302.648,816.465l2.677,4.556l1.595,3.705l3.337,8.226l1.963,5.352l3.939,11.413l2.077,6.71l4.392,14.177l2.372,7.949l4.697,16.517l2.488,8.916l10.108,37.58l5.128,20.533l20.448,85.497l8.341,40.829l7.984,39.893l3.03,17.745l2.821,17.232l1.227,7.792l2.078,15.115l0.765,6.598l5.918,56.827l2.947,33.438l0.902,15.109l1.52,29.296l0.154,13.777l-0.036,26.934l-0.673,13.214l-1.663,26.443l-1.475,13.678l-3.33,27.671l-2.372,14.986l-5.141,30.754l-3.289,17.155l-7.008,35.633l-4.241,20.258l-9.407,44.252l-5.427,24.883l-2.485,10.565l-4.738,19.998l-2.233,8.574l-4.386,16.379l-2.271,7.231l-9.06,26.886l-5.635,12.902l-5.818,13.021l-3.311,6.939l-7.122,14.403l-4.117,8.187l-37.226,66.105l-28.02,43.098l-15.487,21.089l-32.118,41.628l-17.504,20.202l-35.941,39.979l-19.43,19.257l-39.644,38.117l-21.115,18.283l-43.133,35.987l-22.769,17.157l-46.441,33.737l-24.332,15.972l-49.476,31.306l-25.864,14.636l-20.4,11.36l-9.351,4.991l-18.112,9.396l-7.578,3.626l-13.992,6.551l-4.869,1.906l-4.339,1.622l-1.587,0.459l-2.628,0.56l-0.603,-0.124l-5.84,-5.599l-6.085,-7.848l-3.713,-5.633l-7.948,-12.158l-4.338,-7.175l-8.989,-15.121l-4.529,-8.157l-30.467,-57.001l-18.77,-37.475l-8.609,-18.499l-16.662,-36.649l-7.54,-17.965l-14.585,-35.672l-6.472,-17.432l-12.372,-34.589l-5.344,-16.807l-10.115,-33.34l-4.231,-16.107l-7.889,-31.94l-3.043,-15.392l-5.544,-30.358l-1.87,-14.601l-2.673,-34.01l-0.419,-23.571l0.576,-11.978l3.891,-48.37l4.501,-23.817l10.614,-47.068l7.583,-21.613l7.898,-21.234l4.457,-9.845l9.291,-19.219l5.161,-8.68l19.627,-30.92l13.925,-19.603l7.641,-9.662l16.05,-19.244l8.984,-9.701l18.965,-19.667l10.827,-10.264l22.819,-20.838l13.066,-11.218l27.492,-22.942l15.865,-12.606l33.136,-25.945l18.967,-14.326l19.421,-14.625l10.377,-7.686l21.222,-15.747l11.285,-8.285l51.641,-38.401l31.194,-23.752l14.211,-11.061l27.32,-21.721l12.382,-10.18l23.991,-20.048l10.824,-9.48l20.875,-18.645l9.523,-8.883l18.245,-17.694l8.36,-8.572l31.216,-33.801l13.276,-16.83l33.306,-46.647l21.136,-33.673l9.14,-16.58l8.884,-16.476l3.889,-7.841l7.505,-15.502l3.116,-7.136l5.762,-13.897l2.13,-6.16l3.743,-11.72l1.006,-4.899l5.814,-17.97l2.423,-4.529l1.185,-1.563l2.353,-2.659l1.103,-0.401" style="fill:#9b803e;fill-rule:nonzero;"/><path id="Legacy1" serif:id="Legacy" d="M6824.4,1259.74l-762.811,6095.11l2407.62,-0l897.892,-2173.01l0,2341.74l-4560.97,-0l993.244,-329.243l-0,-5630.06l-842.271,-304.55l1867.3,-0Z"/></g></g></svg>